<svg width="1092" height="33" viewBox="0 0 1092 33" fill="none" xmlns="http://www.w3.org/2000/svg">
<rect x="255.75" y="0.25" width="85.5" height="32.5" rx="16.25" fill="white" fill-opacity="0.2"/>
<rect x="255.75" y="0.25" width="85.5" height="32.5" rx="16.25" stroke="#828282" stroke-width="0.5"/>
<path d="M271.307 16.4678C271.307 14.9232 271.721 13.715 272.551 12.8433C273.38 11.9673 274.451 11.5293 275.763 11.5293C276.622 11.5293 277.396 11.7345 278.086 12.145C278.776 12.5555 279.3 13.1289 279.66 13.8652C280.024 14.5973 280.206 15.4289 280.206 16.3599C280.206 17.3035 280.016 18.1478 279.635 18.8926C279.254 19.6374 278.714 20.2023 278.016 20.5874C277.318 20.9683 276.565 21.1587 275.756 21.1587C274.88 21.1587 274.097 20.9471 273.408 20.5239C272.718 20.1007 272.195 19.5231 271.84 18.791C271.484 18.0589 271.307 17.2845 271.307 16.4678ZM272.576 16.4868C272.576 17.6082 272.877 18.4927 273.478 19.1401C274.083 19.7834 274.84 20.105 275.75 20.105C276.677 20.105 277.438 19.7791 278.035 19.1274C278.636 18.4757 278.937 17.5511 278.937 16.3535C278.937 15.596 278.807 14.9359 278.549 14.373C278.295 13.806 277.921 13.368 277.426 13.0591C276.935 12.7459 276.383 12.5894 275.769 12.5894C274.897 12.5894 274.146 12.8898 273.516 13.4907C272.889 14.0874 272.576 15.0861 272.576 16.4868ZM281.818 21V11.6943H285.944C286.774 11.6943 287.404 11.779 287.836 11.9482C288.268 12.1133 288.612 12.4074 288.871 12.8306C289.129 13.2537 289.258 13.7214 289.258 14.2334C289.258 14.8936 289.044 15.45 288.617 15.9028C288.189 16.3556 287.529 16.6434 286.636 16.7661C286.962 16.9227 287.21 17.0771 287.379 17.2295C287.739 17.5596 288.079 17.9722 288.401 18.4673L290.02 21H288.471L287.239 19.064C286.88 18.5054 286.583 18.078 286.351 17.7817C286.118 17.4855 285.908 17.2782 285.722 17.1597C285.54 17.0412 285.354 16.9587 285.164 16.9121C285.024 16.8825 284.795 16.8677 284.478 16.8677H283.05V21H281.818ZM283.05 15.8013H285.697C286.26 15.8013 286.7 15.7441 287.017 15.6299C287.334 15.5114 287.576 15.3252 287.741 15.0713C287.906 14.8132 287.988 14.5339 287.988 14.2334C287.988 13.7933 287.827 13.4315 287.506 13.1479C287.188 12.8644 286.685 12.7227 285.995 12.7227H283.05V15.8013ZM291.194 21V11.6943H294.399C295.123 11.6943 295.675 11.7388 296.056 11.8276C296.589 11.9504 297.044 12.1725 297.421 12.4941C297.912 12.9089 298.278 13.4399 298.519 14.0874C298.764 14.7306 298.887 15.467 298.887 16.2964C298.887 17.0031 298.805 17.6294 298.64 18.1753C298.475 18.7212 298.263 19.174 298.005 19.5337C297.747 19.8892 297.463 20.1706 297.154 20.3779C296.85 20.5811 296.479 20.7355 296.043 20.8413C295.612 20.9471 295.115 21 294.552 21H291.194ZM292.425 19.9019H294.412C295.026 19.9019 295.506 19.8447 295.853 19.7305C296.204 19.6162 296.484 19.4554 296.691 19.248C296.983 18.9561 297.209 18.5646 297.37 18.0737C297.535 17.5786 297.618 16.9798 297.618 16.2773C297.618 15.304 297.457 14.5571 297.135 14.0366C296.818 13.5119 296.431 13.1606 295.974 12.9829C295.644 12.856 295.112 12.7925 294.38 12.7925H292.425V19.9019ZM300.614 21V11.6943H307.342V12.7925H301.845V15.6426H306.993V16.7344H301.845V19.9019H307.558V21H300.614ZM309.278 21V11.6943H313.404C314.234 11.6943 314.864 11.779 315.296 11.9482C315.728 12.1133 316.072 12.4074 316.331 12.8306C316.589 13.2537 316.718 13.7214 316.718 14.2334C316.718 14.8936 316.504 15.45 316.077 15.9028C315.649 16.3556 314.989 16.6434 314.096 16.7661C314.422 16.9227 314.67 17.0771 314.839 17.2295C315.199 17.5596 315.539 17.9722 315.861 18.4673L317.479 21H315.931L314.699 19.064C314.34 18.5054 314.043 18.078 313.811 17.7817C313.578 17.4855 313.368 17.2782 313.182 17.1597C313 17.0412 312.814 16.9587 312.624 16.9121C312.484 16.8825 312.255 16.8677 311.938 16.8677H310.51V21H309.278ZM310.51 15.8013H313.157C313.72 15.8013 314.16 15.7441 314.477 15.6299C314.794 15.5114 315.036 15.3252 315.201 15.0713C315.366 14.8132 315.448 14.5339 315.448 14.2334C315.448 13.7933 315.287 13.4315 314.966 13.1479C314.648 12.8644 314.145 12.7227 313.455 12.7227H310.51V15.8013ZM318.235 18.0103L319.396 17.9087C319.451 18.3742 319.578 18.7572 319.777 19.0576C319.98 19.3538 320.294 19.5951 320.717 19.7812C321.14 19.9632 321.616 20.0542 322.145 20.0542C322.615 20.0542 323.029 19.9844 323.389 19.8447C323.749 19.7051 324.015 19.5146 324.189 19.2734C324.367 19.028 324.456 18.7614 324.456 18.4736C324.456 18.1816 324.371 17.9277 324.202 17.7119C324.032 17.4919 323.753 17.3078 323.364 17.1597C323.114 17.0623 322.562 16.9121 321.707 16.709C320.852 16.5016 320.253 16.307 319.911 16.125C319.466 15.8923 319.134 15.6045 318.914 15.2617C318.698 14.9147 318.59 14.5275 318.59 14.1001C318.59 13.6304 318.724 13.1924 318.99 12.7861C319.257 12.3757 319.646 12.0646 320.158 11.853C320.67 11.6414 321.239 11.5356 321.866 11.5356C322.556 11.5356 323.163 11.6478 323.688 11.8721C324.216 12.0921 324.623 12.418 324.906 12.8496C325.19 13.2812 325.342 13.77 325.363 14.3159L324.183 14.4048C324.119 13.8166 323.903 13.3722 323.535 13.0718C323.171 12.7713 322.632 12.6211 321.917 12.6211C321.172 12.6211 320.628 12.7586 320.285 13.0337C319.947 13.3045 319.777 13.6325 319.777 14.0176C319.777 14.3519 319.898 14.627 320.139 14.8428C320.376 15.0586 320.994 15.2808 321.993 15.5093C322.996 15.7336 323.683 15.9303 324.056 16.0996C324.597 16.3493 324.997 16.6667 325.255 17.0518C325.514 17.4326 325.643 17.8727 325.643 18.3721C325.643 18.8672 325.501 19.3348 325.217 19.7749C324.934 20.2108 324.525 20.5514 323.992 20.7969C323.463 21.0381 322.867 21.1587 322.202 21.1587C321.36 21.1587 320.653 21.036 320.082 20.7905C319.515 20.5451 319.069 20.1769 318.743 19.686C318.421 19.1909 318.252 18.6323 318.235 18.0103Z" fill="white"/>
<rect x="357.75" y="0.25" width="92.5" height="32.5" rx="16.25" fill="white"/>
<rect x="357.75" y="0.25" width="92.5" height="32.5" rx="16.25" stroke="#828282" stroke-width="0.5"/>
<path d="M373.506 18.0103L374.667 17.9087C374.722 18.3742 374.849 18.7572 375.048 19.0576C375.251 19.3538 375.565 19.5951 375.988 19.7812C376.411 19.9632 376.887 20.0542 377.416 20.0542C377.886 20.0542 378.3 19.9844 378.66 19.8447C379.02 19.7051 379.286 19.5146 379.46 19.2734C379.638 19.028 379.727 18.7614 379.727 18.4736C379.727 18.1816 379.642 17.9277 379.473 17.7119C379.303 17.4919 379.024 17.3078 378.635 17.1597C378.385 17.0623 377.833 16.9121 376.978 16.709C376.123 16.5016 375.524 16.307 375.182 16.125C374.737 15.8923 374.405 15.6045 374.185 15.2617C373.969 14.9147 373.861 14.5275 373.861 14.1001C373.861 13.6304 373.995 13.1924 374.261 12.7861C374.528 12.3757 374.917 12.0646 375.429 11.853C375.941 11.6414 376.51 11.5356 377.137 11.5356C377.826 11.5356 378.434 11.6478 378.958 11.8721C379.487 12.0921 379.894 12.418 380.177 12.8496C380.461 13.2812 380.613 13.77 380.634 14.3159L379.454 14.4048C379.39 13.8166 379.174 13.3722 378.806 13.0718C378.442 12.7713 377.903 12.6211 377.188 12.6211C376.443 12.6211 375.899 12.7586 375.556 13.0337C375.218 13.3045 375.048 13.6325 375.048 14.0176C375.048 14.3519 375.169 14.627 375.41 14.8428C375.647 15.0586 376.265 15.2808 377.264 15.5093C378.267 15.7336 378.954 15.9303 379.327 16.0996C379.868 16.3493 380.268 16.6667 380.526 17.0518C380.785 17.4326 380.914 17.8727 380.914 18.3721C380.914 18.8672 380.772 19.3348 380.488 19.7749C380.205 20.2108 379.796 20.5514 379.263 20.7969C378.734 21.0381 378.138 21.1587 377.473 21.1587C376.631 21.1587 375.924 21.036 375.353 20.7905C374.786 20.5451 374.34 20.1769 374.014 19.686C373.692 19.1909 373.523 18.6323 373.506 18.0103ZM382.634 21V11.6943H383.865V15.5156H388.702V11.6943H389.934V21H388.702V16.6138H383.865V21H382.634ZM392.2 21V11.6943H393.431V21H392.2ZM395.608 21V11.6943H399.119C399.736 11.6943 400.208 11.724 400.534 11.7832C400.991 11.8594 401.374 12.0054 401.683 12.2212C401.992 12.4328 402.24 12.7311 402.426 13.1162C402.616 13.5013 402.711 13.9245 402.711 14.3857C402.711 15.1771 402.46 15.8478 401.956 16.3979C401.452 16.9438 400.543 17.2168 399.227 17.2168H396.84V21H395.608ZM396.84 16.1187H399.246C400.041 16.1187 400.606 15.9705 400.94 15.6743C401.275 15.3781 401.442 14.9613 401.442 14.4238C401.442 14.0345 401.342 13.7023 401.144 13.4272C400.949 13.1479 400.691 12.9639 400.369 12.875C400.162 12.82 399.779 12.7925 399.22 12.7925H396.84V16.1187ZM404.279 21V11.6943H407.79C408.407 11.6943 408.879 11.724 409.205 11.7832C409.662 11.8594 410.045 12.0054 410.354 12.2212C410.663 12.4328 410.91 12.7311 411.097 13.1162C411.287 13.5013 411.382 13.9245 411.382 14.3857C411.382 15.1771 411.131 15.8478 410.627 16.3979C410.123 16.9438 409.214 17.2168 407.897 17.2168H405.511V21H404.279ZM405.511 16.1187H407.917C408.712 16.1187 409.277 15.9705 409.611 15.6743C409.946 15.3781 410.113 14.9613 410.113 14.4238C410.113 14.0345 410.013 13.7023 409.814 13.4272C409.62 13.1479 409.362 12.9639 409.04 12.875C408.833 12.82 408.45 12.7925 407.891 12.7925H405.511V16.1187ZM413.16 21V11.6943H414.391V21H413.16ZM416.556 21V11.6943H417.819L422.707 19.0005V11.6943H423.887V21H422.624L417.736 13.6875V21H416.556ZM430.317 17.3501V16.2583L434.259 16.252V19.7051C433.654 20.1875 433.03 20.5514 432.387 20.7969C431.743 21.0381 431.083 21.1587 430.406 21.1587C429.492 21.1587 428.661 20.964 427.912 20.5747C427.167 20.1812 426.604 19.6141 426.223 18.8735C425.842 18.133 425.652 17.3057 425.652 16.3916C425.652 15.486 425.84 14.6418 426.217 13.8589C426.598 13.0718 427.144 12.4878 427.854 12.1069C428.565 11.7261 429.384 11.5356 430.311 11.5356C430.984 11.5356 431.591 11.6457 432.133 11.8657C432.679 12.0815 433.106 12.3841 433.415 12.7734C433.724 13.1628 433.959 13.6706 434.12 14.2969L433.009 14.6016C432.869 14.1276 432.696 13.7552 432.488 13.4844C432.281 13.2135 431.985 12.9977 431.6 12.8369C431.215 12.6719 430.787 12.5894 430.317 12.5894C429.755 12.5894 429.268 12.6761 428.857 12.8496C428.447 13.0189 428.115 13.2432 427.861 13.5225C427.611 13.8018 427.417 14.1086 427.277 14.4429C427.04 15.0184 426.921 15.6426 426.921 16.3154C426.921 17.1449 427.063 17.8389 427.347 18.3975C427.634 18.9561 428.051 19.3708 428.597 19.6416C429.143 19.9124 429.723 20.0479 430.336 20.0479C430.87 20.0479 431.39 19.9463 431.898 19.7432C432.406 19.5358 432.791 19.3158 433.053 19.083V17.3501H430.317Z" fill="black"/>
<rect x="466.75" y="0.25" width="190.5" height="32.5" rx="16.25" fill="white" fill-opacity="0.2"/>
<rect x="466.75" y="0.25" width="190.5" height="32.5" rx="16.25" stroke="#828282" stroke-width="0.5"/>
<path d="M482.807 21V11.6943H486.933C487.762 11.6943 488.393 11.779 488.824 11.9482C489.256 12.1133 489.601 12.4074 489.859 12.8306C490.117 13.2537 490.246 13.7214 490.246 14.2334C490.246 14.8936 490.032 15.45 489.605 15.9028C489.178 16.3556 488.517 16.6434 487.625 16.7661C487.95 16.9227 488.198 17.0771 488.367 17.2295C488.727 17.5596 489.068 17.9722 489.389 18.4673L491.008 21H489.459L488.228 19.064C487.868 18.5054 487.572 18.078 487.339 17.7817C487.106 17.4855 486.897 17.2782 486.71 17.1597C486.528 17.0412 486.342 16.9587 486.152 16.9121C486.012 16.8825 485.784 16.8677 485.466 16.8677H484.038V21H482.807ZM484.038 15.8013H486.685C487.248 15.8013 487.688 15.7441 488.005 15.6299C488.323 15.5114 488.564 15.3252 488.729 15.0713C488.894 14.8132 488.977 14.5339 488.977 14.2334C488.977 13.7933 488.816 13.4315 488.494 13.1479C488.177 12.8644 487.673 12.7227 486.983 12.7227H484.038V15.8013ZM492.208 21V11.6943H498.936V12.7925H493.439V15.6426H498.587V16.7344H493.439V19.9019H499.152V21H492.208ZM503.221 21V12.7925H500.155V11.6943H507.531V12.7925H504.452V21H503.221ZM514.907 11.6943H516.138V17.0708C516.138 18.006 516.032 18.7487 515.821 19.2988C515.609 19.849 515.226 20.2975 514.672 20.6445C514.122 20.9873 513.398 21.1587 512.501 21.1587C511.629 21.1587 510.916 21.0085 510.362 20.708C509.807 20.4076 509.412 19.9738 509.175 19.4067C508.938 18.8354 508.819 18.0568 508.819 17.0708V11.6943H510.051V17.0645C510.051 17.8727 510.125 18.4694 510.273 18.8545C510.425 19.2354 510.683 19.5295 511.047 19.7368C511.416 19.9442 511.864 20.0479 512.393 20.0479C513.299 20.0479 513.944 19.8426 514.329 19.4321C514.714 19.0216 514.907 18.2324 514.907 17.0645V11.6943ZM518.214 21V11.6943H522.34C523.169 11.6943 523.8 11.779 524.231 11.9482C524.663 12.1133 525.008 12.4074 525.266 12.8306C525.524 13.2537 525.653 13.7214 525.653 14.2334C525.653 14.8936 525.44 15.45 525.012 15.9028C524.585 16.3556 523.925 16.6434 523.032 16.7661C523.358 16.9227 523.605 17.0771 523.774 17.2295C524.134 17.5596 524.475 17.9722 524.796 18.4673L526.415 21H524.866L523.635 19.064C523.275 18.5054 522.979 18.078 522.746 17.7817C522.513 17.4855 522.304 17.2782 522.118 17.1597C521.936 17.0412 521.75 16.9587 521.559 16.9121C521.419 16.8825 521.191 16.8677 520.874 16.8677H519.445V21H518.214ZM519.445 15.8013H522.092C522.655 15.8013 523.095 15.7441 523.413 15.6299C523.73 15.5114 523.971 15.3252 524.136 15.0713C524.301 14.8132 524.384 14.5339 524.384 14.2334C524.384 13.7933 524.223 13.4315 523.901 13.1479C523.584 12.8644 523.08 12.7227 522.391 12.7227H519.445V15.8013ZM527.577 21V11.6943H528.84L533.728 19.0005V11.6943H534.908V21H533.645L528.757 13.6875V21H527.577ZM536.565 18.0103L537.727 17.9087C537.782 18.3742 537.909 18.7572 538.107 19.0576C538.311 19.3538 538.624 19.5951 539.047 19.7812C539.47 19.9632 539.946 20.0542 540.475 20.0542C540.945 20.0542 541.36 19.9844 541.719 19.8447C542.079 19.7051 542.346 19.5146 542.519 19.2734C542.697 19.028 542.786 18.7614 542.786 18.4736C542.786 18.1816 542.701 17.9277 542.532 17.7119C542.362 17.4919 542.083 17.3078 541.694 17.1597C541.444 17.0623 540.892 16.9121 540.037 16.709C539.182 16.5016 538.583 16.307 538.241 16.125C537.796 15.8923 537.464 15.6045 537.244 15.2617C537.028 14.9147 536.92 14.5275 536.92 14.1001C536.92 13.6304 537.054 13.1924 537.32 12.7861C537.587 12.3757 537.976 12.0646 538.488 11.853C539 11.6414 539.569 11.5356 540.196 11.5356C540.886 11.5356 541.493 11.6478 542.018 11.8721C542.547 12.0921 542.953 12.418 543.236 12.8496C543.52 13.2812 543.672 13.77 543.693 14.3159L542.513 14.4048C542.449 13.8166 542.233 13.3722 541.865 13.0718C541.501 12.7713 540.962 12.6211 540.247 12.6211C539.502 12.6211 538.958 12.7586 538.615 13.0337C538.277 13.3045 538.107 13.6325 538.107 14.0176C538.107 14.3519 538.228 14.627 538.469 14.8428C538.706 15.0586 539.324 15.2808 540.323 15.5093C541.326 15.7336 542.013 15.9303 542.386 16.0996C542.927 16.3493 543.327 16.6667 543.585 17.0518C543.844 17.4326 543.973 17.8727 543.973 18.3721C543.973 18.8672 543.831 19.3348 543.547 19.7749C543.264 20.2108 542.855 20.5514 542.322 20.7969C541.793 21.0381 541.197 21.1587 540.532 21.1587C539.69 21.1587 538.983 21.036 538.412 20.7905C537.845 20.5451 537.399 20.1769 537.073 19.686C536.751 19.1909 536.582 18.6323 536.565 18.0103ZM554.446 19.9019C554.07 20.3208 553.659 20.6361 553.215 20.8477C552.771 21.055 552.29 21.1587 551.774 21.1587C550.822 21.1587 550.066 20.8371 549.508 20.1938C549.055 19.6691 548.829 19.083 548.829 18.4355C548.829 17.86 549.013 17.3416 549.381 16.8804C549.753 16.4149 550.308 16.0065 551.044 15.6553C550.625 15.1729 550.346 14.7814 550.206 14.481C550.066 14.1805 549.997 13.8906 549.997 13.6113C549.997 13.0527 550.215 12.5682 550.65 12.1577C551.09 11.743 551.643 11.5356 552.307 11.5356C552.942 11.5356 553.46 11.7303 553.862 12.1196C554.269 12.509 554.472 12.9766 554.472 13.5225C554.472 14.4069 553.886 15.1623 552.713 15.7886L554.383 17.915C554.573 17.5426 554.721 17.111 554.827 16.6201L556.014 16.874C555.811 17.6865 555.536 18.3551 555.189 18.8799C555.616 19.4469 556.101 19.923 556.643 20.3081L555.875 21.2158C555.413 20.9196 554.937 20.4816 554.446 19.9019ZM552.123 15.0522C552.618 14.7603 552.938 14.5042 553.082 14.2842C553.23 14.0641 553.304 13.8208 553.304 13.5542C553.304 13.2368 553.202 12.9787 552.999 12.7798C552.8 12.5767 552.55 12.4751 552.25 12.4751C551.941 12.4751 551.683 12.5745 551.476 12.7734C551.272 12.9723 551.171 13.2157 551.171 13.5034C551.171 13.6473 551.207 13.7996 551.279 13.9604C551.355 14.117 551.467 14.2842 551.615 14.4619L552.123 15.0522ZM553.729 19.0005L551.634 16.4043C551.016 16.7725 550.6 17.1152 550.384 17.4326C550.168 17.7458 550.06 18.0568 550.06 18.3657C550.06 18.7424 550.21 19.1338 550.511 19.54C550.811 19.9463 551.236 20.1494 551.787 20.1494C552.129 20.1494 552.483 20.0436 552.847 19.832C553.215 19.6162 553.509 19.339 553.729 19.0005ZM561.587 21V11.6943H568.316V12.7925H562.819V15.6426H567.967V16.7344H562.819V19.9019H568.532V21H561.587ZM569.287 21L572.886 16.1504L569.712 11.6943H571.179L572.867 14.0811C573.218 14.5762 573.468 14.957 573.616 15.2236C573.824 14.8851 574.069 14.5317 574.353 14.1636L576.225 11.6943H577.564L574.295 16.0806L577.818 21H576.295L573.953 17.6802C573.821 17.4897 573.686 17.2824 573.546 17.0581C573.339 17.3966 573.191 17.6294 573.102 17.7563L570.766 21H569.287ZM585.543 17.7373L586.775 18.0483C586.517 19.0597 586.051 19.832 585.378 20.3652C584.71 20.8942 583.891 21.1587 582.922 21.1587C581.919 21.1587 581.102 20.9556 580.472 20.5493C579.845 20.1388 579.367 19.5464 579.037 18.772C578.711 17.9976 578.548 17.166 578.548 16.2773C578.548 15.3083 578.732 14.464 579.101 13.7446C579.473 13.021 580 12.473 580.681 12.1006C581.367 11.724 582.12 11.5356 582.941 11.5356C583.872 11.5356 584.655 11.7726 585.29 12.2466C585.924 12.7205 586.367 13.387 586.616 14.2461L585.404 14.5317C585.188 13.8547 584.875 13.3617 584.464 13.0527C584.054 12.7438 583.538 12.5894 582.916 12.5894C582.2 12.5894 581.602 12.7607 581.119 13.1035C580.641 13.4463 580.305 13.9076 580.11 14.4873C579.915 15.0628 579.818 15.6574 579.818 16.271C579.818 17.0623 579.932 17.7542 580.161 18.3467C580.393 18.9349 580.753 19.375 581.24 19.667C581.726 19.959 582.253 20.105 582.82 20.105C583.51 20.105 584.094 19.9061 584.572 19.5083C585.05 19.1105 585.374 18.5202 585.543 17.7373ZM588.336 21V11.6943H589.568V15.5156H594.405V11.6943H595.636V21H594.405V16.6138H589.568V21H588.336ZM596.671 21L600.245 11.6943H601.571L605.38 21H603.977L602.892 18.1816H599L597.979 21H596.671ZM599.356 17.1787H602.511L601.54 14.6016C601.243 13.8187 601.023 13.1755 600.879 12.6719C600.761 13.2686 600.594 13.861 600.378 14.4492L599.356 17.1787ZM606.351 21V11.6943H607.614L612.502 19.0005V11.6943H613.683V21H612.419L607.532 13.6875V21H606.351ZM620.113 17.3501V16.2583L624.055 16.252V19.7051C623.45 20.1875 622.825 20.5514 622.182 20.7969C621.539 21.0381 620.879 21.1587 620.202 21.1587C619.288 21.1587 618.456 20.964 617.707 20.5747C616.962 20.1812 616.399 19.6141 616.019 18.8735C615.638 18.133 615.447 17.3057 615.447 16.3916C615.447 15.486 615.636 14.6418 616.012 13.8589C616.393 13.0718 616.939 12.4878 617.65 12.1069C618.361 11.7261 619.18 11.5356 620.106 11.5356C620.779 11.5356 621.387 11.6457 621.928 11.8657C622.474 12.0815 622.902 12.3841 623.21 12.7734C623.519 13.1628 623.754 13.6706 623.915 14.2969L622.804 14.6016C622.665 14.1276 622.491 13.7552 622.284 13.4844C622.076 13.2135 621.78 12.9977 621.395 12.8369C621.01 12.6719 620.583 12.5894 620.113 12.5894C619.55 12.5894 619.063 12.6761 618.653 12.8496C618.242 13.0189 617.91 13.2432 617.656 13.5225C617.407 13.8018 617.212 14.1086 617.072 14.4429C616.835 15.0184 616.717 15.6426 616.717 16.3154C616.717 17.1449 616.859 17.8389 617.142 18.3975C617.43 18.9561 617.847 19.3708 618.393 19.6416C618.938 19.9124 619.518 20.0479 620.132 20.0479C620.665 20.0479 621.186 19.9463 621.693 19.7432C622.201 19.5358 622.586 19.3158 622.849 19.083V17.3501H620.113ZM625.902 21V11.6943H632.63V12.7925H627.133V15.6426H632.281V16.7344H627.133V19.9019H632.846V21H625.902ZM634.128 18.0103L635.29 17.9087C635.345 18.3742 635.472 18.7572 635.671 19.0576C635.874 19.3538 636.187 19.5951 636.61 19.7812C637.034 19.9632 637.51 20.0542 638.039 20.0542C638.508 20.0542 638.923 19.9844 639.283 19.8447C639.642 19.7051 639.909 19.5146 640.083 19.2734C640.26 19.028 640.349 18.7614 640.349 18.4736C640.349 18.1816 640.264 17.9277 640.095 17.7119C639.926 17.4919 639.647 17.3078 639.257 17.1597C639.008 17.0623 638.455 16.9121 637.601 16.709C636.746 16.5016 636.147 16.307 635.804 16.125C635.36 15.8923 635.028 15.6045 634.808 15.2617C634.592 14.9147 634.484 14.5275 634.484 14.1001C634.484 13.6304 634.617 13.1924 634.884 12.7861C635.15 12.3757 635.54 12.0646 636.052 11.853C636.564 11.6414 637.133 11.5356 637.759 11.5356C638.449 11.5356 639.056 11.6478 639.581 11.8721C640.11 12.0921 640.516 12.418 640.8 12.8496C641.083 13.2812 641.236 13.77 641.257 14.3159L640.076 14.4048C640.013 13.8166 639.797 13.3722 639.429 13.0718C639.065 12.7713 638.525 12.6211 637.81 12.6211C637.065 12.6211 636.521 12.7586 636.179 13.0337C635.84 13.3045 635.671 13.6325 635.671 14.0176C635.671 14.3519 635.792 14.627 636.033 14.8428C636.27 15.0586 636.888 15.2808 637.886 15.5093C638.889 15.7336 639.577 15.9303 639.949 16.0996C640.491 16.3493 640.891 16.6667 641.149 17.0518C641.407 17.4326 641.536 17.8727 641.536 18.3721C641.536 18.8672 641.394 19.3348 641.111 19.7749C640.827 20.2108 640.419 20.5514 639.886 20.7969C639.357 21.0381 638.76 21.1587 638.096 21.1587C637.254 21.1587 636.547 21.036 635.976 20.7905C635.409 20.5451 634.962 20.1769 634.636 19.686C634.315 19.1909 634.145 18.6323 634.128 18.0103Z" fill="white"/>
<rect x="673.75" y="0.25" width="162.5" height="32.5" rx="16.25" fill="white" fill-opacity="0.2"/>
<rect x="673.75" y="0.25" width="162.5" height="32.5" rx="16.25" stroke="#828282" stroke-width="0.5"/>
<path d="M689.454 18.0103L690.616 17.9087C690.671 18.3742 690.798 18.7572 690.997 19.0576C691.2 19.3538 691.513 19.5951 691.936 19.7812C692.359 19.9632 692.835 20.0542 693.364 20.0542C693.834 20.0542 694.249 19.9844 694.608 19.8447C694.968 19.7051 695.235 19.5146 695.408 19.2734C695.586 19.028 695.675 18.7614 695.675 18.4736C695.675 18.1816 695.59 17.9277 695.421 17.7119C695.252 17.4919 694.972 17.3078 694.583 17.1597C694.333 17.0623 693.781 16.9121 692.926 16.709C692.071 16.5016 691.473 16.307 691.13 16.125C690.686 15.8923 690.353 15.6045 690.133 15.2617C689.917 14.9147 689.81 14.5275 689.81 14.1001C689.81 13.6304 689.943 13.1924 690.209 12.7861C690.476 12.3757 690.865 12.0646 691.377 11.853C691.889 11.6414 692.459 11.5356 693.085 11.5356C693.775 11.5356 694.382 11.6478 694.907 11.8721C695.436 12.0921 695.842 12.418 696.125 12.8496C696.409 13.2812 696.561 13.77 696.583 14.3159L695.402 14.4048C695.338 13.8166 695.123 13.3722 694.754 13.0718C694.39 12.7713 693.851 12.6211 693.136 12.6211C692.391 12.6211 691.847 12.7586 691.504 13.0337C691.166 13.3045 690.997 13.6325 690.997 14.0176C690.997 14.3519 691.117 14.627 691.358 14.8428C691.595 15.0586 692.213 15.2808 693.212 15.5093C694.215 15.7336 694.903 15.9303 695.275 16.0996C695.817 16.3493 696.216 16.6667 696.475 17.0518C696.733 17.4326 696.862 17.8727 696.862 18.3721C696.862 18.8672 696.72 19.3348 696.437 19.7749C696.153 20.2108 695.745 20.5514 695.211 20.7969C694.682 21.0381 694.086 21.1587 693.421 21.1587C692.579 21.1587 691.873 21.036 691.301 20.7905C690.734 20.5451 690.288 20.1769 689.962 19.686C689.64 19.1909 689.471 18.6323 689.454 18.0103ZM698.753 21V11.6943H699.985V21H698.753ZM701.419 21V19.8574L706.187 13.897C706.525 13.4738 706.847 13.1056 707.151 12.7925H701.959V11.6943H708.624V12.7925L703.4 19.248L702.835 19.9019H708.776V21H701.419ZM710.319 21V11.6943H711.55V21H710.319ZM713.715 21V11.6943H714.978L719.866 19.0005V11.6943H721.046V21H719.783L714.896 13.6875V21H713.715ZM727.477 17.3501V16.2583L731.418 16.252V19.7051C730.813 20.1875 730.189 20.5514 729.546 20.7969C728.903 21.0381 728.243 21.1587 727.565 21.1587C726.651 21.1587 725.82 20.964 725.071 20.5747C724.326 20.1812 723.763 19.6141 723.382 18.8735C723.001 18.133 722.811 17.3057 722.811 16.3916C722.811 15.486 722.999 14.6418 723.376 13.8589C723.757 13.0718 724.303 12.4878 725.014 12.1069C725.725 11.7261 726.543 11.5356 727.47 11.5356C728.143 11.5356 728.75 11.6457 729.292 11.8657C729.838 12.0815 730.265 12.3841 730.574 12.7734C730.883 13.1628 731.118 13.6706 731.279 14.2969L730.168 14.6016C730.028 14.1276 729.855 13.7552 729.647 13.4844C729.44 13.2135 729.144 12.9977 728.759 12.8369C728.374 12.6719 727.946 12.5894 727.477 12.5894C726.914 12.5894 726.427 12.6761 726.017 12.8496C725.606 13.0189 725.274 13.2432 725.02 13.5225C724.77 13.8018 724.576 14.1086 724.436 14.4429C724.199 15.0184 724.081 15.6426 724.081 16.3154C724.081 17.1449 724.222 17.8389 724.506 18.3975C724.794 18.9561 725.21 19.3708 725.756 19.6416C726.302 19.9124 726.882 20.0479 727.496 20.0479C728.029 20.0479 728.549 19.9463 729.057 19.7432C729.565 19.5358 729.95 19.3158 730.212 19.083V17.3501H727.477ZM742.032 19.9019C741.655 20.3208 741.245 20.6361 740.8 20.8477C740.356 21.055 739.876 21.1587 739.359 21.1587C738.407 21.1587 737.652 20.8371 737.093 20.1938C736.64 19.6691 736.414 19.083 736.414 18.4355C736.414 17.86 736.598 17.3416 736.966 16.8804C737.339 16.4149 737.893 16.0065 738.629 15.6553C738.21 15.1729 737.931 14.7814 737.792 14.481C737.652 14.1805 737.582 13.8906 737.582 13.6113C737.582 13.0527 737.8 12.5682 738.236 12.1577C738.676 11.743 739.228 11.5356 739.893 11.5356C740.527 11.5356 741.046 11.7303 741.448 12.1196C741.854 12.509 742.057 12.9766 742.057 13.5225C742.057 14.4069 741.471 15.1623 740.299 15.7886L741.968 17.915C742.159 17.5426 742.307 17.111 742.413 16.6201L743.6 16.874C743.396 17.6865 743.121 18.3551 742.774 18.8799C743.202 19.4469 743.686 19.923 744.228 20.3081L743.46 21.2158C742.999 20.9196 742.523 20.4816 742.032 19.9019ZM739.708 15.0522C740.204 14.7603 740.523 14.5042 740.667 14.2842C740.815 14.0641 740.889 13.8208 740.889 13.5542C740.889 13.2368 740.788 12.9787 740.584 12.7798C740.386 12.5767 740.136 12.4751 739.835 12.4751C739.527 12.4751 739.268 12.5745 739.061 12.7734C738.858 12.9723 738.756 13.2157 738.756 13.5034C738.756 13.6473 738.792 13.7996 738.864 13.9604C738.94 14.117 739.053 14.2842 739.201 14.4619L739.708 15.0522ZM741.314 19.0005L739.22 16.4043C738.602 16.7725 738.185 17.1152 737.969 17.4326C737.753 17.7458 737.646 18.0568 737.646 18.3657C737.646 18.7424 737.796 19.1338 738.096 19.54C738.397 19.9463 738.822 20.1494 739.372 20.1494C739.715 20.1494 740.068 20.0436 740.432 19.832C740.8 19.6162 741.094 19.339 741.314 19.0005ZM749.147 21V11.6943H752.658C753.276 11.6943 753.747 11.724 754.073 11.7832C754.53 11.8594 754.913 12.0054 755.222 12.2212C755.531 12.4328 755.779 12.7311 755.965 13.1162C756.155 13.5013 756.25 13.9245 756.25 14.3857C756.25 15.1771 755.999 15.8478 755.495 16.3979C754.992 16.9438 754.082 17.2168 752.766 17.2168H750.379V21H749.147ZM750.379 16.1187H752.785C753.58 16.1187 754.145 15.9705 754.479 15.6743C754.814 15.3781 754.981 14.9613 754.981 14.4238C754.981 14.0345 754.882 13.7023 754.683 13.4272C754.488 13.1479 754.23 12.9639 753.908 12.875C753.701 12.82 753.318 12.7925 752.759 12.7925H750.379V16.1187ZM757.837 21V11.6943H761.963C762.793 11.6943 763.423 11.779 763.855 11.9482C764.287 12.1133 764.632 12.4074 764.89 12.8306C765.148 13.2537 765.277 13.7214 765.277 14.2334C765.277 14.8936 765.063 15.45 764.636 15.9028C764.208 16.3556 763.548 16.6434 762.655 16.7661C762.981 16.9227 763.229 17.0771 763.398 17.2295C763.758 17.5596 764.098 17.9722 764.42 18.4673L766.039 21H764.49L763.258 19.064C762.899 18.5054 762.602 18.078 762.37 17.7817C762.137 17.4855 761.927 17.2782 761.741 17.1597C761.559 17.0412 761.373 16.9587 761.183 16.9121C761.043 16.8825 760.814 16.8677 760.497 16.8677H759.069V21H757.837ZM759.069 15.8013H761.716C762.279 15.8013 762.719 15.7441 763.036 15.6299C763.354 15.5114 763.595 15.3252 763.76 15.0713C763.925 14.8132 764.007 14.5339 764.007 14.2334C764.007 13.7933 763.847 13.4315 763.525 13.1479C763.208 12.8644 762.704 12.7227 762.014 12.7227H759.069V15.8013ZM766.838 16.4678C766.838 14.9232 767.253 13.715 768.083 12.8433C768.912 11.9673 769.983 11.5293 771.294 11.5293C772.153 11.5293 772.928 11.7345 773.618 12.145C774.307 12.5555 774.832 13.1289 775.192 13.8652C775.556 14.5973 775.738 15.4289 775.738 16.3599C775.738 17.3035 775.547 18.1478 775.167 18.8926C774.786 19.6374 774.246 20.2023 773.548 20.5874C772.85 20.9683 772.096 21.1587 771.288 21.1587C770.412 21.1587 769.629 20.9471 768.939 20.5239C768.25 20.1007 767.727 19.5231 767.372 18.791C767.016 18.0589 766.838 17.2845 766.838 16.4678ZM768.108 16.4868C768.108 17.6082 768.408 18.4927 769.009 19.1401C769.614 19.7834 770.372 20.105 771.282 20.105C772.208 20.105 772.97 19.7791 773.567 19.1274C774.168 18.4757 774.468 17.5511 774.468 16.3535C774.468 15.596 774.339 14.9359 774.081 14.373C773.827 13.806 773.453 13.368 772.958 13.0591C772.467 12.7459 771.914 12.5894 771.301 12.5894C770.429 12.5894 769.678 12.8898 769.047 13.4907C768.421 14.0874 768.108 15.0861 768.108 16.4868ZM777.331 21V11.6943H780.537C781.26 11.6943 781.812 11.7388 782.193 11.8276C782.727 11.9504 783.181 12.1725 783.558 12.4941C784.049 12.9089 784.415 13.4399 784.656 14.0874C784.902 14.7306 785.024 15.467 785.024 16.2964C785.024 17.0031 784.942 17.6294 784.777 18.1753C784.612 18.7212 784.4 19.174 784.142 19.5337C783.884 19.8892 783.6 20.1706 783.292 20.3779C782.987 20.5811 782.617 20.7355 782.181 20.8413C781.749 20.9471 781.252 21 780.689 21H777.331ZM778.562 19.9019H780.549C781.163 19.9019 781.643 19.8447 781.99 19.7305C782.341 19.6162 782.621 19.4554 782.828 19.248C783.12 18.9561 783.347 18.5646 783.507 18.0737C783.672 17.5786 783.755 16.9798 783.755 16.2773C783.755 15.304 783.594 14.5571 783.272 14.0366C782.955 13.5119 782.568 13.1606 782.111 12.9829C781.781 12.856 781.25 12.7925 780.518 12.7925H778.562V19.9019ZM792.832 11.6943H794.063V17.0708C794.063 18.006 793.958 18.7487 793.746 19.2988C793.535 19.849 793.152 20.2975 792.597 20.6445C792.047 20.9873 791.323 21.1587 790.426 21.1587C789.555 21.1587 788.841 21.0085 788.287 20.708C787.733 20.4076 787.337 19.9738 787.1 19.4067C786.863 18.8354 786.745 18.0568 786.745 17.0708V11.6943H787.976V17.0645C787.976 17.8727 788.05 18.4694 788.198 18.8545C788.351 19.2354 788.609 19.5295 788.973 19.7368C789.341 19.9442 789.789 20.0479 790.318 20.0479C791.224 20.0479 791.869 19.8426 792.254 19.4321C792.639 19.0216 792.832 18.2324 792.832 17.0645V11.6943ZM802.76 17.7373L803.991 18.0483C803.733 19.0597 803.268 19.832 802.595 20.3652C801.926 20.8942 801.107 21.1587 800.138 21.1587C799.135 21.1587 798.319 20.9556 797.688 20.5493C797.062 20.1388 796.583 19.5464 796.253 18.772C795.928 17.9976 795.765 17.166 795.765 16.2773C795.765 15.3083 795.949 14.464 796.317 13.7446C796.689 13.021 797.216 12.473 797.897 12.1006C798.583 11.724 799.336 11.5356 800.157 11.5356C801.088 11.5356 801.871 11.7726 802.506 12.2466C803.141 12.7205 803.583 13.387 803.833 14.2461L802.62 14.5317C802.404 13.8547 802.091 13.3617 801.681 13.0527C801.27 12.7438 800.754 12.5894 800.132 12.5894C799.417 12.5894 798.818 12.7607 798.335 13.1035C797.857 13.4463 797.521 13.9076 797.326 14.4873C797.132 15.0628 797.034 15.6574 797.034 16.271C797.034 17.0623 797.148 17.7542 797.377 18.3467C797.61 18.9349 797.969 19.375 798.456 19.667C798.943 19.959 799.47 20.105 800.037 20.105C800.726 20.105 801.31 19.9061 801.789 19.5083C802.267 19.1105 802.59 18.5202 802.76 17.7373ZM807.882 21V12.7925H804.816V11.6943H812.192V12.7925H809.114V21H807.882ZM813.043 18.0103L814.205 17.9087C814.26 18.3742 814.387 18.7572 814.585 19.0576C814.789 19.3538 815.102 19.5951 815.525 19.7812C815.948 19.9632 816.424 20.0542 816.953 20.0542C817.423 20.0542 817.838 19.9844 818.197 19.8447C818.557 19.7051 818.824 19.5146 818.997 19.2734C819.175 19.028 819.264 18.7614 819.264 18.4736C819.264 18.1816 819.179 17.9277 819.01 17.7119C818.84 17.4919 818.561 17.3078 818.172 17.1597C817.922 17.0623 817.37 16.9121 816.515 16.709C815.66 16.5016 815.062 16.307 814.719 16.125C814.274 15.8923 813.942 15.6045 813.722 15.2617C813.506 14.9147 813.398 14.5275 813.398 14.1001C813.398 13.6304 813.532 13.1924 813.798 12.7861C814.065 12.3757 814.454 12.0646 814.966 11.853C815.478 11.6414 816.048 11.5356 816.674 11.5356C817.364 11.5356 817.971 11.6478 818.496 11.8721C819.025 12.0921 819.431 12.418 819.714 12.8496C819.998 13.2812 820.15 13.77 820.171 14.3159L818.991 14.4048C818.927 13.8166 818.711 13.3722 818.343 13.0718C817.979 12.7713 817.44 12.6211 816.725 12.6211C815.98 12.6211 815.436 12.7586 815.093 13.0337C814.755 13.3045 814.585 13.6325 814.585 14.0176C814.585 14.3519 814.706 14.627 814.947 14.8428C815.184 15.0586 815.802 15.2808 816.801 15.5093C817.804 15.7336 818.491 15.9303 818.864 16.0996C819.405 16.3493 819.805 16.6667 820.063 17.0518C820.322 17.4326 820.451 17.8727 820.451 18.3721C820.451 18.8672 820.309 19.3348 820.025 19.7749C819.742 20.2108 819.333 20.5514 818.8 20.7969C818.271 21.0381 817.675 21.1587 817.01 21.1587C816.168 21.1587 815.461 21.036 814.89 20.7905C814.323 20.5451 813.877 20.1769 813.551 19.686C813.229 19.1909 813.06 18.6323 813.043 18.0103Z" fill="white"/>
</svg>
