<svg width="17" height="17" viewBox="0 0 17 17" fill="none" xmlns="http://www.w3.org/2000/svg">
<path d="M11.3333 7.08333V4.25C11.3333 3.49855 11.0348 2.77788 10.5035 2.24653C9.97212 1.71518 9.25145 1.41667 8.5 1.41667C7.74855 1.41667 7.02788 1.71518 6.49653 2.24653C5.96518 2.77788 5.66667 3.49855 5.66667 4.25V7.08333M2.125 4.95833V12.75C2.125 13.5014 2.42351 14.2221 2.95486 14.7535C3.48622 15.2848 4.20689 15.5833 4.95833 15.5833H12.0417C12.7931 15.5833 13.5138 15.2848 14.0451 14.7535C14.5765 14.2221 14.875 13.5014 14.875 12.75V4.95833H2.125Z" stroke="black" stroke-width="1.5" stroke-linecap="round" stroke-linejoin="round"/>
</svg>
