<svg width="79" height="66" viewBox="0 0 79 66" fill="none" xmlns="http://www.w3.org/2000/svg">
<g opacity="0.5">
<path d="M4.62784 4.56108V3.54545H11.7188V4.56108H8.74574V13H7.60085V4.56108H4.62784ZM13.4857 13V3.54545H14.6306V7.75568H19.6718V3.54545H20.8167V13H19.6718V8.77131H14.6306V13H13.4857ZM30.6798 7.76491V8.78054H26.5434V7.76491H30.6798ZM35.8837 4.56108V3.54545H42.9746V4.56108H40.0016V13H38.8567V4.56108H35.8837ZM44.7416 13V3.54545H45.8865V7.75568H50.9276V3.54545H52.0725V13H50.9276V8.77131H45.8865V13H44.7416ZM54.3646 13V3.54545H57.67C58.3286 3.54545 58.8718 3.65933 59.2996 3.88707C59.7274 4.11174 60.046 4.41489 60.2552 4.79652C60.4645 5.17507 60.5692 5.59517 60.5692 6.05682C60.5692 6.46307 60.4968 6.79853 60.3522 7.06321C60.2106 7.32789 60.0229 7.53717 59.789 7.69105C59.5582 7.84493 59.3073 7.95881 59.0365 8.03267V8.125C59.3258 8.14347 59.6166 8.24503 59.909 8.42969C60.2014 8.61435 60.4461 8.87902 60.643 9.22372C60.84 9.56842 60.9385 9.99006 60.9385 10.4886C60.9385 10.9626 60.8308 11.3888 60.6153 11.7674C60.3999 12.146 60.0598 12.446 59.5951 12.6676C59.1304 12.8892 58.5256 13 57.7808 13H54.3646ZM55.5095 11.9844H57.7808C58.5287 11.9844 59.0596 11.8397 59.3735 11.5504C59.6905 11.258 59.849 10.9041 59.849 10.4886C59.849 10.1686 59.7674 9.87311 59.6043 9.60227C59.4412 9.32836 59.2088 9.10985 58.9072 8.94673C58.6056 8.78054 58.2486 8.69744 57.8362 8.69744H55.5095V11.9844ZM55.5095 7.70028H57.6331C57.9778 7.70028 58.2886 7.63258 58.5656 7.49716C58.8457 7.36174 59.0673 7.17093 59.2304 6.92472C59.3966 6.6785 59.4797 6.3892 59.4797 6.05682C59.4797 5.64134 59.335 5.28894 59.0457 4.99964C58.7564 4.70727 58.2979 4.56108 57.67 4.56108H55.5095V7.70028Z" fill="black"/>
<path d="M71.5 10.5L68.4689 6.75H74.5311L71.5 10.5Z" fill="black"/>
</g>
<rect width="79" height="36" transform="translate(0 29)" fill="white"/>
<path d="M17.3494 42.5455H18.4943V48.8054C18.4943 49.4517 18.342 50.0288 18.0373 50.5366C17.7357 51.0413 17.3094 51.4399 16.7585 51.7322C16.2076 52.0215 15.5613 52.1662 14.8196 52.1662C14.0779 52.1662 13.4316 52.0215 12.8807 51.7322C12.3298 51.4399 11.902 51.0413 11.5973 50.5366C11.2957 50.0288 11.1449 49.4517 11.1449 48.8054V42.5455H12.2898V48.7131C12.2898 49.1747 12.3913 49.5856 12.5945 49.9457C12.7976 50.3027 13.0869 50.5843 13.4624 50.7905C13.8409 50.9936 14.2933 51.0952 14.8196 51.0952C15.3459 51.0952 15.7983 50.9936 16.1768 50.7905C16.5554 50.5843 16.8447 50.3027 17.0447 49.9457C17.2479 49.5856 17.3494 49.1747 17.3494 48.7131V42.5455ZM25.9511 44.9091C25.8957 44.4413 25.671 44.0781 25.2771 43.8196C24.8831 43.5611 24.3999 43.4318 23.8275 43.4318C23.4089 43.4318 23.0427 43.4995 22.7288 43.6349C22.4179 43.7704 22.1748 43.9566 21.9994 44.1935C21.827 44.4305 21.7409 44.6998 21.7409 45.0014C21.7409 45.2538 21.8009 45.4708 21.9209 45.6523C22.044 45.8308 22.201 45.9801 22.3918 46.1001C22.5826 46.2171 22.7826 46.314 22.9919 46.391C23.2012 46.4648 23.3936 46.5249 23.569 46.571L24.5292 46.8295C24.7754 46.8942 25.0493 46.9834 25.3509 47.0973C25.6556 47.2112 25.9465 47.3666 26.2235 47.5636C26.5035 47.7575 26.7343 48.0067 26.9159 48.3114C27.0975 48.6161 27.1883 48.9901 27.1883 49.4332C27.1883 49.9441 27.0544 50.4058 26.7867 50.8182C26.522 51.2306 26.1342 51.5584 25.6233 51.8015C25.1155 52.0446 24.4984 52.1662 23.7721 52.1662C23.095 52.1662 22.5087 52.0569 22.0132 51.8384C21.5208 51.6199 21.133 51.3152 20.8499 50.9244C20.5698 50.5335 20.4113 50.0795 20.3744 49.5625H21.5562C21.587 49.9195 21.707 50.215 21.9163 50.4489C22.1286 50.6797 22.3964 50.852 22.7195 50.9659C23.0458 51.0767 23.3966 51.1321 23.7721 51.1321C24.2091 51.1321 24.6015 51.0613 24.9493 50.9197C25.2971 50.7751 25.5725 50.575 25.7757 50.3196C25.9788 50.0611 26.0803 49.7595 26.0803 49.4148C26.0803 49.1009 25.9926 48.8454 25.8172 48.6484C25.6418 48.4515 25.411 48.2914 25.1247 48.1683C24.8385 48.0452 24.5292 47.9375 24.1968 47.8452L23.0335 47.5128C22.2948 47.3004 21.7101 46.9973 21.2792 46.6033C20.8483 46.2094 20.6329 45.6939 20.6329 45.0568C20.6329 44.5275 20.776 44.0658 21.0622 43.6719C21.3515 43.2749 21.7393 42.9671 22.2256 42.7486C22.7149 42.527 23.2612 42.4162 23.8644 42.4162C24.4738 42.4162 25.0155 42.5254 25.4894 42.744C25.9634 42.9594 26.3389 43.2549 26.6159 43.6303C26.8959 44.0058 27.0436 44.4321 27.059 44.9091H25.9511ZM36.6417 46.7649V47.7805H32.5053V46.7649H36.6417ZM48.5672 42.5455H49.7121V48.8054C49.7121 49.4517 49.5597 50.0288 49.2551 50.5366C48.9535 51.0413 48.5272 51.4399 47.9763 51.7322C47.4254 52.0215 46.7791 52.1662 46.0374 52.1662C45.2957 52.1662 44.6494 52.0215 44.0985 51.7322C43.5476 51.4399 43.1198 51.0413 42.8151 50.5366C42.5135 50.0288 42.3627 49.4517 42.3627 48.8054V42.5455H43.5075V48.7131C43.5075 49.1747 43.6091 49.5856 43.8122 49.9457C44.0154 50.3027 44.3047 50.5843 44.6801 50.7905C45.0587 50.9936 45.5111 51.0952 46.0374 51.0952C46.5637 51.0952 47.0161 50.9936 47.3946 50.7905C47.7732 50.5843 48.0625 50.3027 48.2625 49.9457C48.4656 49.5856 48.5672 49.1747 48.5672 48.7131V42.5455ZM57.1689 44.9091C57.1135 44.4413 56.8888 44.0781 56.4949 43.8196C56.1009 43.5611 55.6177 43.4318 55.0453 43.4318C54.6267 43.4318 54.2605 43.4995 53.9466 43.6349C53.6357 43.7704 53.3926 43.9566 53.2172 44.1935C53.0448 44.4305 52.9586 44.6998 52.9586 45.0014C52.9586 45.2538 53.0186 45.4708 53.1387 45.6523C53.2618 45.8308 53.4187 45.9801 53.6096 46.1001C53.8004 46.2171 54.0004 46.314 54.2097 46.391C54.419 46.4648 54.6113 46.5249 54.7868 46.571L55.747 46.8295C55.9932 46.8942 56.2671 46.9834 56.5687 47.0973C56.8734 47.2112 57.1642 47.3666 57.4412 47.5636C57.7213 47.7575 57.9521 48.0067 58.1337 48.3114C58.3153 48.6161 58.4061 48.9901 58.4061 49.4332C58.4061 49.9441 58.2722 50.4058 58.0044 50.8182C57.7398 51.2306 57.352 51.5584 56.8411 51.8015C56.3333 52.0446 55.7162 52.1662 54.9899 52.1662C54.3128 52.1662 53.7265 52.0569 53.231 51.8384C52.7386 51.6199 52.3508 51.3152 52.0676 50.9244C51.7876 50.5335 51.6291 50.0795 51.5922 49.5625H52.774C52.8047 49.9195 52.9248 50.215 53.1341 50.4489C53.3464 50.6797 53.6142 50.852 53.9373 50.9659C54.2636 51.0767 54.6144 51.1321 54.9899 51.1321C55.4269 51.1321 55.8193 51.0613 56.1671 50.9197C56.5149 50.7751 56.7903 50.575 56.9934 50.3196C57.1966 50.0611 57.2981 49.7595 57.2981 49.4148C57.2981 49.1009 57.2104 48.8454 57.035 48.6484C56.8596 48.4515 56.6287 48.2914 56.3425 48.1683C56.0563 48.0452 55.747 47.9375 55.4146 47.8452L54.2512 47.5128C53.5126 47.3004 52.9279 46.9973 52.497 46.6033C52.0661 46.2094 51.8507 45.6939 51.8507 45.0568C51.8507 44.5275 51.9938 44.0658 52.28 43.6719C52.5693 43.2749 52.9571 42.9671 53.4434 42.7486C53.9327 42.527 54.479 42.4162 55.0822 42.4162C55.6916 42.4162 56.2333 42.5254 56.7072 42.744C57.1812 42.9594 57.5566 43.2549 57.8336 43.6303C58.1137 44.0058 58.2614 44.4321 58.2768 44.9091H57.1689ZM63.2061 52H60.2884V42.5455H63.3353C64.2525 42.5455 65.0373 42.7347 65.6897 43.1133C66.3422 43.4888 66.8423 44.0289 67.1901 44.7337C67.5378 45.4354 67.7117 46.2756 67.7117 47.2543C67.7117 48.2391 67.5363 49.087 67.1855 49.7979C66.8346 50.5058 66.3237 51.0505 65.6528 51.4322C64.9819 51.8107 64.1663 52 63.2061 52ZM61.4333 50.9844H63.1322C63.9139 50.9844 64.5618 50.8336 65.0757 50.532C65.5897 50.2304 65.9729 49.801 66.2252 49.244C66.4776 48.6869 66.6038 48.0237 66.6038 47.2543C66.6038 46.491 66.4791 45.8339 66.2298 45.283C65.9806 44.729 65.6082 44.3043 65.1127 44.0089C64.6172 43.7103 64.0001 43.5611 63.2615 43.5611H61.4333V50.9844Z" fill="black"/>
</svg>
