<svg width="1440" height="810" viewBox="0 0 1440 810" fill="none" xmlns="http://www.w3.org/2000/svg">
<rect width="1440" height="810" fill="black"/>
<path d="M701.31 28.5V15.6152H710.863V17.7949H703.911V20.6514H710.38V22.8223H703.911V26.3291H711.109V28.5H701.31ZM713.307 15.6152H718.062C719.134 15.6152 719.951 15.6973 720.514 15.8613C721.27 16.084 721.917 16.4795 722.456 17.0479C722.995 17.6162 723.405 18.3135 723.687 19.1396C723.968 19.96 724.108 20.9736 724.108 22.1807C724.108 23.2412 723.977 24.1553 723.713 24.9229C723.391 25.8604 722.931 26.6191 722.333 27.1992C721.882 27.6387 721.272 27.9814 720.505 28.2275C719.931 28.4092 719.163 28.5 718.202 28.5H713.307V15.6152ZM715.908 17.7949V26.3291H717.851C718.577 26.3291 719.102 26.2881 719.424 26.2061C719.846 26.1006 720.194 25.9219 720.47 25.6699C720.751 25.418 720.979 25.0049 721.155 24.4307C721.331 23.8506 721.419 23.0625 721.419 22.0664C721.419 21.0703 721.331 20.3057 721.155 19.7725C720.979 19.2393 720.733 18.8232 720.417 18.5244C720.101 18.2256 719.699 18.0234 719.213 17.918C718.85 17.8359 718.138 17.7949 717.077 17.7949H715.908ZM726.244 28.5V15.6152H728.846V28.5H726.244ZM734.233 28.5V17.7949H730.41V15.6152H740.649V17.7949H736.835V28.5H734.233ZM741.476 22.1367C741.476 20.8242 741.672 19.7227 742.064 18.832C742.357 18.1758 742.756 17.5869 743.26 17.0654C743.77 16.5439 744.326 16.1572 744.93 15.9053C745.732 15.5654 746.658 15.3955 747.707 15.3955C749.605 15.3955 751.123 15.9844 752.26 17.1621C753.402 18.3398 753.974 19.9775 753.974 22.0752C753.974 24.1553 753.408 25.7842 752.277 26.9619C751.146 28.1338 749.635 28.7197 747.742 28.7197C745.826 28.7197 744.303 28.1367 743.172 26.9707C742.041 25.7988 741.476 24.1875 741.476 22.1367ZM744.156 22.0488C744.156 23.5078 744.493 24.6152 745.167 25.3711C745.841 26.1211 746.696 26.4961 747.733 26.4961C748.771 26.4961 749.62 26.124 750.282 25.3799C750.95 24.6299 751.284 23.5078 751.284 22.0137C751.284 20.5371 750.959 19.4355 750.309 18.709C749.664 17.9824 748.806 17.6191 747.733 17.6191C746.661 17.6191 745.797 17.9883 745.141 18.7266C744.484 19.459 744.156 20.5664 744.156 22.0488ZM756.021 28.5V15.6152H761.497C762.874 15.6152 763.873 15.7324 764.494 15.9668C765.121 16.1953 765.622 16.6055 765.997 17.1973C766.372 17.7891 766.56 18.4658 766.56 19.2275C766.56 20.1943 766.275 20.9941 765.707 21.627C765.139 22.2539 764.289 22.6494 763.158 22.8135C763.721 23.1416 764.184 23.502 764.547 23.8945C764.916 24.2871 765.411 24.9844 766.032 25.9863L767.605 28.5H764.494L762.613 25.6963C761.945 24.6943 761.488 24.0645 761.242 23.8066C760.996 23.543 760.735 23.3643 760.46 23.2705C760.185 23.1709 759.748 23.1211 759.15 23.1211H758.623V28.5H756.021ZM758.623 21.0645H760.548C761.796 21.0645 762.575 21.0117 762.886 20.9062C763.196 20.8008 763.439 20.6191 763.615 20.3613C763.791 20.1035 763.879 19.7812 763.879 19.3945C763.879 18.9609 763.762 18.6123 763.527 18.3486C763.299 18.0791 762.974 17.9092 762.552 17.8389C762.341 17.8096 761.708 17.7949 760.653 17.7949H758.623V21.0645ZM768.941 28.5V15.6152H771.543V28.5H768.941ZM785.649 28.5H782.819L781.694 25.5732H776.544L775.48 28.5H772.721L777.739 15.6152H780.49L785.649 28.5ZM780.859 23.4023L779.084 18.6211L777.344 23.4023H780.859ZM787.108 28.5V15.7207H789.71V26.3291H796.179V28.5H787.108Z" fill="white"/>
<path d="M699.981 65.5L703.555 56.1943H704.881L708.69 65.5H707.287L706.202 62.6816H702.311L701.289 65.5H699.981ZM702.666 61.6787H705.821L704.85 59.1016C704.553 58.3187 704.333 57.6755 704.189 57.1719C704.071 57.7686 703.904 58.361 703.688 58.9492L702.666 61.6787ZM709.852 65.5V64.1987H711.153V65.5H709.852ZM712.873 62.5103L714.035 62.4087C714.09 62.8742 714.217 63.2572 714.416 63.5576C714.619 63.8538 714.932 64.0951 715.355 64.2812C715.778 64.4632 716.254 64.5542 716.783 64.5542C717.253 64.5542 717.668 64.4844 718.027 64.3447C718.387 64.2051 718.654 64.0146 718.827 63.7734C719.005 63.528 719.094 63.2614 719.094 62.9736C719.094 62.6816 719.009 62.4277 718.84 62.2119C718.671 61.9919 718.391 61.8078 718.002 61.6597C717.752 61.5623 717.2 61.4121 716.345 61.209C715.49 61.0016 714.892 60.807 714.549 60.625C714.104 60.3923 713.772 60.1045 713.552 59.7617C713.336 59.4147 713.229 59.0275 713.229 58.6001C713.229 58.1304 713.362 57.6924 713.628 57.2861C713.895 56.8757 714.284 56.5646 714.796 56.353C715.308 56.1414 715.878 56.0356 716.504 56.0356C717.194 56.0356 717.801 56.1478 718.326 56.3721C718.855 56.5921 719.261 56.918 719.544 57.3496C719.828 57.7812 719.98 58.27 720.001 58.8159L718.821 58.9048C718.757 58.3166 718.542 57.8722 718.173 57.5718C717.809 57.2713 717.27 57.1211 716.555 57.1211C715.81 57.1211 715.266 57.2586 714.923 57.5337C714.585 57.8045 714.416 58.1325 714.416 58.5176C714.416 58.8519 714.536 59.127 714.777 59.3428C715.014 59.5586 715.632 59.7808 716.631 60.0093C717.634 60.2336 718.321 60.4303 718.694 60.5996C719.236 60.8493 719.635 61.1667 719.894 61.5518C720.152 61.9326 720.281 62.3727 720.281 62.8721C720.281 63.3672 720.139 63.8348 719.855 64.2749C719.572 64.7108 719.164 65.0514 718.63 65.2969C718.101 65.5381 717.505 65.6587 716.84 65.6587C715.998 65.6587 715.292 65.536 714.72 65.2905C714.153 65.0451 713.707 64.6769 713.381 64.186C713.059 63.6909 712.89 63.1323 712.873 62.5103ZM722.141 65.5V64.1987H723.442V65.5H722.141ZM732.221 62.2373L733.452 62.5483C733.194 63.5597 732.729 64.332 732.056 64.8652C731.387 65.3942 730.568 65.6587 729.599 65.6587C728.596 65.6587 727.779 65.4556 727.149 65.0493C726.523 64.6388 726.044 64.0464 725.714 63.272C725.389 62.4976 725.226 61.666 725.226 60.7773C725.226 59.8083 725.41 58.964 725.778 58.2446C726.15 57.521 726.677 56.973 727.358 56.6006C728.044 56.224 728.797 56.0356 729.618 56.0356C730.549 56.0356 731.332 56.2726 731.967 56.7466C732.602 57.2205 733.044 57.887 733.293 58.7461L732.081 59.0317C731.865 58.3547 731.552 57.8617 731.142 57.5527C730.731 57.2438 730.215 57.0894 729.593 57.0894C728.878 57.0894 728.279 57.2607 727.796 57.6035C727.318 57.9463 726.982 58.4076 726.787 58.9873C726.592 59.5628 726.495 60.1574 726.495 60.771C726.495 61.5623 726.609 62.2542 726.838 62.8467C727.071 63.4349 727.43 63.875 727.917 64.167C728.404 64.459 728.931 64.605 729.498 64.605C730.187 64.605 730.771 64.4061 731.25 64.0083C731.728 63.6105 732.051 63.0202 732.221 62.2373Z" fill="white"/>
<path d="M700.952 95.5V86.1943H704.443C705.154 86.1943 705.723 86.2896 706.151 86.48C706.583 86.6662 706.919 86.9561 707.16 87.3496C707.406 87.7389 707.528 88.1473 707.528 88.5747C707.528 88.9725 707.42 89.347 707.205 89.6982C706.989 90.0495 706.663 90.333 706.227 90.5488C706.79 90.7139 707.222 90.9953 707.522 91.3931C707.827 91.7909 707.979 92.2606 707.979 92.8022C707.979 93.2381 707.886 93.6444 707.7 94.021C707.518 94.3934 707.291 94.6812 707.021 94.8843C706.75 95.0874 706.409 95.2419 705.999 95.3477C705.592 95.4492 705.093 95.5 704.5 95.5H700.952ZM702.184 90.1045H704.196C704.742 90.1045 705.133 90.0685 705.37 89.9966C705.683 89.9035 705.918 89.749 706.075 89.5332C706.236 89.3174 706.316 89.0465 706.316 88.7207C706.316 88.4118 706.242 88.141 706.094 87.9082C705.946 87.6712 705.734 87.5104 705.459 87.4258C705.184 87.3369 704.712 87.2925 704.043 87.2925H702.184V90.1045ZM702.184 94.4019H704.5C704.898 94.4019 705.178 94.387 705.338 94.3574C705.622 94.3066 705.859 94.222 706.049 94.1035C706.24 93.985 706.396 93.8136 706.519 93.5894C706.642 93.3608 706.703 93.0985 706.703 92.8022C706.703 92.4552 706.614 92.1548 706.437 91.9009C706.259 91.6427 706.011 91.4629 705.694 91.3613C705.381 91.2555 704.928 91.2026 704.335 91.2026H702.184V94.4019ZM708.652 95.5L712.226 86.1943H713.552L717.361 95.5H715.958L714.873 92.6816H710.981L709.959 95.5H708.652ZM711.337 91.6787H714.492L713.521 89.1016C713.224 88.3187 713.004 87.6755 712.86 87.1719C712.742 87.7686 712.575 88.361 712.359 88.9492L711.337 91.6787ZM717.602 95.5V94.3574L722.369 88.397C722.708 87.9738 723.029 87.6056 723.334 87.2925H718.142V86.1943H724.807V87.2925L719.583 93.748L719.018 94.4019H724.959V95.5H717.602ZM725.27 95.5L728.844 86.1943H730.17L733.979 95.5H732.576L731.491 92.6816H727.6L726.578 95.5H725.27ZM727.955 91.6787H731.11L730.139 89.1016C729.842 88.3187 729.622 87.6755 729.479 87.1719C729.36 87.7686 729.193 88.361 728.977 88.9492L727.955 91.6787ZM733.941 95.5L737.515 86.1943H738.841L742.65 95.5H741.247L740.162 92.6816H736.271L735.249 95.5H733.941ZM736.626 91.6787H739.781L738.81 89.1016C738.513 88.3187 738.293 87.6755 738.149 87.1719C738.031 87.7686 737.864 88.361 737.648 88.9492L736.626 91.6787ZM743.653 95.5V86.1943H747.779C748.608 86.1943 749.239 86.279 749.67 86.4482C750.102 86.6133 750.447 86.9074 750.705 87.3306C750.963 87.7537 751.092 88.2214 751.092 88.7334C751.092 89.3936 750.879 89.95 750.451 90.4028C750.024 90.8556 749.364 91.1434 748.471 91.2661C748.797 91.4227 749.044 91.5771 749.213 91.7295C749.573 92.0596 749.914 92.4722 750.235 92.9673L751.854 95.5H750.305L749.074 93.564C748.714 93.0054 748.418 92.578 748.185 92.2817C747.952 91.9855 747.743 91.7782 747.557 91.6597C747.375 91.5412 747.188 91.4587 746.998 91.4121C746.858 91.3825 746.63 91.3677 746.312 91.3677H744.884V95.5H743.653ZM744.884 90.3013H747.531C748.094 90.3013 748.534 90.2441 748.852 90.1299C749.169 90.0114 749.41 89.8252 749.575 89.5713C749.74 89.3132 749.823 89.0339 749.823 88.7334C749.823 88.2933 749.662 87.9315 749.34 87.6479C749.023 87.3644 748.519 87.2227 747.83 87.2227H744.884V90.3013Z" fill="white"/>
<path d="M701.028 125.5V116.194H707.757V117.292H702.26V120.143H707.408V121.234H702.26V124.402H707.973V125.5H701.028ZM709.623 125.5V116.194H710.854V124.402H715.438V125.5H709.623ZM716.859 125.5V116.194H718.091V124.402H722.674V125.5H716.859ZM724.172 125.5V116.194H730.9V117.292H725.403V120.143H730.551V121.234H725.403V124.402H731.116V125.5H724.172Z" fill="white"/>
<path d="M705.357 151.85V150.758L709.299 150.752V154.205C708.694 154.688 708.07 155.051 707.427 155.297C706.784 155.538 706.123 155.659 705.446 155.659C704.532 155.659 703.701 155.464 702.952 155.075C702.207 154.681 701.644 154.114 701.263 153.374C700.882 152.633 700.692 151.806 700.692 150.892C700.692 149.986 700.88 149.142 701.257 148.359C701.638 147.572 702.184 146.988 702.895 146.607C703.605 146.226 704.424 146.036 705.351 146.036C706.024 146.036 706.631 146.146 707.173 146.366C707.719 146.582 708.146 146.884 708.455 147.273C708.764 147.663 708.999 148.171 709.16 148.797L708.049 149.102C707.909 148.628 707.736 148.255 707.528 147.984C707.321 147.714 707.025 147.498 706.64 147.337C706.255 147.172 705.827 147.089 705.357 147.089C704.795 147.089 704.308 147.176 703.897 147.35C703.487 147.519 703.155 147.743 702.901 148.022C702.651 148.302 702.457 148.609 702.317 148.943C702.08 149.518 701.961 150.143 701.961 150.815C701.961 151.645 702.103 152.339 702.387 152.897C702.674 153.456 703.091 153.871 703.637 154.142C704.183 154.412 704.763 154.548 705.376 154.548C705.91 154.548 706.43 154.446 706.938 154.243C707.446 154.036 707.831 153.816 708.093 153.583V151.85H705.357ZM718.173 154.503C718.745 154.897 719.271 155.185 719.754 155.367L719.392 156.224C718.723 155.982 718.057 155.602 717.393 155.081C716.703 155.466 715.941 155.659 715.107 155.659C714.265 155.659 713.501 155.456 712.816 155.049C712.13 154.643 711.601 154.072 711.229 153.335C710.861 152.599 710.677 151.77 710.677 150.847C710.677 149.929 710.863 149.093 711.235 148.34C711.608 147.587 712.137 147.013 712.822 146.62C713.512 146.226 714.282 146.029 715.133 146.029C715.992 146.029 716.766 146.235 717.456 146.645C718.146 147.051 718.671 147.623 719.03 148.359C719.394 149.091 719.576 149.918 719.576 150.841C719.576 151.607 719.46 152.297 719.227 152.91C718.994 153.52 718.643 154.051 718.173 154.503ZM715.463 152.929C716.174 153.128 716.76 153.424 717.221 153.818C717.945 153.158 718.307 152.165 718.307 150.841C718.307 150.088 718.178 149.43 717.919 148.867C717.666 148.304 717.291 147.868 716.796 147.559C716.305 147.246 715.753 147.089 715.139 147.089C714.221 147.089 713.459 147.405 712.854 148.035C712.249 148.661 711.946 149.599 711.946 150.847C711.946 152.057 712.245 152.986 712.841 153.634C713.442 154.281 714.208 154.605 715.139 154.605C715.579 154.605 715.994 154.522 716.383 154.357C715.998 154.108 715.592 153.93 715.165 153.824L715.463 152.929Z" fill="white"/>
</svg>
