<svg width="312" height="102" viewBox="0 0 312 102" fill="none" xmlns="http://www.w3.org/2000/svg">
<rect width="312" height="102" fill="#F8F9F8"/>
<path d="M15.7695 24.0693V22.8936L20.0146 22.8867V26.6055C19.363 27.125 18.6908 27.5169 17.998 27.7812C17.3053 28.041 16.5944 28.1709 15.8652 28.1709C14.8809 28.1709 13.9854 27.9613 13.1787 27.542C12.3766 27.1182 11.7705 26.5075 11.3604 25.71C10.9502 24.9124 10.7451 24.0215 10.7451 23.0371C10.7451 22.0618 10.9479 21.1527 11.3535 20.3096C11.7637 19.4619 12.3516 18.833 13.1172 18.4229C13.8828 18.0127 14.7646 17.8076 15.7627 17.8076C16.4873 17.8076 17.1413 17.9261 17.7246 18.1631C18.3125 18.3955 18.7728 18.7214 19.1055 19.1406C19.4382 19.5599 19.6911 20.1068 19.8643 20.7812L18.668 21.1094C18.5176 20.599 18.3307 20.1979 18.1074 19.9062C17.8841 19.6146 17.5651 19.3822 17.1504 19.209C16.7357 19.0312 16.2754 18.9424 15.7695 18.9424C15.1634 18.9424 14.6393 19.0358 14.1973 19.2227C13.7552 19.4049 13.3975 19.6465 13.124 19.9473C12.8551 20.248 12.6455 20.5785 12.4951 20.9385C12.2399 21.5583 12.1123 22.2305 12.1123 22.9551C12.1123 23.8483 12.265 24.5957 12.5703 25.1973C12.8802 25.7988 13.3291 26.2454 13.917 26.5371C14.5049 26.8288 15.1292 26.9746 15.79 26.9746C16.3643 26.9746 16.9248 26.8652 17.4717 26.6465C18.0186 26.4232 18.4333 26.1862 18.7158 25.9355V24.0693H15.7695ZM26.7891 25.6621L28.0605 25.8193C27.86 26.5622 27.4886 27.1387 26.9463 27.5488C26.404 27.959 25.7113 28.1641 24.8682 28.1641C23.8063 28.1641 22.9632 27.8382 22.3389 27.1865C21.7191 26.5303 21.4092 25.612 21.4092 24.4316C21.4092 23.2103 21.7236 22.2624 22.3525 21.5879C22.9814 20.9134 23.7972 20.5762 24.7998 20.5762C25.7705 20.5762 26.5635 20.9066 27.1787 21.5674C27.7939 22.2282 28.1016 23.1579 28.1016 24.3564C28.1016 24.4294 28.0993 24.5387 28.0947 24.6846H22.6807C22.7262 25.4821 22.9518 26.0928 23.3574 26.5166C23.763 26.9404 24.2689 27.1523 24.875 27.1523C25.3262 27.1523 25.7113 27.0339 26.0303 26.7969C26.3493 26.5599 26.6022 26.1816 26.7891 25.6621ZM22.749 23.6729H26.8027C26.748 23.0622 26.5931 22.6042 26.3379 22.2988C25.946 21.8249 25.4378 21.5879 24.8135 21.5879C24.2484 21.5879 23.7721 21.777 23.3848 22.1553C23.002 22.5335 22.79 23.0394 22.749 23.6729ZM29.6123 28V20.7402H30.7197V21.7725C31.2529 20.9749 32.0231 20.5762 33.0303 20.5762C33.4678 20.5762 33.8688 20.6559 34.2334 20.8154C34.6025 20.9704 34.8783 21.1755 35.0605 21.4307C35.2428 21.6859 35.3704 21.9889 35.4434 22.3398C35.4889 22.5677 35.5117 22.9665 35.5117 23.5361V28H34.2812V23.584C34.2812 23.0827 34.2334 22.709 34.1377 22.4629C34.042 22.2122 33.8711 22.014 33.625 21.8682C33.3835 21.7178 33.0986 21.6426 32.7705 21.6426C32.2464 21.6426 31.793 21.8089 31.4102 22.1416C31.0319 22.4743 30.8428 23.1055 30.8428 24.0352V28H29.6123ZM42.375 25.6621L43.6465 25.8193C43.446 26.5622 43.0745 27.1387 42.5322 27.5488C41.9899 27.959 41.2972 28.1641 40.4541 28.1641C39.3923 28.1641 38.5492 27.8382 37.9248 27.1865C37.305 26.5303 36.9951 25.612 36.9951 24.4316C36.9951 23.2103 37.3096 22.2624 37.9385 21.5879C38.5674 20.9134 39.3831 20.5762 40.3857 20.5762C41.3564 20.5762 42.1494 20.9066 42.7646 21.5674C43.3799 22.2282 43.6875 23.1579 43.6875 24.3564C43.6875 24.4294 43.6852 24.5387 43.6807 24.6846H38.2666C38.3122 25.4821 38.5378 26.0928 38.9434 26.5166C39.349 26.9404 39.8548 27.1523 40.4609 27.1523C40.9121 27.1523 41.2972 27.0339 41.6162 26.7969C41.9352 26.5599 42.1882 26.1816 42.375 25.6621ZM38.335 23.6729H42.3887C42.334 23.0622 42.179 22.6042 41.9238 22.2988C41.5319 21.8249 41.0238 21.5879 40.3994 21.5879C39.8343 21.5879 39.3581 21.777 38.9707 22.1553C38.5879 22.5335 38.376 23.0394 38.335 23.6729ZM45.1846 28V20.7402H46.292V21.8408C46.5745 21.3258 46.8343 20.9863 47.0713 20.8223C47.3128 20.6582 47.5771 20.5762 47.8643 20.5762C48.279 20.5762 48.7005 20.7083 49.1289 20.9727L48.7051 22.1143C48.4043 21.9365 48.1035 21.8477 47.8027 21.8477C47.5339 21.8477 47.2923 21.9297 47.0781 22.0938C46.8639 22.2533 46.7113 22.4766 46.6201 22.7637C46.4834 23.2012 46.415 23.6797 46.415 24.1992V28H45.1846ZM54.5977 27.1045C54.1419 27.4919 53.7021 27.7653 53.2783 27.9248C52.859 28.0843 52.4079 28.1641 51.9248 28.1641C51.1273 28.1641 50.5143 27.9704 50.0859 27.583C49.6576 27.1911 49.4434 26.6921 49.4434 26.0859C49.4434 25.7305 49.5231 25.4069 49.6826 25.1152C49.8467 24.819 50.0586 24.582 50.3184 24.4043C50.5827 24.2266 50.8789 24.0921 51.207 24.001C51.4486 23.9372 51.8132 23.8757 52.3008 23.8164C53.2943 23.6979 54.0257 23.5566 54.4951 23.3926C54.4997 23.224 54.502 23.1169 54.502 23.0713C54.502 22.57 54.3857 22.2168 54.1533 22.0117C53.8389 21.7337 53.3717 21.5947 52.752 21.5947C52.1732 21.5947 51.7448 21.6973 51.4668 21.9023C51.1934 22.1029 50.9906 22.4606 50.8584 22.9756L49.6553 22.8115C49.7646 22.2965 49.9447 21.8818 50.1953 21.5674C50.446 21.2484 50.8083 21.0046 51.2822 20.8359C51.7562 20.6628 52.3053 20.5762 52.9297 20.5762C53.5495 20.5762 54.0531 20.6491 54.4404 20.7949C54.8278 20.9408 55.1126 21.1253 55.2949 21.3486C55.4772 21.5674 55.6048 21.8454 55.6777 22.1826C55.7188 22.3923 55.7393 22.7705 55.7393 23.3174V24.958C55.7393 26.1019 55.7643 26.8265 55.8145 27.1318C55.8691 27.4326 55.974 27.722 56.1289 28H54.8438C54.7161 27.7448 54.6341 27.4463 54.5977 27.1045ZM54.4951 24.3564C54.0485 24.5387 53.3786 24.6937 52.4854 24.8213C51.9795 24.8942 51.6217 24.9762 51.4121 25.0674C51.2025 25.1585 51.0407 25.293 50.9268 25.4707C50.8128 25.6439 50.7559 25.8376 50.7559 26.0518C50.7559 26.3799 50.8789 26.6533 51.125 26.8721C51.3757 27.0908 51.7402 27.2002 52.2188 27.2002C52.6927 27.2002 53.1143 27.0977 53.4834 26.8926C53.8525 26.6829 54.1237 26.3981 54.2969 26.0381C54.429 25.7601 54.4951 25.3499 54.4951 24.8076V24.3564ZM57.626 28V17.9785H58.8564V28H57.626ZM64.6738 19.3936V17.9785H65.9043V19.3936H64.6738ZM64.6738 28V20.7402H65.9043V28H64.6738ZM67.7842 28V20.7402H68.8916V21.7725C69.4248 20.9749 70.195 20.5762 71.2021 20.5762C71.6396 20.5762 72.0407 20.6559 72.4053 20.8154C72.7744 20.9704 73.0501 21.1755 73.2324 21.4307C73.4147 21.6859 73.5423 21.9889 73.6152 22.3398C73.6608 22.5677 73.6836 22.9665 73.6836 23.5361V28H72.4531V23.584C72.4531 23.0827 72.4053 22.709 72.3096 22.4629C72.2139 22.2122 72.043 22.014 71.7969 21.8682C71.5553 21.7178 71.2705 21.6426 70.9424 21.6426C70.4183 21.6426 69.9648 21.8089 69.582 22.1416C69.2038 22.4743 69.0146 23.1055 69.0146 24.0352V28H67.7842ZM80.2051 30.7822V27.2275C80.0137 27.4964 79.7448 27.7197 79.3984 27.8975C79.0566 28.0752 78.6921 28.1641 78.3047 28.1641C77.4434 28.1641 76.7005 27.82 76.0762 27.1318C75.4564 26.4437 75.1465 25.5003 75.1465 24.3018C75.1465 23.5726 75.2718 22.9186 75.5225 22.3398C75.7777 21.7611 76.1445 21.3236 76.623 21.0273C77.1061 20.7266 77.6348 20.5762 78.209 20.5762C79.1068 20.5762 79.8132 20.9544 80.3281 21.7109V20.7402H81.4355V30.7822H80.2051ZM76.4111 24.3496C76.4111 25.2839 76.6071 25.9857 76.999 26.4551C77.391 26.9199 77.8604 27.1523 78.4072 27.1523C78.9313 27.1523 79.3825 26.9313 79.7607 26.4893C80.139 26.0426 80.3281 25.3659 80.3281 24.459C80.3281 23.4928 80.1276 22.766 79.7266 22.2783C79.3301 21.7907 78.863 21.5469 78.3252 21.5469C77.792 21.5469 77.3385 21.7747 76.9648 22.2305C76.5957 22.6816 76.4111 23.388 76.4111 24.3496ZM88.1279 28V26.9336C87.5628 27.7539 86.7949 28.1641 85.8242 28.1641C85.3958 28.1641 84.9948 28.082 84.6211 27.918C84.252 27.7539 83.9762 27.5488 83.7939 27.3027C83.6162 27.0521 83.4909 26.7467 83.418 26.3867C83.3678 26.1452 83.3428 25.7624 83.3428 25.2383V20.7402H84.5732V24.7666C84.5732 25.4092 84.5983 25.8421 84.6484 26.0654C84.7259 26.389 84.89 26.6442 85.1406 26.8311C85.3913 27.0133 85.7012 27.1045 86.0703 27.1045C86.4395 27.1045 86.7858 27.0111 87.1094 26.8242C87.4329 26.6328 87.6608 26.3753 87.793 26.0518C87.9297 25.7236 87.998 25.2497 87.998 24.6299V20.7402H89.2285V28H88.1279ZM91.1699 19.3936V17.9785H92.4004V19.3936H91.1699ZM91.1699 28V20.7402H92.4004V28H91.1699ZM94.2666 28V20.7402H95.374V21.8408C95.6566 21.3258 95.9163 20.9863 96.1533 20.8223C96.3949 20.6582 96.6592 20.5762 96.9463 20.5762C97.361 20.5762 97.7826 20.7083 98.2109 20.9727L97.7871 22.1143C97.4863 21.9365 97.1855 21.8477 96.8848 21.8477C96.6159 21.8477 96.3743 21.9297 96.1602 22.0938C95.946 22.2533 95.7933 22.4766 95.7021 22.7637C95.5654 23.2012 95.4971 23.6797 95.4971 24.1992V28H94.2666ZM98.8877 30.7959L98.751 29.6406C99.0199 29.7135 99.2546 29.75 99.4551 29.75C99.7285 29.75 99.9473 29.7044 100.111 29.6133C100.275 29.5221 100.41 29.3945 100.515 29.2305C100.592 29.1074 100.717 28.8021 100.891 28.3145C100.913 28.2461 100.95 28.1458 101 28.0137L98.2451 20.7402H99.5713L101.082 24.9443C101.278 25.4775 101.453 26.0381 101.608 26.626C101.75 26.0609 101.918 25.5094 102.114 24.9717L103.666 20.7402H104.896L102.135 28.123C101.839 28.9206 101.608 29.4697 101.444 29.7705C101.226 30.1761 100.975 30.4723 100.692 30.6592C100.41 30.8506 100.073 30.9463 99.6807 30.9463C99.4437 30.9463 99.1794 30.8962 98.8877 30.7959Z" fill="black"/>
<path d="M10.4033 53.1562L11.5996 52.9922C11.6315 53.7578 11.7751 54.2819 12.0303 54.5645C12.2855 54.847 12.6387 54.9883 13.0898 54.9883C13.4225 54.9883 13.7096 54.9131 13.9512 54.7627C14.1927 54.6077 14.359 54.4004 14.4502 54.1406C14.5413 53.8763 14.5869 53.457 14.5869 52.8828V45.9785H15.9131V52.8076C15.9131 53.6462 15.8105 54.2956 15.6055 54.7559C15.4049 55.2161 15.0837 55.5671 14.6416 55.8086C14.2041 56.0501 13.6891 56.1709 13.0967 56.1709C12.2171 56.1709 11.5426 55.918 11.0732 55.4121C10.6084 54.9062 10.3851 54.1543 10.4033 53.1562ZM17.4648 52.3701C17.4648 51.0257 17.8385 50.0299 18.5859 49.3828C19.2103 48.8451 19.9714 48.5762 20.8691 48.5762C21.8672 48.5762 22.6829 48.9043 23.3164 49.5605C23.9499 50.2122 24.2666 51.1146 24.2666 52.2676C24.2666 53.2018 24.1253 53.9378 23.8428 54.4756C23.5648 55.0088 23.1569 55.4235 22.6191 55.7197C22.0859 56.016 21.5026 56.1641 20.8691 56.1641C19.8529 56.1641 19.0303 55.8382 18.4014 55.1865C17.777 54.5348 17.4648 53.596 17.4648 52.3701ZM18.7295 52.3701C18.7295 53.2998 18.9323 53.9971 19.3379 54.4619C19.7435 54.9222 20.2539 55.1523 20.8691 55.1523C21.4798 55.1523 21.988 54.9199 22.3936 54.4551C22.7992 53.9902 23.002 53.2816 23.002 52.3291C23.002 51.4313 22.7969 50.7523 22.3867 50.292C21.9811 49.8271 21.4753 49.5947 20.8691 49.5947C20.2539 49.5947 19.7435 49.8249 19.3379 50.2852C18.9323 50.7454 18.7295 51.4404 18.7295 52.3701ZM26.8506 56H25.709V45.9785H26.9395V49.5537C27.459 48.902 28.1221 48.5762 28.9287 48.5762C29.3753 48.5762 29.7969 48.6673 30.1934 48.8496C30.5944 49.0273 30.9225 49.2803 31.1777 49.6084C31.4375 49.932 31.6403 50.3239 31.7861 50.7842C31.932 51.2445 32.0049 51.7367 32.0049 52.2607C32.0049 53.5049 31.6973 54.4665 31.082 55.1455C30.4668 55.8245 29.7285 56.1641 28.8672 56.1641C28.0104 56.1641 27.3382 55.8063 26.8506 55.0908V56ZM26.8369 52.3154C26.8369 53.1859 26.9554 53.8148 27.1924 54.2021C27.5798 54.8356 28.1038 55.1523 28.7646 55.1523C29.3024 55.1523 29.7673 54.9199 30.1592 54.4551C30.5511 53.9857 30.7471 53.2884 30.7471 52.3633C30.7471 51.4154 30.5579 50.7158 30.1797 50.2646C29.806 49.8135 29.3525 49.5879 28.8193 49.5879C28.2816 49.5879 27.8167 49.8226 27.4248 50.292C27.0329 50.7568 26.8369 51.4313 26.8369 52.3154ZM35.6826 56L39.5312 45.9785H40.96L45.0615 56H43.5508L42.3818 52.9648H38.1914L37.0908 56H35.6826ZM38.5742 51.8848H41.9717L40.9258 49.1094C40.6068 48.2663 40.3698 47.5736 40.2148 47.0312C40.0872 47.6738 39.9072 48.3118 39.6748 48.9453L38.5742 51.8848ZM45.9639 58.7822V48.7402H47.085V49.6836C47.3493 49.3145 47.6478 49.0387 47.9805 48.8564C48.3132 48.6696 48.7165 48.5762 49.1904 48.5762C49.8102 48.5762 50.3571 48.7357 50.8311 49.0547C51.305 49.3737 51.6628 49.8249 51.9043 50.4082C52.1458 50.987 52.2666 51.6227 52.2666 52.3154C52.2666 53.0583 52.1322 53.7282 51.8633 54.3252C51.599 54.9176 51.2116 55.3734 50.7012 55.6924C50.1953 56.0068 49.6621 56.1641 49.1016 56.1641C48.6914 56.1641 48.3223 56.0775 47.9941 55.9043C47.6706 55.7311 47.404 55.5124 47.1943 55.248V58.7822H45.9639ZM47.0781 52.4111C47.0781 53.3454 47.2673 54.0358 47.6455 54.4824C48.0238 54.929 48.4818 55.1523 49.0195 55.1523C49.5664 55.1523 50.0335 54.9222 50.4209 54.4619C50.8128 53.9971 51.0088 53.2793 51.0088 52.3086C51.0088 51.3835 50.8174 50.6908 50.4346 50.2305C50.0563 49.7702 49.6029 49.54 49.0742 49.54C48.5501 49.54 48.0853 49.7861 47.6797 50.2783C47.2786 50.766 47.0781 51.4769 47.0781 52.4111ZM53.7568 58.7822V48.7402H54.8779V49.6836C55.1423 49.3145 55.4408 49.0387 55.7734 48.8564C56.1061 48.6696 56.5094 48.5762 56.9834 48.5762C57.6032 48.5762 58.1501 48.7357 58.624 49.0547C59.098 49.3737 59.4557 49.8249 59.6973 50.4082C59.9388 50.987 60.0596 51.6227 60.0596 52.3154C60.0596 53.0583 59.9251 53.7282 59.6562 54.3252C59.3919 54.9176 59.0046 55.3734 58.4941 55.6924C57.9883 56.0068 57.4551 56.1641 56.8945 56.1641C56.4844 56.1641 56.1152 56.0775 55.7871 55.9043C55.4635 55.7311 55.1969 55.5124 54.9873 55.248V58.7822H53.7568ZM54.8711 52.4111C54.8711 53.3454 55.0602 54.0358 55.4385 54.4824C55.8167 54.929 56.2747 55.1523 56.8125 55.1523C57.3594 55.1523 57.8265 54.9222 58.2139 54.4619C58.6058 53.9971 58.8018 53.2793 58.8018 52.3086C58.8018 51.3835 58.6104 50.6908 58.2275 50.2305C57.8493 49.7702 57.3958 49.54 56.8672 49.54C56.3431 49.54 55.8783 49.7861 55.4727 50.2783C55.0716 50.766 54.8711 51.4769 54.8711 52.4111ZM61.5225 56V45.9785H62.7529V56H61.5225ZM64.6738 47.3936V45.9785H65.9043V47.3936H64.6738ZM64.6738 56V48.7402H65.9043V56H64.6738ZM72.5215 53.3408L73.7314 53.498C73.5993 54.332 73.2598 54.986 72.7129 55.46C72.1706 55.9294 71.5029 56.1641 70.71 56.1641C69.7165 56.1641 68.9167 55.8405 68.3105 55.1934C67.709 54.5417 67.4082 53.6097 67.4082 52.3975C67.4082 51.6136 67.5381 50.9277 67.7979 50.3398C68.0576 49.752 68.4518 49.3122 68.9805 49.0205C69.5137 48.7243 70.0924 48.5762 70.7168 48.5762C71.5052 48.5762 72.1501 48.7767 72.6514 49.1777C73.1527 49.5742 73.474 50.1393 73.6152 50.873L72.4189 51.0576C72.305 50.57 72.1022 50.2031 71.8105 49.957C71.5234 49.7109 71.1748 49.5879 70.7646 49.5879C70.1449 49.5879 69.6413 49.8112 69.2539 50.2578C68.8665 50.6999 68.6729 51.4017 68.6729 52.3633C68.6729 53.3385 68.8597 54.0472 69.2334 54.4893C69.6071 54.9313 70.0947 55.1523 70.6963 55.1523C71.1794 55.1523 71.5827 55.0042 71.9062 54.708C72.2298 54.4118 72.4349 53.9561 72.5215 53.3408ZM79.5215 55.1045C79.0658 55.4919 78.626 55.7653 78.2021 55.9248C77.7829 56.0843 77.3317 56.1641 76.8486 56.1641C76.0511 56.1641 75.4382 55.9704 75.0098 55.583C74.5814 55.1911 74.3672 54.6921 74.3672 54.0859C74.3672 53.7305 74.4469 53.4069 74.6064 53.1152C74.7705 52.819 74.9824 52.582 75.2422 52.4043C75.5065 52.2266 75.8027 52.0921 76.1309 52.001C76.3724 51.9372 76.737 51.8757 77.2246 51.8164C78.2181 51.6979 78.9495 51.5566 79.4189 51.3926C79.4235 51.224 79.4258 51.1169 79.4258 51.0713C79.4258 50.57 79.3096 50.2168 79.0771 50.0117C78.7627 49.7337 78.2956 49.5947 77.6758 49.5947C77.097 49.5947 76.6686 49.6973 76.3906 49.9023C76.1172 50.1029 75.9144 50.4606 75.7822 50.9756L74.5791 50.8115C74.6885 50.2965 74.8685 49.8818 75.1191 49.5674C75.3698 49.2484 75.7321 49.0046 76.2061 48.8359C76.68 48.6628 77.2292 48.5762 77.8535 48.5762C78.4733 48.5762 78.9769 48.6491 79.3643 48.7949C79.7516 48.9408 80.0365 49.1253 80.2188 49.3486C80.401 49.5674 80.5286 49.8454 80.6016 50.1826C80.6426 50.3923 80.6631 50.7705 80.6631 51.3174V52.958C80.6631 54.1019 80.6882 54.8265 80.7383 55.1318C80.793 55.4326 80.8978 55.722 81.0527 56H79.7676C79.64 55.7448 79.5579 55.4463 79.5215 55.1045ZM79.4189 52.3564C78.9723 52.5387 78.3024 52.6937 77.4092 52.8213C76.9033 52.8942 76.5456 52.9762 76.3359 53.0674C76.1263 53.1585 75.9645 53.293 75.8506 53.4707C75.7367 53.6439 75.6797 53.8376 75.6797 54.0518C75.6797 54.3799 75.8027 54.6533 76.0488 54.8721C76.2995 55.0908 76.6641 55.2002 77.1426 55.2002C77.6165 55.2002 78.0381 55.0977 78.4072 54.8926C78.7764 54.6829 79.0475 54.3981 79.2207 54.0381C79.3529 53.7601 79.4189 53.3499 79.4189 52.8076V52.3564ZM85.2637 54.8994L85.4414 55.9863C85.0951 56.0592 84.7852 56.0957 84.5117 56.0957C84.0651 56.0957 83.7188 56.0251 83.4727 55.8838C83.2266 55.7425 83.0534 55.5579 82.9531 55.3301C82.8529 55.0977 82.8027 54.6123 82.8027 53.874V49.6973H81.9004V48.7402H82.8027V46.9424L84.0264 46.2041V48.7402H85.2637V49.6973H84.0264V53.9424C84.0264 54.2933 84.0469 54.5189 84.0879 54.6191C84.1335 54.7194 84.2041 54.7992 84.2998 54.8584C84.4001 54.9176 84.5413 54.9473 84.7236 54.9473C84.8604 54.9473 85.0404 54.9313 85.2637 54.8994ZM86.4805 47.3936V45.9785H87.7109V47.3936H86.4805ZM86.4805 56V48.7402H87.7109V56H86.4805ZM89.1328 52.3701C89.1328 51.0257 89.5065 50.0299 90.2539 49.3828C90.8783 48.8451 91.6393 48.5762 92.5371 48.5762C93.5352 48.5762 94.3509 48.9043 94.9844 49.5605C95.6178 50.2122 95.9346 51.1146 95.9346 52.2676C95.9346 53.2018 95.7933 53.9378 95.5107 54.4756C95.2327 55.0088 94.8249 55.4235 94.2871 55.7197C93.7539 56.016 93.1706 56.1641 92.5371 56.1641C91.5208 56.1641 90.6982 55.8382 90.0693 55.1865C89.445 54.5348 89.1328 53.596 89.1328 52.3701ZM90.3975 52.3701C90.3975 53.2998 90.6003 53.9971 91.0059 54.4619C91.4115 54.9222 91.9219 55.1523 92.5371 55.1523C93.1478 55.1523 93.6559 54.9199 94.0615 54.4551C94.4671 53.9902 94.6699 53.2816 94.6699 52.3291C94.6699 51.4313 94.4648 50.7523 94.0547 50.292C93.6491 49.8271 93.1432 49.5947 92.5371 49.5947C91.9219 49.5947 91.4115 49.8249 91.0059 50.2852C90.6003 50.7454 90.3975 51.4404 90.3975 52.3701ZM97.3838 56V48.7402H98.4912V49.7725C99.0244 48.9749 99.7946 48.5762 100.802 48.5762C101.239 48.5762 101.64 48.6559 102.005 48.8154C102.374 48.9704 102.65 49.1755 102.832 49.4307C103.014 49.6859 103.142 49.9889 103.215 50.3398C103.26 50.5677 103.283 50.9665 103.283 51.5361V56H102.053V51.584C102.053 51.0827 102.005 50.709 101.909 50.4629C101.813 50.2122 101.643 50.014 101.396 49.8682C101.155 49.7178 100.87 49.6426 100.542 49.6426C100.018 49.6426 99.5645 49.8089 99.1816 50.1416C98.8034 50.4743 98.6143 51.1055 98.6143 52.0352V56H97.3838Z" fill="black"/>
<path d="M11.0391 84V73.9785H13.0352L15.4072 81.0742C15.626 81.735 15.7855 82.2295 15.8857 82.5576C15.9997 82.193 16.1774 81.6576 16.4189 80.9512L18.8184 73.9785H20.6025V84H19.3242V75.6123L16.4121 84H15.2158L12.3174 75.4688V84H11.0391ZM27.5547 81.6621L28.8262 81.8193C28.6257 82.5622 28.2542 83.1387 27.7119 83.5488C27.1696 83.959 26.4769 84.1641 25.6338 84.1641C24.5719 84.1641 23.7288 83.8382 23.1045 83.1865C22.4847 82.5303 22.1748 81.612 22.1748 80.4316C22.1748 79.2103 22.4893 78.2624 23.1182 77.5879C23.7471 76.9134 24.5628 76.5762 25.5654 76.5762C26.5361 76.5762 27.3291 76.9066 27.9443 77.5674C28.5596 78.2282 28.8672 79.1579 28.8672 80.3564C28.8672 80.4294 28.8649 80.5387 28.8604 80.6846H23.4463C23.4919 81.4821 23.7174 82.0928 24.123 82.5166C24.5286 82.9404 25.0345 83.1523 25.6406 83.1523C26.0918 83.1523 26.4769 83.0339 26.7959 82.7969C27.1149 82.5599 27.3678 82.1816 27.5547 81.6621ZM23.5146 79.6729H27.5684C27.5137 79.0622 27.3587 78.6042 27.1035 78.2988C26.7116 77.8249 26.2035 77.5879 25.5791 77.5879C25.014 77.5879 24.5378 77.777 24.1504 78.1553C23.7676 78.5335 23.5557 79.0394 23.5146 79.6729ZM35.0879 84V83.084C34.6276 83.804 33.9508 84.1641 33.0576 84.1641C32.4788 84.1641 31.9456 84.0046 31.458 83.6855C30.9749 83.3665 30.599 82.9222 30.3301 82.3525C30.0658 81.7783 29.9336 81.1198 29.9336 80.377C29.9336 79.6523 30.0544 78.9961 30.2959 78.4082C30.5374 77.8158 30.8997 77.3623 31.3828 77.0479C31.8659 76.7334 32.4059 76.5762 33.0029 76.5762C33.4404 76.5762 33.8301 76.6696 34.1719 76.8564C34.5137 77.0387 34.7917 77.278 35.0059 77.5742V73.9785H36.2295V84H35.0879ZM31.1982 80.377C31.1982 81.3066 31.3942 82.0016 31.7861 82.4619C32.1781 82.9222 32.6406 83.1523 33.1738 83.1523C33.7116 83.1523 34.1673 82.9336 34.541 82.4961C34.9193 82.054 35.1084 81.3818 35.1084 80.4795C35.1084 79.486 34.917 78.7568 34.5342 78.292C34.1514 77.8271 33.6797 77.5947 33.1191 77.5947C32.5723 77.5947 32.1143 77.818 31.7451 78.2646C31.3805 78.7113 31.1982 79.4154 31.1982 80.377ZM38.1777 75.3936V73.9785H39.4082V75.3936H38.1777ZM38.1777 84V76.7402H39.4082V84H38.1777ZM46.0254 83.1045C45.5697 83.4919 45.1299 83.7653 44.7061 83.9248C44.2868 84.0843 43.8356 84.1641 43.3525 84.1641C42.555 84.1641 41.9421 83.9704 41.5137 83.583C41.0853 83.1911 40.8711 82.6921 40.8711 82.0859C40.8711 81.7305 40.9508 81.4069 41.1104 81.1152C41.2744 80.819 41.4863 80.582 41.7461 80.4043C42.0104 80.2266 42.3066 80.0921 42.6348 80.001C42.8763 79.9372 43.2409 79.8757 43.7285 79.8164C44.722 79.6979 45.4535 79.5566 45.9229 79.3926C45.9274 79.224 45.9297 79.1169 45.9297 79.0713C45.9297 78.57 45.8135 78.2168 45.5811 78.0117C45.2666 77.7337 44.7995 77.5947 44.1797 77.5947C43.6009 77.5947 43.1725 77.6973 42.8945 77.9023C42.6211 78.1029 42.4183 78.4606 42.2861 78.9756L41.083 78.8115C41.1924 78.2965 41.3724 77.8818 41.623 77.5674C41.8737 77.2484 42.236 77.0046 42.71 76.8359C43.1839 76.6628 43.7331 76.5762 44.3574 76.5762C44.9772 76.5762 45.4808 76.6491 45.8682 76.7949C46.2555 76.9408 46.5404 77.1253 46.7227 77.3486C46.9049 77.5674 47.0326 77.8454 47.1055 78.1826C47.1465 78.3923 47.167 78.7705 47.167 79.3174V80.958C47.167 82.1019 47.1921 82.8265 47.2422 83.1318C47.2969 83.4326 47.4017 83.722 47.5566 84H46.2715C46.1439 83.7448 46.0618 83.4463 46.0254 83.1045ZM45.9229 80.3564C45.4762 80.5387 44.8063 80.6937 43.9131 80.8213C43.4072 80.8942 43.0495 80.9762 42.8398 81.0674C42.6302 81.1585 42.4684 81.293 42.3545 81.4707C42.2406 81.6439 42.1836 81.8376 42.1836 82.0518C42.1836 82.3799 42.3066 82.6533 42.5527 82.8721C42.8034 83.0908 43.168 83.2002 43.6465 83.2002C44.1204 83.2002 44.542 83.0977 44.9111 82.8926C45.2803 82.6829 45.5514 82.3981 45.7246 82.0381C45.8568 81.7601 45.9229 81.3499 45.9229 80.8076V80.3564ZM58.7061 82.8174C58.3005 83.2686 57.8584 83.6081 57.3799 83.8359C56.9014 84.0592 56.3841 84.1709 55.8281 84.1709C54.8027 84.1709 53.9893 83.8245 53.3877 83.1318C52.9001 82.5667 52.6562 81.9355 52.6562 81.2383C52.6562 80.6185 52.8545 80.0602 53.251 79.5635C53.652 79.0622 54.249 78.6224 55.042 78.2441C54.5908 77.7246 54.29 77.3031 54.1396 76.9795C53.9893 76.6559 53.9141 76.3438 53.9141 76.043C53.9141 75.4414 54.1488 74.9196 54.6182 74.4775C55.0921 74.0309 55.6868 73.8076 56.4023 73.8076C57.0859 73.8076 57.6442 74.0173 58.0771 74.4365C58.5146 74.8558 58.7334 75.3594 58.7334 75.9473C58.7334 76.8997 58.1022 77.7132 56.8398 78.3877L58.6377 80.6777C58.8428 80.2767 59.0023 79.8118 59.1162 79.2832L60.3945 79.5566C60.1758 80.4316 59.8796 81.1517 59.5059 81.7168C59.9661 82.3275 60.488 82.8402 61.0713 83.2549L60.2441 84.2324C59.7474 83.9134 59.2347 83.4417 58.7061 82.8174ZM56.2041 77.5947C56.7373 77.2803 57.0814 77.0046 57.2363 76.7676C57.3958 76.5306 57.4756 76.2686 57.4756 75.9814C57.4756 75.6396 57.3662 75.3617 57.1475 75.1475C56.9333 74.9287 56.6644 74.8193 56.3408 74.8193C56.0081 74.8193 55.7301 74.9264 55.5068 75.1406C55.2881 75.3548 55.1787 75.6169 55.1787 75.9268C55.1787 76.0817 55.2174 76.2458 55.2949 76.4189C55.377 76.5876 55.4977 76.7676 55.6572 76.959L56.2041 77.5947ZM57.9336 81.8467L55.6777 79.0508C55.0124 79.4473 54.5635 79.8164 54.3311 80.1582C54.0986 80.4954 53.9824 80.8304 53.9824 81.1631C53.9824 81.5687 54.1442 81.9902 54.4678 82.4277C54.7913 82.8652 55.2493 83.084 55.8418 83.084C56.2109 83.084 56.5915 82.9701 56.9834 82.7422C57.3799 82.5098 57.6966 82.2113 57.9336 81.8467ZM66.3691 84V73.9785H70.1494C70.8148 73.9785 71.3229 74.0104 71.6738 74.0742C72.166 74.1562 72.5785 74.3135 72.9111 74.5459C73.2438 74.7738 73.5104 75.0951 73.7109 75.5098C73.916 75.9245 74.0186 76.3802 74.0186 76.877C74.0186 77.7292 73.7474 78.4515 73.2051 79.0439C72.6628 79.6318 71.6829 79.9258 70.2656 79.9258H67.6953V84H66.3691ZM67.6953 78.7432H70.2861C71.1429 78.7432 71.7513 78.5837 72.1113 78.2646C72.4714 77.9456 72.6514 77.4967 72.6514 76.918C72.6514 76.4987 72.5443 76.141 72.3301 75.8447C72.1204 75.5439 71.8424 75.3457 71.4961 75.25C71.2728 75.1908 70.8604 75.1611 70.2588 75.1611H67.6953V78.7432ZM75.5361 84V76.7402H76.6436V77.8408C76.9261 77.3258 77.1859 76.9863 77.4229 76.8223C77.6644 76.6582 77.9287 76.5762 78.2158 76.5762C78.6305 76.5762 79.0521 76.7083 79.4805 76.9727L79.0566 78.1143C78.7559 77.9365 78.4551 77.8477 78.1543 77.8477C77.8854 77.8477 77.6439 77.9297 77.4297 78.0938C77.2155 78.2533 77.0628 78.4766 76.9717 78.7637C76.835 79.2012 76.7666 79.6797 76.7666 80.1992V84H75.5361ZM85.1816 81.6621L86.4531 81.8193C86.2526 82.5622 85.8812 83.1387 85.3389 83.5488C84.7965 83.959 84.1038 84.1641 83.2607 84.1641C82.1989 84.1641 81.3558 83.8382 80.7314 83.1865C80.1117 82.5303 79.8018 81.612 79.8018 80.4316C79.8018 79.2103 80.1162 78.2624 80.7451 77.5879C81.374 76.9134 82.1898 76.5762 83.1924 76.5762C84.1631 76.5762 84.9561 76.9066 85.5713 77.5674C86.1865 78.2282 86.4941 79.1579 86.4941 80.3564C86.4941 80.4294 86.4919 80.5387 86.4873 80.6846H81.0732C81.1188 81.4821 81.3444 82.0928 81.75 82.5166C82.1556 82.9404 82.6615 83.1523 83.2676 83.1523C83.7188 83.1523 84.1038 83.0339 84.4229 82.7969C84.7419 82.5599 84.9948 82.1816 85.1816 81.6621ZM81.1416 79.6729H85.1953C85.1406 79.0622 84.9857 78.6042 84.7305 78.2988C84.3385 77.8249 83.8304 77.5879 83.2061 77.5879C82.641 77.5879 82.1647 77.777 81.7773 78.1553C81.3945 78.5335 81.1826 79.0394 81.1416 79.6729ZM87.5127 81.833L88.7295 81.6416C88.7979 82.1292 88.987 82.5029 89.2969 82.7627C89.6113 83.0225 90.0488 83.1523 90.6094 83.1523C91.1745 83.1523 91.5938 83.0384 91.8672 82.8105C92.1406 82.5781 92.2773 82.307 92.2773 81.9971C92.2773 81.7191 92.1566 81.5003 91.915 81.3408C91.7464 81.2314 91.3271 81.0924 90.6572 80.9238C89.7549 80.696 89.1283 80.5 88.7773 80.3359C88.431 80.1673 88.1667 79.9372 87.9844 79.6455C87.8066 79.3493 87.7178 79.0234 87.7178 78.668C87.7178 78.3444 87.7907 78.0459 87.9365 77.7725C88.0869 77.4945 88.2897 77.2643 88.5449 77.082C88.7363 76.9408 88.9961 76.8223 89.3242 76.7266C89.6569 76.6263 90.0124 76.5762 90.3906 76.5762C90.9603 76.5762 91.4593 76.6582 91.8877 76.8223C92.3206 76.9863 92.6396 77.2096 92.8447 77.4922C93.0498 77.7702 93.1911 78.1439 93.2686 78.6133L92.0654 78.7773C92.0107 78.4036 91.8512 78.112 91.5869 77.9023C91.3271 77.6927 90.958 77.5879 90.4795 77.5879C89.9144 77.5879 89.5111 77.6813 89.2695 77.8682C89.028 78.055 88.9072 78.2738 88.9072 78.5244C88.9072 78.6839 88.9574 78.8275 89.0576 78.9551C89.1579 79.0872 89.3151 79.1966 89.5293 79.2832C89.6523 79.3288 90.0146 79.4336 90.6162 79.5977C91.4867 79.8301 92.0928 80.0215 92.4346 80.1719C92.7809 80.3177 93.0521 80.5319 93.248 80.8145C93.444 81.097 93.542 81.4479 93.542 81.8672C93.542 82.2773 93.4212 82.6647 93.1797 83.0293C92.9427 83.3893 92.5986 83.6696 92.1475 83.8701C91.6963 84.0661 91.1859 84.1641 90.6162 84.1641C89.6729 84.1641 88.9528 83.9681 88.4561 83.5762C87.9639 83.1842 87.6494 82.6032 87.5127 81.833ZM94.5127 81.833L95.7295 81.6416C95.7979 82.1292 95.987 82.5029 96.2969 82.7627C96.6113 83.0225 97.0488 83.1523 97.6094 83.1523C98.1745 83.1523 98.5938 83.0384 98.8672 82.8105C99.1406 82.5781 99.2773 82.307 99.2773 81.9971C99.2773 81.7191 99.1566 81.5003 98.915 81.3408C98.7464 81.2314 98.3271 81.0924 97.6572 80.9238C96.7549 80.696 96.1283 80.5 95.7773 80.3359C95.431 80.1673 95.1667 79.9372 94.9844 79.6455C94.8066 79.3493 94.7178 79.0234 94.7178 78.668C94.7178 78.3444 94.7907 78.0459 94.9365 77.7725C95.0869 77.4945 95.2897 77.2643 95.5449 77.082C95.7363 76.9408 95.9961 76.8223 96.3242 76.7266C96.6569 76.6263 97.0124 76.5762 97.3906 76.5762C97.9603 76.5762 98.4593 76.6582 98.8877 76.8223C99.3206 76.9863 99.6396 77.2096 99.8447 77.4922C100.05 77.7702 100.191 78.1439 100.269 78.6133L99.0654 78.7773C99.0107 78.4036 98.8512 78.112 98.5869 77.9023C98.3271 77.6927 97.958 77.5879 97.4795 77.5879C96.9144 77.5879 96.5111 77.6813 96.2695 77.8682C96.028 78.055 95.9072 78.2738 95.9072 78.5244C95.9072 78.6839 95.9574 78.8275 96.0576 78.9551C96.1579 79.0872 96.3151 79.1966 96.5293 79.2832C96.6523 79.3288 97.0146 79.4336 97.6162 79.5977C98.4867 79.8301 99.0928 80.0215 99.4346 80.1719C99.7809 80.3177 100.052 80.5319 100.248 80.8145C100.444 81.097 100.542 81.4479 100.542 81.8672C100.542 82.2773 100.421 82.6647 100.18 83.0293C99.9427 83.3893 99.5986 83.6696 99.1475 83.8701C98.6963 84.0661 98.1859 84.1641 97.6162 84.1641C96.6729 84.1641 95.9528 83.9681 95.4561 83.5762C94.9639 83.1842 94.6494 82.6032 94.5127 81.833Z" fill="black"/>
</svg>
