<svg width="1440" height="45" viewBox="0 0 1440 45" fill="none" xmlns="http://www.w3.org/2000/svg">
<rect width="1440" height="45" fill="white"/>
<path d="M479.628 27.5L477.159 18.1943H478.422L479.837 24.2944C479.99 24.9334 480.121 25.5682 480.231 26.1987C480.468 25.2043 480.608 24.6309 480.65 24.4785L482.421 18.1943H483.906L485.239 22.9043C485.574 24.0723 485.815 25.1704 485.963 26.1987C486.081 25.6105 486.236 24.9355 486.426 24.1738L487.886 18.1943H489.124L486.572 27.5H485.385L483.424 20.4097C483.259 19.8172 483.161 19.4533 483.132 19.3179C483.035 19.7453 482.944 20.1092 482.859 20.4097L480.885 27.5H479.628ZM489.905 22.9678C489.905 21.4232 490.319 20.215 491.149 19.3433C491.978 18.4673 493.049 18.0293 494.361 18.0293C495.22 18.0293 495.994 18.2345 496.684 18.645C497.374 19.0555 497.899 19.6289 498.258 20.3652C498.622 21.0973 498.804 21.9289 498.804 22.8599C498.804 23.8035 498.614 24.6478 498.233 25.3926C497.852 26.1374 497.312 26.7023 496.614 27.0874C495.916 27.4683 495.163 27.6587 494.354 27.6587C493.479 27.6587 492.696 27.4471 492.006 27.0239C491.316 26.6007 490.793 26.0231 490.438 25.291C490.083 24.5589 489.905 23.7845 489.905 22.9678ZM491.174 22.9868C491.174 24.1082 491.475 24.9927 492.076 25.6401C492.681 26.2834 493.438 26.605 494.348 26.605C495.275 26.605 496.037 26.2791 496.633 25.6274C497.234 24.9757 497.535 24.0511 497.535 22.8535C497.535 22.096 497.406 21.4359 497.147 20.873C496.894 20.306 496.519 19.868 496.024 19.5591C495.533 19.2459 494.981 19.0894 494.367 19.0894C493.495 19.0894 492.744 19.3898 492.114 19.9907C491.487 20.5874 491.174 21.5861 491.174 22.9868ZM500.359 27.5V18.1943H502.213L504.416 24.7832C504.619 25.3968 504.767 25.856 504.86 26.1606C504.966 25.8221 505.131 25.3249 505.355 24.6689L507.583 18.1943H509.24V27.5H508.053V19.7114L505.349 27.5H504.238L501.546 19.5781V27.5H500.359ZM511.252 27.5V18.1943H517.98V19.2925H512.483V22.1426H517.631V23.2344H512.483V26.4019H518.196V27.5H511.252ZM519.885 27.5V18.1943H521.148L526.036 25.5005V18.1943H527.216V27.5H525.953L521.065 20.1875V27.5H519.885Z" fill="black"/>
<path d="M580.643 24.2373L581.874 24.5483C581.616 25.5597 581.15 26.332 580.478 26.8652C579.809 27.3942 578.99 27.6587 578.021 27.6587C577.018 27.6587 576.201 27.4556 575.571 27.0493C574.944 26.6388 574.466 26.0464 574.136 25.272C573.81 24.4976 573.647 23.666 573.647 22.7773C573.647 21.8083 573.832 20.964 574.2 20.2446C574.572 19.521 575.099 18.973 575.78 18.6006C576.466 18.224 577.219 18.0356 578.04 18.0356C578.971 18.0356 579.754 18.2726 580.389 18.7466C581.023 19.2205 581.466 19.887 581.715 20.7461L580.503 21.0317C580.287 20.3547 579.974 19.8617 579.563 19.5527C579.153 19.2438 578.637 19.0894 578.015 19.0894C577.299 19.0894 576.701 19.2607 576.218 19.6035C575.74 19.9463 575.404 20.4076 575.209 20.9873C575.014 21.5628 574.917 22.1574 574.917 22.771C574.917 23.5623 575.031 24.2542 575.26 24.8467C575.493 25.4349 575.852 25.875 576.339 26.167C576.826 26.459 577.352 26.605 577.919 26.605C578.609 26.605 579.193 26.4061 579.671 26.0083C580.15 25.6105 580.473 25.0202 580.643 24.2373ZM583.023 22.9678C583.023 21.4232 583.438 20.215 584.267 19.3433C585.097 18.4673 586.167 18.0293 587.479 18.0293C588.338 18.0293 589.112 18.2345 589.802 18.645C590.492 19.0555 591.017 19.6289 591.376 20.3652C591.74 21.0973 591.922 21.9289 591.922 22.8599C591.922 23.8035 591.732 24.6478 591.351 25.3926C590.97 26.1374 590.431 26.7023 589.732 27.0874C589.034 27.4683 588.281 27.6587 587.473 27.6587C586.597 27.6587 585.814 27.4471 585.124 27.0239C584.434 26.6007 583.912 26.0231 583.556 25.291C583.201 24.5589 583.023 23.7845 583.023 22.9678ZM584.292 22.9868C584.292 24.1082 584.593 24.9927 585.194 25.6401C585.799 26.2834 586.556 26.605 587.466 26.605C588.393 26.605 589.155 26.2791 589.751 25.6274C590.352 24.9757 590.653 24.0511 590.653 22.8535C590.653 22.096 590.524 21.4359 590.266 20.873C590.012 20.306 589.637 19.868 589.142 19.5591C588.651 19.2459 588.099 19.0894 587.485 19.0894C586.614 19.0894 585.862 19.3898 585.232 19.9907C584.606 20.5874 584.292 21.5861 584.292 22.9868ZM593.465 27.5V18.1943H594.696V26.4019H599.279V27.5H593.465ZM600.701 27.5V18.1943H601.933V26.4019H606.516V27.5H600.701ZM608.014 27.5V18.1943H614.742V19.2925H609.245V22.1426H614.393V23.2344H609.245V26.4019H614.958V27.5H608.014ZM623.299 24.2373L624.53 24.5483C624.272 25.5597 623.807 26.332 623.134 26.8652C622.465 27.3942 621.646 27.6587 620.677 27.6587C619.674 27.6587 618.858 27.4556 618.227 27.0493C617.601 26.6388 617.123 26.0464 616.792 25.272C616.467 24.4976 616.304 23.666 616.304 22.7773C616.304 21.8083 616.488 20.964 616.856 20.2446C617.228 19.521 617.755 18.973 618.437 18.6006C619.122 18.224 619.875 18.0356 620.696 18.0356C621.627 18.0356 622.41 18.2726 623.045 18.7466C623.68 19.2205 624.122 19.887 624.372 20.7461L623.159 21.0317C622.943 20.3547 622.63 19.8617 622.22 19.5527C621.809 19.2438 621.293 19.0894 620.671 19.0894C619.956 19.0894 619.357 19.2607 618.875 19.6035C618.396 19.9463 618.06 20.4076 617.865 20.9873C617.671 21.5628 617.573 22.1574 617.573 22.771C617.573 23.5623 617.688 24.2542 617.916 24.8467C618.149 25.4349 618.508 25.875 618.995 26.167C619.482 26.459 620.009 26.605 620.576 26.605C621.265 26.605 621.849 26.4061 622.328 26.0083C622.806 25.6105 623.13 25.0202 623.299 24.2373ZM628.421 27.5V19.2925H625.355V18.1943H632.731V19.2925H629.653V27.5H628.421ZM634.21 27.5V18.1943H635.442V27.5H634.21ZM637.245 22.9678C637.245 21.4232 637.659 20.215 638.489 19.3433C639.318 18.4673 640.389 18.0293 641.701 18.0293C642.56 18.0293 643.334 18.2345 644.024 18.645C644.714 19.0555 645.238 19.6289 645.598 20.3652C645.962 21.0973 646.144 21.9289 646.144 22.8599C646.144 23.8035 645.954 24.6478 645.573 25.3926C645.192 26.1374 644.652 26.7023 643.954 27.0874C643.256 27.4683 642.503 27.6587 641.694 27.6587C640.818 27.6587 640.035 27.4471 639.346 27.0239C638.656 26.6007 638.133 26.0231 637.778 25.291C637.422 24.5589 637.245 23.7845 637.245 22.9678ZM638.514 22.9868C638.514 24.1082 638.815 24.9927 639.416 25.6401C640.021 26.2834 640.778 26.605 641.688 26.605C642.615 26.605 643.376 26.2791 643.973 25.6274C644.574 24.9757 644.875 24.0511 644.875 22.8535C644.875 22.096 644.745 21.4359 644.487 20.873C644.233 20.306 643.859 19.868 643.364 19.5591C642.873 19.2459 642.321 19.0894 641.707 19.0894C640.835 19.0894 640.084 19.3898 639.454 19.9907C638.827 20.5874 638.514 21.5861 638.514 22.9868ZM647.725 27.5V18.1943H648.988L653.875 25.5005V18.1943H655.056V27.5H653.793L648.905 20.1875V27.5H647.725ZM656.713 24.5103L657.875 24.4087C657.93 24.8742 658.056 25.2572 658.255 25.5576C658.458 25.8538 658.772 26.0951 659.195 26.2812C659.618 26.4632 660.094 26.5542 660.623 26.5542C661.093 26.5542 661.507 26.4844 661.867 26.3447C662.227 26.2051 662.493 26.0146 662.667 25.7734C662.845 25.528 662.934 25.2614 662.934 24.9736C662.934 24.6816 662.849 24.4277 662.68 24.2119C662.51 23.9919 662.231 23.8078 661.842 23.6597C661.592 23.5623 661.04 23.4121 660.185 23.209C659.33 23.0016 658.731 22.807 658.389 22.625C657.944 22.3923 657.612 22.1045 657.392 21.7617C657.176 21.4147 657.068 21.0275 657.068 20.6001C657.068 20.1304 657.202 19.6924 657.468 19.2861C657.735 18.8757 658.124 18.5646 658.636 18.353C659.148 18.1414 659.717 18.0356 660.344 18.0356C661.034 18.0356 661.641 18.1478 662.166 18.3721C662.694 18.5921 663.101 18.918 663.384 19.3496C663.668 19.7812 663.82 20.27 663.841 20.8159L662.661 20.9048C662.597 20.3166 662.381 19.8722 662.013 19.5718C661.649 19.2713 661.11 19.1211 660.395 19.1211C659.65 19.1211 659.106 19.2586 658.763 19.5337C658.425 19.8045 658.255 20.1325 658.255 20.5176C658.255 20.8519 658.376 21.127 658.617 21.3428C658.854 21.5586 659.472 21.7808 660.471 22.0093C661.474 22.2336 662.161 22.4303 662.534 22.5996C663.075 22.8493 663.475 23.1667 663.733 23.5518C663.992 23.9326 664.121 24.3727 664.121 24.8721C664.121 25.3672 663.979 25.8348 663.695 26.2749C663.412 26.7108 663.003 27.0514 662.47 27.2969C661.941 27.5381 661.345 27.6587 660.68 27.6587C659.838 27.6587 659.131 27.536 658.56 27.2905C657.993 27.0451 657.547 26.6769 657.221 26.186C656.899 25.6909 656.73 25.1323 656.713 24.5103Z" fill="black"/>
<path d="M710.028 27.5V18.1943H716.757V19.2925H711.26V22.1426H716.408V23.2344H711.26V26.4019H716.973V27.5H710.028ZM718.674 27.5V18.1943H721.879C722.603 18.1943 723.155 18.2388 723.536 18.3276C724.069 18.4504 724.524 18.6725 724.901 18.9941C725.392 19.4089 725.758 19.9399 725.999 20.5874C726.244 21.2306 726.367 21.967 726.367 22.7964C726.367 23.5031 726.285 24.1294 726.12 24.6753C725.955 25.2212 725.743 25.674 725.485 26.0337C725.227 26.3892 724.943 26.6706 724.634 26.8779C724.33 27.0811 723.959 27.2355 723.523 27.3413C723.092 27.4471 722.595 27.5 722.032 27.5H718.674ZM719.905 26.4019H721.892C722.506 26.4019 722.986 26.3447 723.333 26.2305C723.684 26.1162 723.964 25.9554 724.171 25.748C724.463 25.4561 724.689 25.0646 724.85 24.5737C725.015 24.0786 725.098 23.4798 725.098 22.7773C725.098 21.804 724.937 21.0571 724.615 20.5366C724.298 20.0119 723.911 19.6606 723.454 19.4829C723.124 19.356 722.592 19.2925 721.86 19.2925H719.905V26.4019ZM728.278 27.5V18.1943H729.509V27.5H728.278ZM734.054 27.5V19.2925H730.988V18.1943H738.364V19.2925H735.286V27.5H734.054ZM739.018 22.9678C739.018 21.4232 739.433 20.215 740.262 19.3433C741.092 18.4673 742.162 18.0293 743.474 18.0293C744.333 18.0293 745.108 18.2345 745.797 18.645C746.487 19.0555 747.012 19.6289 747.372 20.3652C747.736 21.0973 747.917 21.9289 747.917 22.8599C747.917 23.8035 747.727 24.6478 747.346 25.3926C746.965 26.1374 746.426 26.7023 745.728 27.0874C745.029 27.4683 744.276 27.6587 743.468 27.6587C742.592 27.6587 741.809 27.4471 741.119 27.0239C740.429 26.6007 739.907 26.0231 739.551 25.291C739.196 24.5589 739.018 23.7845 739.018 22.9678ZM740.288 22.9868C740.288 24.1082 740.588 24.9927 741.189 25.6401C741.794 26.2834 742.552 26.605 743.461 26.605C744.388 26.605 745.15 26.2791 745.747 25.6274C746.347 24.9757 746.648 24.0511 746.648 22.8535C746.648 22.096 746.519 21.4359 746.261 20.873C746.007 20.306 745.632 19.868 745.137 19.5591C744.646 19.2459 744.094 19.0894 743.48 19.0894C742.609 19.0894 741.858 19.3898 741.227 19.9907C740.601 20.5874 740.288 21.5861 740.288 22.9868ZM749.53 27.5V18.1943H753.656C754.485 18.1943 755.116 18.279 755.547 18.4482C755.979 18.6133 756.324 18.9074 756.582 19.3306C756.84 19.7537 756.969 20.2214 756.969 20.7334C756.969 21.3936 756.756 21.95 756.328 22.4028C755.901 22.8556 755.241 23.1434 754.348 23.2661C754.674 23.4227 754.921 23.5771 755.09 23.7295C755.45 24.0596 755.791 24.4722 756.112 24.9673L757.731 27.5H756.182L754.951 25.564C754.591 25.0054 754.295 24.578 754.062 24.2817C753.829 23.9855 753.62 23.7782 753.434 23.6597C753.252 23.5412 753.065 23.4587 752.875 23.4121C752.735 23.3825 752.507 23.3677 752.189 23.3677H750.761V27.5H749.53ZM750.761 22.3013H753.408C753.971 22.3013 754.411 22.2441 754.729 22.1299C755.046 22.0114 755.287 21.8252 755.452 21.5713C755.617 21.3132 755.7 21.0339 755.7 20.7334C755.7 20.2933 755.539 19.9315 755.217 19.6479C754.9 19.3644 754.396 19.2227 753.707 19.2227H750.761V22.3013ZM759.115 27.5V18.1943H760.346V27.5H759.115ZM761.501 27.5L765.075 18.1943H766.402L770.21 27.5H768.808L767.722 24.6816H763.831L762.809 27.5H761.501ZM764.187 23.6787H767.341L766.37 21.1016C766.074 20.3187 765.854 19.6755 765.71 19.1719C765.591 19.7686 765.424 20.361 765.208 20.9492L764.187 23.6787ZM771.144 27.5V18.1943H772.375V26.4019H776.958V27.5H771.144Z" fill="black"/>
<path d="M822.99 27.5V18.1943H824.253L829.141 25.5005V18.1943H830.322V27.5H829.059L824.171 20.1875V27.5H822.99ZM832.423 27.5V18.1943H839.151V19.2925H833.654V22.1426H838.802V23.2344H833.654V26.4019H839.367V27.5H832.423ZM842.693 27.5L840.224 18.1943H841.487L842.903 24.2944C843.055 24.9334 843.186 25.5682 843.296 26.1987C843.533 25.2043 843.673 24.6309 843.715 24.4785L845.486 18.1943H846.972L848.305 22.9043C848.639 24.0723 848.88 25.1704 849.028 26.1987C849.147 25.6105 849.301 24.9355 849.492 24.1738L850.952 18.1943H852.189L849.638 27.5H848.451L846.489 20.4097C846.324 19.8172 846.227 19.4533 846.197 19.3179C846.1 19.7453 846.009 20.1092 845.924 20.4097L843.95 27.5H842.693ZM852.926 24.5103L854.087 24.4087C854.142 24.8742 854.269 25.2572 854.468 25.5576C854.671 25.8538 854.985 26.0951 855.408 26.2812C855.831 26.4632 856.307 26.5542 856.836 26.5542C857.306 26.5542 857.72 26.4844 858.08 26.3447C858.44 26.2051 858.706 26.0146 858.88 25.7734C859.058 25.528 859.146 25.2614 859.146 24.9736C859.146 24.6816 859.062 24.4277 858.893 24.2119C858.723 23.9919 858.444 23.8078 858.055 23.6597C857.805 23.5623 857.253 23.4121 856.398 23.209C855.543 23.0016 854.944 22.807 854.602 22.625C854.157 22.3923 853.825 22.1045 853.605 21.7617C853.389 21.4147 853.281 21.0275 853.281 20.6001C853.281 20.1304 853.415 19.6924 853.681 19.2861C853.948 18.8757 854.337 18.5646 854.849 18.353C855.361 18.1414 855.93 18.0356 856.557 18.0356C857.246 18.0356 857.854 18.1478 858.378 18.3721C858.907 18.5921 859.314 18.918 859.597 19.3496C859.881 19.7812 860.033 20.27 860.054 20.8159L858.874 20.9048C858.81 20.3166 858.594 19.8722 858.226 19.5718C857.862 19.2713 857.323 19.1211 856.607 19.1211C855.863 19.1211 855.319 19.2586 854.976 19.5337C854.638 19.8045 854.468 20.1325 854.468 20.5176C854.468 20.8519 854.589 21.127 854.83 21.3428C855.067 21.5586 855.685 21.7808 856.684 22.0093C857.687 22.2336 858.374 22.4303 858.747 22.5996C859.288 22.8493 859.688 23.1667 859.946 23.5518C860.204 23.9326 860.333 24.3727 860.333 24.8721C860.333 25.3672 860.192 25.8348 859.908 26.2749C859.625 26.7108 859.216 27.0514 858.683 27.2969C858.154 27.5381 857.557 27.6587 856.893 27.6587C856.051 27.6587 855.344 27.536 854.773 27.2905C854.206 27.0451 853.759 26.6769 853.434 26.186C853.112 25.6909 852.943 25.1323 852.926 24.5103Z" fill="black"/>
<path d="M906.584 24.5103L907.746 24.4087C907.801 24.8742 907.928 25.2572 908.126 25.5576C908.33 25.8538 908.643 26.0951 909.066 26.2812C909.489 26.4632 909.965 26.5542 910.494 26.5542C910.964 26.5542 911.379 26.4844 911.738 26.3447C912.098 26.2051 912.365 26.0146 912.538 25.7734C912.716 25.528 912.805 25.2614 912.805 24.9736C912.805 24.6816 912.72 24.4277 912.551 24.2119C912.382 23.9919 912.102 23.8078 911.713 23.6597C911.463 23.5623 910.911 23.4121 910.056 23.209C909.201 23.0016 908.603 22.807 908.26 22.625C907.815 22.3923 907.483 22.1045 907.263 21.7617C907.047 21.4147 906.939 21.0275 906.939 20.6001C906.939 20.1304 907.073 19.6924 907.339 19.2861C907.606 18.8757 907.995 18.5646 908.507 18.353C909.019 18.1414 909.589 18.0356 910.215 18.0356C910.905 18.0356 911.512 18.1478 912.037 18.3721C912.566 18.5921 912.972 18.918 913.255 19.3496C913.539 19.7812 913.691 20.27 913.712 20.8159L912.532 20.9048C912.468 20.3166 912.252 19.8722 911.884 19.5718C911.52 19.2713 910.981 19.1211 910.266 19.1211C909.521 19.1211 908.977 19.2586 908.634 19.5337C908.296 19.8045 908.126 20.1325 908.126 20.5176C908.126 20.8519 908.247 21.127 908.488 21.3428C908.725 21.5586 909.343 21.7808 910.342 22.0093C911.345 22.2336 912.032 22.4303 912.405 22.5996C912.946 22.8493 913.346 23.1667 913.604 23.5518C913.863 23.9326 913.992 24.3727 913.992 24.8721C913.992 25.3672 913.85 25.8348 913.566 26.2749C913.283 26.7108 912.875 27.0514 912.341 27.2969C911.812 27.5381 911.216 27.6587 910.551 27.6587C909.709 27.6587 909.002 27.536 908.431 27.2905C907.864 27.0451 907.418 26.6769 907.092 26.186C906.77 25.6909 906.601 25.1323 906.584 24.5103ZM918.042 27.5V19.2925H914.976V18.1943H922.352V19.2925H919.273V27.5H918.042ZM923.005 22.9678C923.005 21.4232 923.42 20.215 924.25 19.3433C925.079 18.4673 926.15 18.0293 927.461 18.0293C928.32 18.0293 929.095 18.2345 929.785 18.645C930.474 19.0555 930.999 19.6289 931.359 20.3652C931.723 21.0973 931.905 21.9289 931.905 22.8599C931.905 23.8035 931.714 24.6478 931.333 25.3926C930.953 26.1374 930.413 26.7023 929.715 27.0874C929.017 27.4683 928.263 27.6587 927.455 27.6587C926.579 27.6587 925.796 27.4471 925.106 27.0239C924.417 26.6007 923.894 26.0231 923.539 25.291C923.183 24.5589 923.005 23.7845 923.005 22.9678ZM924.275 22.9868C924.275 24.1082 924.575 24.9927 925.176 25.6401C925.781 26.2834 926.539 26.605 927.449 26.605C928.375 26.605 929.137 26.2791 929.734 25.6274C930.335 24.9757 930.635 24.0511 930.635 22.8535C930.635 22.096 930.506 21.4359 930.248 20.873C929.994 20.306 929.62 19.868 929.125 19.5591C928.634 19.2459 928.081 19.0894 927.468 19.0894C926.596 19.0894 925.845 19.3898 925.214 19.9907C924.588 20.5874 924.275 21.5861 924.275 22.9868ZM933.517 27.5V18.1943H937.643C938.472 18.1943 939.103 18.279 939.535 18.4482C939.966 18.6133 940.311 18.9074 940.569 19.3306C940.827 19.7537 940.957 20.2214 940.957 20.7334C940.957 21.3936 940.743 21.95 940.315 22.4028C939.888 22.8556 939.228 23.1434 938.335 23.2661C938.661 23.4227 938.908 23.5771 939.078 23.7295C939.437 24.0596 939.778 24.4722 940.1 24.9673L941.718 27.5H940.169L938.938 25.564C938.578 25.0054 938.282 24.578 938.049 24.2817C937.817 23.9855 937.607 23.7782 937.421 23.6597C937.239 23.5412 937.053 23.4587 936.862 23.4121C936.723 23.3825 936.494 23.3677 936.177 23.3677H934.749V27.5H933.517ZM934.749 22.3013H937.396C937.958 22.3013 938.398 22.2441 938.716 22.1299C939.033 22.0114 939.274 21.8252 939.439 21.5713C939.604 21.3132 939.687 21.0339 939.687 20.7334C939.687 20.2933 939.526 19.9315 939.205 19.6479C938.887 19.3644 938.384 19.2227 937.694 19.2227H934.749V22.3013ZM943.102 27.5V18.1943H944.333V27.5H943.102ZM946.536 27.5V18.1943H953.265V19.2925H947.768V22.1426H952.916V23.2344H947.768V26.4019H953.48V27.5H946.536ZM954.763 24.5103L955.924 24.4087C955.979 24.8742 956.106 25.2572 956.305 25.5576C956.508 25.8538 956.821 26.0951 957.245 26.2812C957.668 26.4632 958.144 26.5542 958.673 26.5542C959.143 26.5542 959.557 26.4844 959.917 26.3447C960.277 26.2051 960.543 26.0146 960.717 25.7734C960.895 25.528 960.983 25.2614 960.983 24.9736C960.983 24.6816 960.899 24.4277 960.729 24.2119C960.56 23.9919 960.281 23.8078 959.892 23.6597C959.642 23.5623 959.09 23.4121 958.235 23.209C957.38 23.0016 956.781 22.807 956.438 22.625C955.994 22.3923 955.662 22.1045 955.442 21.7617C955.226 21.4147 955.118 21.0275 955.118 20.6001C955.118 20.1304 955.251 19.6924 955.518 19.2861C955.785 18.8757 956.174 18.5646 956.686 18.353C957.198 18.1414 957.767 18.0356 958.394 18.0356C959.083 18.0356 959.691 18.1478 960.215 18.3721C960.744 18.5921 961.151 18.918 961.434 19.3496C961.718 19.7812 961.87 20.27 961.891 20.8159L960.71 20.9048C960.647 20.3166 960.431 19.8722 960.063 19.5718C959.699 19.2713 959.16 19.1211 958.444 19.1211C957.7 19.1211 957.156 19.2586 956.813 19.5337C956.474 19.8045 956.305 20.1325 956.305 20.5176C956.305 20.8519 956.426 21.127 956.667 21.3428C956.904 21.5586 957.522 21.7808 958.521 22.0093C959.523 22.2336 960.211 22.4303 960.583 22.5996C961.125 22.8493 961.525 23.1667 961.783 23.5518C962.041 23.9326 962.17 24.3727 962.17 24.8721C962.17 25.3672 962.029 25.8348 961.745 26.2749C961.462 26.7108 961.053 27.0514 960.52 27.2969C959.991 27.5381 959.394 27.6587 958.73 27.6587C957.888 27.6587 957.181 27.536 956.61 27.2905C956.043 27.0451 955.596 26.6769 955.271 26.186C954.949 25.6909 954.78 25.1323 954.763 24.5103Z" fill="black"/>
<path d="M1309.58 24.5103L1310.75 24.4087C1310.8 24.8742 1310.93 25.2572 1311.13 25.5576C1311.33 25.8538 1311.64 26.0951 1312.07 26.2812C1312.49 26.4632 1312.97 26.5542 1313.49 26.5542C1313.96 26.5542 1314.38 26.4844 1314.74 26.3447C1315.1 26.2051 1315.36 26.0146 1315.54 25.7734C1315.72 25.528 1315.8 25.2614 1315.8 24.9736C1315.8 24.6816 1315.72 24.4277 1315.55 24.2119C1315.38 23.9919 1315.1 23.8078 1314.71 23.6597C1314.46 23.5623 1313.91 23.4121 1313.06 23.209C1312.2 23.0016 1311.6 22.807 1311.26 22.625C1310.82 22.3923 1310.48 22.1045 1310.26 21.7617C1310.05 21.4147 1309.94 21.0275 1309.94 20.6001C1309.94 20.1304 1310.07 19.6924 1310.34 19.2861C1310.61 18.8757 1311 18.5646 1311.51 18.353C1312.02 18.1414 1312.59 18.0356 1313.21 18.0356C1313.9 18.0356 1314.51 18.1478 1315.04 18.3721C1315.57 18.5921 1315.97 18.918 1316.26 19.3496C1316.54 19.7812 1316.69 20.27 1316.71 20.8159L1315.53 20.9048C1315.47 20.3166 1315.25 19.8722 1314.88 19.5718C1314.52 19.2713 1313.98 19.1211 1313.27 19.1211C1312.52 19.1211 1311.98 19.2586 1311.63 19.5337C1311.3 19.8045 1311.13 20.1325 1311.13 20.5176C1311.13 20.8519 1311.25 21.127 1311.49 21.3428C1311.73 21.5586 1312.34 21.7808 1313.34 22.0093C1314.34 22.2336 1315.03 22.4303 1315.4 22.5996C1315.95 22.8493 1316.35 23.1667 1316.6 23.5518C1316.86 23.9326 1316.99 24.3727 1316.99 24.8721C1316.99 25.3672 1316.85 25.8348 1316.57 26.2749C1316.28 26.7108 1315.87 27.0514 1315.34 27.2969C1314.81 27.5381 1314.22 27.6587 1313.55 27.6587C1312.71 27.6587 1312 27.536 1311.43 27.2905C1310.86 27.0451 1310.42 26.6769 1310.09 26.186C1309.77 25.6909 1309.6 25.1323 1309.58 24.5103ZM1318.88 27.5V18.1943H1320.11V27.5H1318.88ZM1326.65 23.8501V22.7583L1330.59 22.752V26.2051C1329.98 26.6875 1329.36 27.0514 1328.72 27.2969C1328.07 27.5381 1327.41 27.6587 1326.74 27.6587C1325.82 27.6587 1324.99 27.464 1324.24 27.0747C1323.5 26.6812 1322.93 26.1141 1322.55 25.3735C1322.17 24.633 1321.98 23.8057 1321.98 22.8916C1321.98 21.986 1322.17 21.1418 1322.55 20.3589C1322.93 19.5718 1323.47 18.9878 1324.18 18.6069C1324.89 18.2261 1325.71 18.0356 1326.64 18.0356C1327.31 18.0356 1327.92 18.1457 1328.46 18.3657C1329.01 18.5815 1329.44 18.8841 1329.74 19.2734C1330.05 19.6628 1330.29 20.1706 1330.45 20.7969L1329.34 21.1016C1329.2 20.6276 1329.02 20.2552 1328.82 19.9844C1328.61 19.7135 1328.31 19.4977 1327.93 19.3369C1327.54 19.1719 1327.12 19.0894 1326.65 19.0894C1326.08 19.0894 1325.6 19.1761 1325.19 19.3496C1324.78 19.5189 1324.44 19.7432 1324.19 20.0225C1323.94 20.3018 1323.75 20.6086 1323.61 20.9429C1323.37 21.5184 1323.25 22.1426 1323.25 22.8154C1323.25 23.6449 1323.39 24.3389 1323.68 24.8975C1323.96 25.4561 1324.38 25.8708 1324.93 26.1416C1325.47 26.4124 1326.05 26.5479 1326.67 26.5479C1327.2 26.5479 1327.72 26.4463 1328.23 26.2432C1328.73 26.0358 1329.12 25.8158 1329.38 25.583V23.8501H1326.65ZM1332.4 27.5V18.1943H1333.66L1338.55 25.5005V18.1943H1339.73V27.5H1338.47L1333.58 20.1875V27.5H1332.4ZM1345.63 27.5V18.1943H1346.86V27.5H1345.63ZM1349.03 27.5V18.1943H1350.29L1355.18 25.5005V18.1943H1356.36V27.5H1355.1L1350.21 20.1875V27.5H1349.03Z" fill="black"/>
<path d="M1393.33 21.5833V18.75C1393.33 17.9986 1393.03 17.2779 1392.5 16.7465C1391.97 16.2152 1391.25 15.9167 1390.5 15.9167C1389.75 15.9167 1389.03 16.2152 1388.5 16.7465C1387.97 17.2779 1387.67 17.9986 1387.67 18.75V21.5833M1384.12 19.4583V27.25C1384.12 28.0014 1384.42 28.7221 1384.95 29.2535C1385.49 29.7848 1386.21 30.0833 1386.96 30.0833H1394.04C1394.79 30.0833 1395.51 29.7848 1396.05 29.2535C1396.58 28.7221 1396.87 28.0014 1396.87 27.25V19.4583H1384.12Z" stroke="black" stroke-width="1.5" stroke-linecap="round" stroke-linejoin="round"/>
<path d="M43.3706 27V18.7925H40.3047V17.6943H47.6807V18.7925H44.6021V27H43.3706ZM48.9883 27V17.6943H50.2197V21.5156H55.0566V17.6943H56.2881V27H55.0566V22.6138H50.2197V27H48.9883ZM61.3726 24.207V23.0581H64.8828V24.207H61.3726ZM72.0366 27V18.7925H68.9707V17.6943H76.3467V18.7925H73.2681V27H72.0366ZM77.6543 27V17.6943H78.8857V21.5156H83.7227V17.6943H84.9541V27H83.7227V22.6138H78.8857V27H77.6543ZM86.96 27V17.6943H90.4512C91.1621 17.6943 91.7313 17.7896 92.1587 17.98C92.5903 18.1662 92.9268 18.4561 93.168 18.8496C93.4134 19.2389 93.5361 19.6473 93.5361 20.0747C93.5361 20.4725 93.4282 20.847 93.2124 21.1982C92.9966 21.5495 92.6707 21.833 92.2349 22.0488C92.7977 22.2139 93.2293 22.4953 93.5298 22.8931C93.8345 23.2909 93.9868 23.7606 93.9868 24.3022C93.9868 24.7381 93.8937 25.1444 93.7075 25.521C93.5256 25.8934 93.2992 26.1812 93.0283 26.3843C92.7575 26.5874 92.4168 26.7419 92.0063 26.8477C91.6001 26.9492 91.1007 27 90.5083 27H86.96ZM88.1914 21.6045H90.2036C90.7495 21.6045 91.141 21.5685 91.3779 21.4966C91.6911 21.4035 91.9259 21.249 92.0825 21.0332C92.2433 20.8174 92.3237 20.5465 92.3237 20.2207C92.3237 19.9118 92.2497 19.641 92.1016 19.4082C91.9535 19.1712 91.7419 19.0104 91.4668 18.9258C91.1917 18.8369 90.7199 18.7925 90.0513 18.7925H88.1914V21.6045ZM88.1914 25.9019H90.5083C90.9061 25.9019 91.1854 25.887 91.3462 25.8574C91.6297 25.8066 91.8667 25.722 92.0571 25.6035C92.2476 25.485 92.4041 25.3136 92.5269 25.0894C92.6496 24.8608 92.7109 24.5985 92.7109 24.3022C92.7109 23.9552 92.6221 23.6548 92.4443 23.4009C92.2666 23.1427 92.019 22.9629 91.7017 22.8613C91.3885 22.7555 90.9357 22.7026 90.3433 22.7026H88.1914V25.9019Z" fill="black"/>
<path d="M104.5 25L101.469 21.25H107.531L104.5 25Z" fill="black"/>
</svg>
