<svg width="93" height="36" viewBox="0 0 93 36" fill="none" xmlns="http://www.w3.org/2000/svg">
<path d="M14.0845 25L10.3388 11.9091H13.3622L15.5291 21.005H15.6378L18.0284 11.9091H20.6172L23.0014 21.0241H23.1165L25.2834 11.9091H28.3068L24.5611 25H21.8636L19.3707 16.4411H19.2685L16.782 25H14.0845ZM41.0797 18.4545C41.0797 19.8821 40.8091 21.0966 40.2679 22.098C39.731 23.0994 38.998 23.8643 38.0691 24.3928C37.1444 24.9169 36.1046 25.179 34.9498 25.179C33.7864 25.179 32.7424 24.9148 31.8176 24.3864C30.8929 23.858 30.1621 23.093 29.6252 22.0916C29.0882 21.0902 28.8198 19.8778 28.8198 18.4545C28.8198 17.027 29.0882 15.8125 29.6252 14.8111C30.1621 13.8097 30.8929 13.0469 31.8176 12.5227C32.7424 11.9943 33.7864 11.7301 34.9498 11.7301C36.1046 11.7301 37.1444 11.9943 38.0691 12.5227C38.998 13.0469 39.731 13.8097 40.2679 14.8111C40.8091 15.8125 41.0797 17.027 41.0797 18.4545ZM38.2736 18.4545C38.2736 17.5298 38.1351 16.75 37.8581 16.1151C37.5854 15.4801 37.1998 14.9986 36.7012 14.6705C36.2026 14.3423 35.6188 14.1783 34.9498 14.1783C34.2807 14.1783 33.6969 14.3423 33.1983 14.6705C32.6998 14.9986 32.312 15.4801 32.035 16.1151C31.7623 16.75 31.6259 17.5298 31.6259 18.4545C31.6259 19.3793 31.7623 20.1591 32.035 20.794C32.312 21.429 32.6998 21.9105 33.1983 22.2386C33.6969 22.5668 34.2807 22.7308 34.9498 22.7308C35.6188 22.7308 36.2026 22.5668 36.7012 22.2386C37.1998 21.9105 37.5854 21.429 37.8581 20.794C38.1351 20.1591 38.2736 19.3793 38.2736 18.4545ZM43.13 11.9091H46.5433L50.1484 20.7045H50.3018L53.907 11.9091H57.3203V25H54.6357V16.4794H54.527L51.1392 24.9361H49.3111L45.9233 16.4474H45.8146V25H43.13V11.9091ZM59.6007 25V11.9091H68.4217V14.1911H62.3684V17.3104H67.9679V19.5923H62.3684V22.718H68.4473V25H59.6007ZM81.5717 11.9091V25H79.1811L73.4858 16.7607H73.3899V25H70.6222V11.9091H73.0511L78.7017 20.142H78.8168V11.9091H81.5717Z" fill="black"/>
</svg>
