<svg width="43" height="15" viewBox="0 0 43 15" fill="none" xmlns="http://www.w3.org/2000/svg">
<path d="M2.64205 12L0.255682 3.27273H1.32955L3.15341 10.3807H3.23864L5.09659 3.27273H6.28977L8.14773 10.3807H8.23295L10.0568 3.27273H11.1307L8.74432 12H7.65341L5.72727 5.04545H5.65909L3.73295 12H2.64205ZM14.3608 12.1364C13.7699 12.1364 13.2514 11.9957 12.8054 11.7145C12.3622 11.4332 12.0156 11.0398 11.7656 10.5341C11.5185 10.0284 11.3949 9.4375 11.3949 8.76136C11.3949 8.07955 11.5185 7.48437 11.7656 6.97585C12.0156 6.46733 12.3622 6.07244 12.8054 5.79119C13.2514 5.50994 13.7699 5.36932 14.3608 5.36932C14.9517 5.36932 15.4688 5.50994 15.9119 5.79119C16.358 6.07244 16.7045 6.46733 16.9517 6.97585C17.2017 7.48437 17.3267 8.07955 17.3267 8.76136C17.3267 9.4375 17.2017 10.0284 16.9517 10.5341C16.7045 11.0398 16.358 11.4332 15.9119 11.7145C15.4688 11.9957 14.9517 12.1364 14.3608 12.1364ZM14.3608 11.233C14.8097 11.233 15.179 11.1179 15.4688 10.8878C15.7585 10.6577 15.973 10.3551 16.1122 9.98011C16.2514 9.60511 16.321 9.19886 16.321 8.76136C16.321 8.32386 16.2514 7.91619 16.1122 7.53835C15.973 7.16051 15.7585 6.85511 15.4688 6.62216C15.179 6.3892 14.8097 6.27273 14.3608 6.27273C13.9119 6.27273 13.5426 6.3892 13.2528 6.62216C12.9631 6.85511 12.7486 7.16051 12.6094 7.53835C12.4702 7.91619 12.4006 8.32386 12.4006 8.76136C12.4006 9.19886 12.4702 9.60511 12.6094 9.98011C12.7486 10.3551 12.9631 10.6577 13.2528 10.8878C13.5426 11.1179 13.9119 11.233 14.3608 11.233ZM18.8619 12V5.45455H19.8335V6.47727H19.9187C20.055 6.12784 20.2752 5.85653 20.5792 5.66335C20.8832 5.46733 21.2482 5.36932 21.6744 5.36932C22.1062 5.36932 22.4656 5.46733 22.7525 5.66335C23.0423 5.85653 23.2681 6.12784 23.43 6.47727H23.4982C23.6658 6.1392 23.9173 5.87074 24.2525 5.67188C24.5877 5.47017 24.9897 5.36932 25.4585 5.36932C26.0437 5.36932 26.5224 5.55256 26.8945 5.91903C27.2667 6.28267 27.4528 6.84943 27.4528 7.61932V12H26.4471V7.61932C26.4471 7.13636 26.315 6.79119 26.0508 6.58381C25.7866 6.37642 25.4755 6.27273 25.1175 6.27273C24.6573 6.27273 24.3008 6.41193 24.0479 6.69034C23.7951 6.96591 23.6687 7.31534 23.6687 7.73864V12H22.646V7.51705C22.646 7.14489 22.5252 6.84517 22.2837 6.6179C22.0423 6.38778 21.7312 6.27273 21.3505 6.27273C21.0891 6.27273 20.8448 6.34233 20.6175 6.48153C20.3931 6.62074 20.2113 6.81392 20.0721 7.06108C19.9357 7.3054 19.8675 7.58807 19.8675 7.90909V12H18.8619ZM32.0359 12.1364C31.4052 12.1364 30.8612 11.9972 30.4038 11.7188C29.9492 11.4375 29.5984 11.0455 29.3512 10.5426C29.1069 10.0369 28.9847 9.44886 28.9847 8.77841C28.9847 8.10795 29.1069 7.51705 29.3512 7.00568C29.5984 6.49148 29.9421 6.09091 30.3825 5.80398C30.8256 5.5142 31.3427 5.36932 31.9336 5.36932C32.2745 5.36932 32.6112 5.42614 32.9435 5.53977C33.2759 5.65341 33.5785 5.83807 33.8512 6.09375C34.1239 6.34659 34.3413 6.68182 34.5032 7.09943C34.6651 7.51705 34.7461 8.03125 34.7461 8.64205V9.06818H29.7006V8.19886H33.7234C33.7234 7.82955 33.6495 7.5 33.5018 7.21023C33.3569 6.92045 33.1495 6.69176 32.8796 6.52415C32.6126 6.35653 32.2972 6.27273 31.9336 6.27273C31.533 6.27273 31.1864 6.37216 30.8938 6.57102C30.604 6.76705 30.381 7.02273 30.2248 7.33807C30.0685 7.65341 29.9904 7.99148 29.9904 8.35227V8.93182C29.9904 9.42614 30.0756 9.84517 30.2461 10.1889C30.4194 10.5298 30.6594 10.7898 30.9663 10.9688C31.2731 11.1449 31.6296 11.233 32.0359 11.233C32.3001 11.233 32.5387 11.196 32.7518 11.1222C32.9677 11.0455 33.1538 10.9318 33.31 10.7812C33.4663 10.6278 33.587 10.4375 33.6722 10.2102L34.6438 10.483C34.5415 10.8125 34.3697 11.1023 34.1282 11.3523C33.8867 11.5994 33.5884 11.7926 33.2333 11.9318C32.8782 12.0682 32.479 12.1364 32.0359 12.1364ZM37.2816 8.0625V12H36.2759V5.45455H37.2475V6.47727H37.3327C37.4862 6.14489 37.7191 5.87784 38.0316 5.67614C38.3441 5.47159 38.7475 5.36932 39.2418 5.36932C39.685 5.36932 40.0728 5.46023 40.4052 5.64205C40.7376 5.82102 40.9961 6.09375 41.1808 6.46023C41.3654 6.82386 41.4577 7.28409 41.4577 7.84091V12H40.4521V7.90909C40.4521 7.39489 40.3185 6.99432 40.0515 6.70739C39.7844 6.41761 39.418 6.27273 38.9521 6.27273C38.631 6.27273 38.3441 6.34233 38.0913 6.48153C37.8413 6.62074 37.6438 6.82386 37.4989 7.09091C37.354 7.35795 37.2816 7.68182 37.2816 8.0625Z" fill="black" fill-opacity="0.5"/>
</svg>
