<svg width="1402" height="215" viewBox="0 0 1402 215" fill="none" xmlns="http://www.w3.org/2000/svg">
<g style="mix-blend-mode:difference">
<path d="M1360.37 171.887C1360.37 168.664 1358.96 166.087 1356.12 164.153C1353.29 162.091 1348.65 160.609 1342.2 159.707L1317.45 156.033C1298.38 153.069 1284.46 148.107 1275.69 141.147C1267.06 134.187 1262.74 124.649 1262.74 112.533C1262.74 99.1289 1268.8 88.6889 1280.91 81.2133C1293.16 73.7378 1309.98 70 1331.37 70C1370.94 70 1393.11 83.8556 1397.88 111.567L1358.25 115.433C1356.19 109.762 1352.96 105.702 1348.58 103.253C1344.2 100.676 1338.01 99.3867 1330.02 99.3867C1321.51 99.3867 1314.94 100.418 1310.3 102.48C1305.79 104.542 1303.53 107.507 1303.53 111.373C1303.53 114.596 1304.76 117.044 1307.21 118.72C1309.66 120.396 1314.17 121.749 1320.74 122.78L1350.9 127.613C1368.82 130.449 1381.77 135.282 1389.76 142.113C1397.75 148.816 1401.75 158.289 1401.75 170.533C1401.75 185.227 1395.82 196.311 1383.96 203.787C1372.1 211.262 1354.64 215 1331.57 215C1286.2 215 1262.03 198.889 1259.07 166.667H1300.05C1302.5 179.298 1313.07 185.613 1331.76 185.613C1350.84 185.613 1360.37 181.038 1360.37 171.887Z" fill="white"/>
<path d="M1125.74 211.52H1083.4L1143.34 73.4801H1192.06L1251.99 211.52H1208.68L1198.44 186.387H1135.41L1125.74 211.52ZM1167.12 104.993L1147.4 155.453H1186.84L1167.12 104.993Z" fill="white"/>
<path d="M920.223 73.4801H957.343L1026.36 156.42V73.4801H1065.8V211.52H1028.68L959.663 128.58V211.52H920.223V73.4801Z" fill="white"/>
<path d="M776.46 211.52H734.12L794.053 73.4801H842.773L902.707 211.52H859.4L849.153 186.387H786.127L776.46 211.52ZM817.833 104.993L798.113 155.453H837.553L817.833 104.993Z" fill="white"/>
<path d="M539.975 73.4801H587.148L628.715 166.86L670.088 73.4801H716.295V211.52H678.015V131.093L643.021 211.52H612.475L577.675 131.48V211.52H539.975V73.4801Z" fill="white"/>
<path d="M466.908 73.4801H508.668V211.52H466.908V73.4801Z" fill="white"/>
<path d="M323.146 211.52H280.806L340.739 73.4801H389.459L449.392 211.52H406.086L395.839 186.387H332.812L323.146 211.52ZM364.519 104.993L344.799 155.453H384.239L364.519 104.993Z" fill="white"/>
<path d="M154.063 73.4801H195.823V177.687H274.316L270.063 211.52H154.063V73.4801Z" fill="white"/>
<path d="M0 73.4801H68.6333C110.007 73.4801 130.693 89.3979 130.693 121.233C130.693 137.602 125.344 149.718 114.647 157.58C104.078 165.313 87.9667 169.18 66.3133 169.18H40.4067V211.52H0V73.4801ZM90.0933 121.04C90.0933 115.111 88.16 110.858 84.2933 108.28C80.4267 105.702 74.3044 104.413 65.9267 104.413H40.4067V138.247H65.54C73.9178 138.247 80.1044 136.958 84.1 134.38C88.0956 131.802 90.0933 127.356 90.0933 121.04Z" fill="white"/>
</g>
</svg>
