<svg width="390" height="844" viewBox="0 0 390 844" fill="none" xmlns="http://www.w3.org/2000/svg">
<g clip-path="url(#clip0_14_547)">
<rect width="390" height="844" fill="white"/>
<path d="M371.894 767.404C371.894 766.537 371.512 765.844 370.75 765.324C369.987 764.769 368.739 764.371 367.006 764.128L360.35 763.14C355.219 762.343 351.475 761.008 349.118 759.136C346.795 757.264 345.634 754.699 345.634 751.44C345.634 747.835 347.263 745.027 350.522 743.016C353.815 741.005 358.339 740 364.094 740C374.736 740 380.699 743.727 381.982 751.18L371.321 752.22C370.767 750.695 369.9 749.603 368.722 748.944C367.543 748.251 365.879 747.904 363.73 747.904C361.442 747.904 359.674 748.181 358.426 748.736C357.212 749.291 356.606 750.088 356.606 751.128C356.606 751.995 356.935 752.653 357.594 753.104C358.252 753.555 359.466 753.919 361.234 754.196L369.346 755.496C374.164 756.259 377.648 757.559 379.798 759.396C381.947 761.199 383.022 763.747 383.022 767.04C383.022 770.992 381.427 773.973 378.238 775.984C375.048 777.995 370.351 779 364.146 779C351.943 779 345.443 774.667 344.646 766H355.67C356.328 769.397 359.171 771.096 364.198 771.096C369.328 771.096 371.894 769.865 371.894 767.404Z" fill="black"/>
<path d="M308.786 778.064H297.398L313.518 740.936H326.622L342.742 778.064H331.094L328.338 771.304H311.386L308.786 778.064ZM319.914 749.412L314.61 762.984H325.218L319.914 749.412Z" fill="black"/>
<path d="M253.508 740.936H263.492L282.056 763.244V740.936H292.664V778.064H282.68L264.116 755.756V778.064H253.508V740.936Z" fill="black"/>
<path d="M214.841 778.064H203.453L219.573 740.936H232.677L248.797 778.064H237.149L234.393 771.304H217.441L214.841 778.064ZM225.969 749.412L220.665 762.984H231.273L225.969 749.412Z" fill="black"/>
<path d="M151.234 740.936H163.922L175.102 766.052L186.23 740.936H198.658V778.064H188.362V756.432L178.95 778.064H170.734L161.374 756.536V778.064H151.234V740.936Z" fill="black"/>
<path d="M131.582 740.936H142.814V778.064H131.582V740.936Z" fill="black"/>
<path d="M92.9149 778.064H81.5269L97.6469 740.936H110.751L126.871 778.064H115.223L112.467 771.304H95.5149L92.9149 778.064ZM104.043 749.412L98.7389 762.984H109.347L104.043 749.412Z" fill="black"/>
<path d="M47.4375 740.936H58.6695V768.964H79.7815L78.6375 778.064H47.4375V740.936Z" fill="black"/>
<path d="M6 740.936H24.46C35.588 740.936 41.152 745.217 41.152 753.78C41.152 758.183 39.7133 761.441 36.836 763.556C33.9933 765.636 29.66 766.676 23.836 766.676H16.868V778.064H6V740.936ZM30.232 753.728C30.232 752.133 29.712 750.989 28.672 750.296C27.632 749.603 25.9853 749.256 23.732 749.256H16.868V758.356H23.628C25.8813 758.356 27.5453 758.009 28.62 757.316C29.6947 756.623 30.232 755.427 30.232 753.728Z" fill="black"/>
<path d="M171.628 139L169.159 129.694H170.422L171.837 135.794C171.99 136.433 172.121 137.068 172.231 137.699C172.468 136.704 172.608 136.131 172.65 135.979L174.421 129.694H175.906L177.239 134.404C177.574 135.572 177.815 136.67 177.963 137.699C178.081 137.111 178.236 136.436 178.426 135.674L179.886 129.694H181.124L178.572 139H177.385L175.424 131.91C175.259 131.317 175.161 130.953 175.132 130.818C175.035 131.245 174.944 131.609 174.859 131.91L172.885 139H171.628ZM181.905 134.468C181.905 132.923 182.319 131.715 183.149 130.843C183.978 129.967 185.049 129.529 186.361 129.529C187.22 129.529 187.994 129.735 188.684 130.145C189.374 130.556 189.899 131.129 190.258 131.865C190.622 132.597 190.804 133.429 190.804 134.36C190.804 135.304 190.614 136.148 190.233 136.893C189.852 137.637 189.312 138.202 188.614 138.587C187.916 138.968 187.163 139.159 186.354 139.159C185.479 139.159 184.696 138.947 184.006 138.524C183.316 138.101 182.793 137.523 182.438 136.791C182.083 136.059 181.905 135.285 181.905 134.468ZM183.174 134.487C183.174 135.608 183.475 136.493 184.076 137.14C184.681 137.783 185.438 138.105 186.348 138.105C187.275 138.105 188.037 137.779 188.633 137.127C189.234 136.476 189.535 135.551 189.535 134.354C189.535 133.596 189.406 132.936 189.147 132.373C188.894 131.806 188.519 131.368 188.024 131.059C187.533 130.746 186.981 130.589 186.367 130.589C185.495 130.589 184.744 130.89 184.114 131.491C183.487 132.087 183.174 133.086 183.174 134.487ZM192.359 139V129.694H194.213L196.416 136.283C196.619 136.897 196.767 137.356 196.86 137.661C196.966 137.322 197.131 136.825 197.355 136.169L199.583 129.694H201.24V139H200.053V131.211L197.349 139H196.238L193.546 131.078V139H192.359ZM203.252 139V129.694H209.98V130.792H204.483V133.643H209.631V134.734H204.483V137.902H210.196V139H203.252ZM211.885 139V129.694H213.148L218.036 137V129.694H219.216V139H217.953L213.065 131.688V139H211.885Z" fill="black"/>
<path d="M156.643 171.737L157.874 172.048C157.616 173.06 157.15 173.832 156.478 174.365C155.809 174.894 154.99 175.159 154.021 175.159C153.018 175.159 152.201 174.956 151.571 174.549C150.944 174.139 150.466 173.546 150.136 172.772C149.81 171.998 149.647 171.166 149.647 170.277C149.647 169.308 149.832 168.464 150.2 167.745C150.572 167.021 151.099 166.473 151.78 166.101C152.466 165.724 153.219 165.536 154.04 165.536C154.971 165.536 155.754 165.773 156.389 166.247C157.023 166.721 157.466 167.387 157.715 168.246L156.503 168.532C156.287 167.855 155.974 167.362 155.563 167.053C155.153 166.744 154.637 166.589 154.015 166.589C153.299 166.589 152.701 166.761 152.218 167.104C151.74 167.446 151.404 167.908 151.209 168.487C151.014 169.063 150.917 169.657 150.917 170.271C150.917 171.062 151.031 171.754 151.26 172.347C151.493 172.935 151.852 173.375 152.339 173.667C152.826 173.959 153.352 174.105 153.919 174.105C154.609 174.105 155.193 173.906 155.671 173.508C156.15 173.111 156.473 172.52 156.643 171.737ZM159.023 170.468C159.023 168.923 159.438 167.715 160.267 166.843C161.097 165.967 162.167 165.529 163.479 165.529C164.338 165.529 165.112 165.735 165.802 166.145C166.492 166.556 167.017 167.129 167.376 167.865C167.74 168.597 167.922 169.429 167.922 170.36C167.922 171.304 167.732 172.148 167.351 172.893C166.97 173.637 166.431 174.202 165.732 174.587C165.034 174.968 164.281 175.159 163.473 175.159C162.597 175.159 161.814 174.947 161.124 174.524C160.434 174.101 159.912 173.523 159.556 172.791C159.201 172.059 159.023 171.285 159.023 170.468ZM160.292 170.487C160.292 171.608 160.593 172.493 161.194 173.14C161.799 173.783 162.556 174.105 163.466 174.105C164.393 174.105 165.155 173.779 165.751 173.127C166.352 172.476 166.653 171.551 166.653 170.354C166.653 169.596 166.524 168.936 166.266 168.373C166.012 167.806 165.637 167.368 165.142 167.059C164.651 166.746 164.099 166.589 163.485 166.589C162.614 166.589 161.862 166.89 161.232 167.491C160.606 168.087 160.292 169.086 160.292 170.487ZM169.465 175V165.694H170.696V173.902H175.279V175H169.465ZM176.701 175V165.694H177.933V173.902H182.516V175H176.701ZM184.014 175V165.694H190.742V166.792H185.245V169.643H190.393V170.734H185.245V173.902H190.958V175H184.014ZM199.299 171.737L200.53 172.048C200.272 173.06 199.807 173.832 199.134 174.365C198.465 174.894 197.646 175.159 196.677 175.159C195.674 175.159 194.858 174.956 194.227 174.549C193.601 174.139 193.123 173.546 192.792 172.772C192.467 171.998 192.304 171.166 192.304 170.277C192.304 169.308 192.488 168.464 192.856 167.745C193.228 167.021 193.755 166.473 194.437 166.101C195.122 165.724 195.875 165.536 196.696 165.536C197.627 165.536 198.41 165.773 199.045 166.247C199.68 166.721 200.122 167.387 200.372 168.246L199.159 168.532C198.943 167.855 198.63 167.362 198.22 167.053C197.809 166.744 197.293 166.589 196.671 166.589C195.956 166.589 195.357 166.761 194.875 167.104C194.396 167.446 194.06 167.908 193.865 168.487C193.671 169.063 193.573 169.657 193.573 170.271C193.573 171.062 193.688 171.754 193.916 172.347C194.149 172.935 194.508 173.375 194.995 173.667C195.482 173.959 196.009 174.105 196.576 174.105C197.265 174.105 197.849 173.906 198.328 173.508C198.806 173.111 199.13 172.52 199.299 171.737ZM204.421 175V166.792H201.355V165.694H208.731V166.792H205.653V175H204.421ZM210.21 175V165.694H211.442V175H210.21ZM213.245 170.468C213.245 168.923 213.659 167.715 214.489 166.843C215.318 165.967 216.389 165.529 217.701 165.529C218.56 165.529 219.334 165.735 220.024 166.145C220.714 166.556 221.238 167.129 221.598 167.865C221.962 168.597 222.144 169.429 222.144 170.36C222.144 171.304 221.954 172.148 221.573 172.893C221.192 173.637 220.652 174.202 219.954 174.587C219.256 174.968 218.503 175.159 217.694 175.159C216.818 175.159 216.035 174.947 215.346 174.524C214.656 174.101 214.133 173.523 213.778 172.791C213.422 172.059 213.245 171.285 213.245 170.468ZM214.514 170.487C214.514 171.608 214.815 172.493 215.416 173.14C216.021 173.783 216.778 174.105 217.688 174.105C218.615 174.105 219.376 173.779 219.973 173.127C220.574 172.476 220.875 171.551 220.875 170.354C220.875 169.596 220.745 168.936 220.487 168.373C220.233 167.806 219.859 167.368 219.364 167.059C218.873 166.746 218.321 166.589 217.707 166.589C216.835 166.589 216.084 166.89 215.454 167.491C214.827 168.087 214.514 169.086 214.514 170.487ZM223.725 175V165.694H224.988L229.875 173V165.694H231.056V175H229.793L224.905 167.688V175H223.725ZM232.713 172.01L233.875 171.909C233.93 172.374 234.056 172.757 234.255 173.058C234.458 173.354 234.772 173.595 235.195 173.781C235.618 173.963 236.094 174.054 236.623 174.054C237.093 174.054 237.507 173.984 237.867 173.845C238.227 173.705 238.493 173.515 238.667 173.273C238.845 173.028 238.934 172.761 238.934 172.474C238.934 172.182 238.849 171.928 238.68 171.712C238.51 171.492 238.231 171.308 237.842 171.16C237.592 171.062 237.04 170.912 236.185 170.709C235.33 170.502 234.731 170.307 234.389 170.125C233.944 169.892 233.612 169.604 233.392 169.262C233.176 168.915 233.068 168.528 233.068 168.1C233.068 167.63 233.202 167.192 233.468 166.786C233.735 166.376 234.124 166.065 234.636 165.853C235.148 165.641 235.717 165.536 236.344 165.536C237.034 165.536 237.641 165.648 238.166 165.872C238.694 166.092 239.101 166.418 239.384 166.85C239.668 167.281 239.82 167.77 239.841 168.316L238.661 168.405C238.597 167.817 238.381 167.372 238.013 167.072C237.649 166.771 237.11 166.621 236.395 166.621C235.65 166.621 235.106 166.759 234.763 167.034C234.425 167.305 234.255 167.632 234.255 168.018C234.255 168.352 234.376 168.627 234.617 168.843C234.854 169.059 235.472 169.281 236.471 169.509C237.474 169.734 238.161 169.93 238.534 170.1C239.075 170.349 239.475 170.667 239.733 171.052C239.992 171.433 240.121 171.873 240.121 172.372C240.121 172.867 239.979 173.335 239.695 173.775C239.412 174.211 239.003 174.551 238.47 174.797C237.941 175.038 237.345 175.159 236.68 175.159C235.838 175.159 235.131 175.036 234.56 174.791C233.993 174.545 233.547 174.177 233.221 173.686C232.899 173.191 232.73 172.632 232.713 172.01Z" fill="black"/>
<path d="M125.246 219.5V202.32H137.984V205.227H128.715V209.035H137.34V211.93H128.715V216.605H138.312V219.5H125.246ZM141.242 202.32H147.582C149.012 202.32 150.102 202.43 150.852 202.648C151.859 202.945 152.723 203.473 153.441 204.23C154.16 204.988 154.707 205.918 155.082 207.02C155.457 208.113 155.645 209.465 155.645 211.074C155.645 212.488 155.469 213.707 155.117 214.73C154.688 215.98 154.074 216.992 153.277 217.766C152.676 218.352 151.863 218.809 150.84 219.137C150.074 219.379 149.051 219.5 147.77 219.5H141.242V202.32ZM144.711 205.227V216.605H147.301C148.27 216.605 148.969 216.551 149.398 216.441C149.961 216.301 150.426 216.062 150.793 215.727C151.168 215.391 151.473 214.84 151.707 214.074C151.941 213.301 152.059 212.25 152.059 210.922C152.059 209.594 151.941 208.574 151.707 207.863C151.473 207.152 151.145 206.598 150.723 206.199C150.301 205.801 149.766 205.531 149.117 205.391C148.633 205.281 147.684 205.227 146.27 205.227H144.711ZM158.492 219.5V202.32H161.961V219.5H158.492ZM169.145 219.5V205.227H164.047V202.32H177.699V205.227H172.613V219.5H169.145ZM178.801 211.016C178.801 209.266 179.062 207.797 179.586 206.609C179.977 205.734 180.508 204.949 181.18 204.254C181.859 203.559 182.602 203.043 183.406 202.707C184.477 202.254 185.711 202.027 187.109 202.027C189.641 202.027 191.664 202.812 193.18 204.383C194.703 205.953 195.465 208.137 195.465 210.934C195.465 213.707 194.711 215.879 193.203 217.449C191.695 219.012 189.68 219.793 187.156 219.793C184.602 219.793 182.57 219.016 181.062 217.461C179.555 215.898 178.801 213.75 178.801 211.016ZM182.375 210.898C182.375 212.844 182.824 214.32 183.723 215.328C184.621 216.328 185.762 216.828 187.145 216.828C188.527 216.828 189.66 216.332 190.543 215.34C191.434 214.34 191.879 212.844 191.879 210.852C191.879 208.883 191.445 207.414 190.578 206.445C189.719 205.477 188.574 204.992 187.145 204.992C185.715 204.992 184.562 205.484 183.688 206.469C182.812 207.445 182.375 208.922 182.375 210.898ZM198.195 219.5V202.32H205.496C207.332 202.32 208.664 202.477 209.492 202.789C210.328 203.094 210.996 203.641 211.496 204.43C211.996 205.219 212.246 206.121 212.246 207.137C212.246 208.426 211.867 209.492 211.109 210.336C210.352 211.172 209.219 211.699 207.711 211.918C208.461 212.355 209.078 212.836 209.562 213.359C210.055 213.883 210.715 214.812 211.543 216.148L213.641 219.5H209.492L206.984 215.762C206.094 214.426 205.484 213.586 205.156 213.242C204.828 212.891 204.48 212.652 204.113 212.527C203.746 212.395 203.164 212.328 202.367 212.328H201.664V219.5H198.195ZM201.664 209.586H204.23C205.895 209.586 206.934 209.516 207.348 209.375C207.762 209.234 208.086 208.992 208.32 208.648C208.555 208.305 208.672 207.875 208.672 207.359C208.672 206.781 208.516 206.316 208.203 205.965C207.898 205.605 207.465 205.379 206.902 205.285C206.621 205.246 205.777 205.227 204.371 205.227H201.664V209.586ZM215.422 219.5V202.32H218.891V219.5H215.422ZM237.699 219.5H233.926L232.426 215.598H225.559L224.141 219.5H220.461L227.152 202.32H230.82L237.699 219.5ZM231.312 212.703L228.945 206.328L226.625 212.703H231.312ZM239.645 219.5V202.461H243.113V216.605H251.738V219.5H239.645Z" fill="black"/>
<path d="M261.5 215.5L265.83 209.5H257.17L261.5 215.5Z" fill="black"/>
<path d="M177.981 252.5L181.555 243.194H182.881L186.69 252.5H185.287L184.202 249.682H180.311L179.289 252.5H177.981ZM180.666 248.679H183.821L182.85 246.102C182.553 245.319 182.333 244.675 182.189 244.172C182.071 244.769 181.904 245.361 181.688 245.949L180.666 248.679ZM187.852 252.5V251.199H189.153V252.5H187.852ZM190.873 249.51L192.035 249.409C192.09 249.874 192.217 250.257 192.416 250.558C192.619 250.854 192.932 251.095 193.355 251.281C193.778 251.463 194.254 251.554 194.783 251.554C195.253 251.554 195.668 251.484 196.027 251.345C196.387 251.205 196.654 251.015 196.827 250.773C197.005 250.528 197.094 250.261 197.094 249.974C197.094 249.682 197.009 249.428 196.84 249.212C196.671 248.992 196.391 248.808 196.002 248.66C195.752 248.562 195.2 248.412 194.345 248.209C193.49 248.002 192.892 247.807 192.549 247.625C192.104 247.392 191.772 247.104 191.552 246.762C191.336 246.415 191.229 246.028 191.229 245.6C191.229 245.13 191.362 244.692 191.628 244.286C191.895 243.876 192.284 243.565 192.796 243.353C193.308 243.141 193.878 243.036 194.504 243.036C195.194 243.036 195.801 243.148 196.326 243.372C196.855 243.592 197.261 243.918 197.544 244.35C197.828 244.781 197.98 245.27 198.001 245.816L196.821 245.905C196.757 245.317 196.542 244.872 196.173 244.572C195.809 244.271 195.27 244.121 194.555 244.121C193.81 244.121 193.266 244.259 192.923 244.534C192.585 244.805 192.416 245.132 192.416 245.518C192.416 245.852 192.536 246.127 192.777 246.343C193.014 246.559 193.632 246.781 194.631 247.009C195.634 247.234 196.321 247.43 196.694 247.6C197.236 247.849 197.635 248.167 197.894 248.552C198.152 248.933 198.281 249.373 198.281 249.872C198.281 250.367 198.139 250.835 197.855 251.275C197.572 251.711 197.164 252.051 196.63 252.297C196.101 252.538 195.505 252.659 194.84 252.659C193.998 252.659 193.292 252.536 192.72 252.291C192.153 252.045 191.707 251.677 191.381 251.186C191.059 250.691 190.89 250.132 190.873 249.51ZM200.141 252.5V251.199H201.442V252.5H200.141ZM210.221 249.237L211.452 249.548C211.194 250.56 210.729 251.332 210.056 251.865C209.387 252.394 208.568 252.659 207.599 252.659C206.596 252.659 205.779 252.456 205.149 252.049C204.523 251.639 204.044 251.046 203.714 250.272C203.389 249.498 203.226 248.666 203.226 247.777C203.226 246.808 203.41 245.964 203.778 245.245C204.15 244.521 204.677 243.973 205.358 243.601C206.044 243.224 206.797 243.036 207.618 243.036C208.549 243.036 209.332 243.273 209.967 243.747C210.602 244.221 211.044 244.887 211.293 245.746L210.081 246.032C209.865 245.355 209.552 244.862 209.142 244.553C208.731 244.244 208.215 244.089 207.593 244.089C206.878 244.089 206.279 244.261 205.796 244.604C205.318 244.946 204.982 245.408 204.787 245.987C204.592 246.563 204.495 247.157 204.495 247.771C204.495 248.562 204.609 249.254 204.838 249.847C205.071 250.435 205.43 250.875 205.917 251.167C206.404 251.459 206.931 251.605 207.498 251.605C208.187 251.605 208.771 251.406 209.25 251.008C209.728 250.611 210.051 250.02 210.221 249.237Z" fill="black"/>
<path d="M169.452 282.5V273.194H172.943C173.654 273.194 174.223 273.29 174.651 273.48C175.083 273.666 175.419 273.956 175.66 274.35C175.906 274.739 176.028 275.147 176.028 275.575C176.028 275.972 175.92 276.347 175.705 276.698C175.489 277.049 175.163 277.333 174.727 277.549C175.29 277.714 175.722 277.995 176.022 278.393C176.327 278.791 176.479 279.261 176.479 279.802C176.479 280.238 176.386 280.644 176.2 281.021C176.018 281.393 175.791 281.681 175.521 281.884C175.25 282.087 174.909 282.242 174.499 282.348C174.092 282.449 173.593 282.5 173 282.5H169.452ZM170.684 277.104H172.696C173.242 277.104 173.633 277.069 173.87 276.997C174.183 276.903 174.418 276.749 174.575 276.533C174.736 276.317 174.816 276.047 174.816 275.721C174.816 275.412 174.742 275.141 174.594 274.908C174.446 274.671 174.234 274.51 173.959 274.426C173.684 274.337 173.212 274.292 172.543 274.292H170.684V277.104ZM170.684 281.402H173C173.398 281.402 173.678 281.387 173.838 281.357C174.122 281.307 174.359 281.222 174.549 281.104C174.74 280.985 174.896 280.814 175.019 280.589C175.142 280.361 175.203 280.098 175.203 279.802C175.203 279.455 175.114 279.155 174.937 278.901C174.759 278.643 174.511 278.463 174.194 278.361C173.881 278.256 173.428 278.203 172.835 278.203H170.684V281.402ZM177.152 282.5L180.726 273.194H182.052L185.861 282.5H184.458L183.373 279.682H179.481L178.459 282.5H177.152ZM179.837 278.679H182.992L182.021 276.102C181.724 275.319 181.504 274.675 181.36 274.172C181.242 274.769 181.075 275.361 180.859 275.949L179.837 278.679ZM186.102 282.5V281.357L190.869 275.397C191.208 274.974 191.529 274.606 191.834 274.292H186.642V273.194H193.307V274.292L188.083 280.748L187.518 281.402H193.459V282.5H186.102ZM193.77 282.5L197.344 273.194H198.67L202.479 282.5H201.076L199.991 279.682H196.1L195.078 282.5H193.77ZM196.455 278.679H199.61L198.639 276.102C198.342 275.319 198.122 274.675 197.979 274.172C197.86 274.769 197.693 275.361 197.477 275.949L196.455 278.679ZM202.441 282.5L206.015 273.194H207.341L211.15 282.5H209.747L208.662 279.682H204.771L203.749 282.5H202.441ZM205.126 278.679H208.281L207.31 276.102C207.013 275.319 206.793 274.675 206.649 274.172C206.531 274.769 206.364 275.361 206.148 275.949L205.126 278.679ZM212.153 282.5V273.194H216.279C217.108 273.194 217.739 273.279 218.17 273.448C218.602 273.613 218.947 273.907 219.205 274.331C219.463 274.754 219.592 275.221 219.592 275.733C219.592 276.394 219.379 276.95 218.951 277.403C218.524 277.856 217.864 278.143 216.971 278.266C217.297 278.423 217.544 278.577 217.713 278.729C218.073 279.06 218.414 279.472 218.735 279.967L220.354 282.5H218.805L217.574 280.564C217.214 280.005 216.918 279.578 216.685 279.282C216.452 278.986 216.243 278.778 216.057 278.66C215.875 278.541 215.688 278.459 215.498 278.412C215.358 278.382 215.13 278.368 214.812 278.368H213.384V282.5H212.153ZM213.384 277.301H216.031C216.594 277.301 217.034 277.244 217.352 277.13C217.669 277.011 217.91 276.825 218.075 276.571C218.24 276.313 218.323 276.034 218.323 275.733C218.323 275.293 218.162 274.931 217.84 274.648C217.523 274.364 217.019 274.223 216.33 274.223H213.384V277.301Z" fill="black"/>
<path d="M180.028 312.5V303.194H186.757V304.292H181.26V307.143H186.408V308.234H181.26V311.402H186.973V312.5H180.028ZM188.623 312.5V303.194H189.854V311.402H194.438V312.5H188.623ZM195.859 312.5V303.194H197.091V311.402H201.674V312.5H195.859ZM203.172 312.5V303.194H209.9V304.292H204.403V307.143H209.551V308.234H204.403V311.402H210.116V312.5H203.172Z" fill="black"/>
<path d="M189.857 338.85V337.758L193.799 337.752V341.205C193.194 341.688 192.57 342.051 191.927 342.297C191.284 342.538 190.623 342.659 189.946 342.659C189.032 342.659 188.201 342.464 187.452 342.075C186.707 341.681 186.144 341.114 185.763 340.374C185.382 339.633 185.192 338.806 185.192 337.892C185.192 336.986 185.38 336.142 185.757 335.359C186.138 334.572 186.684 333.988 187.395 333.607C188.105 333.226 188.924 333.036 189.851 333.036C190.524 333.036 191.131 333.146 191.673 333.366C192.219 333.582 192.646 333.884 192.955 334.273C193.264 334.663 193.499 335.171 193.66 335.797L192.549 336.102C192.409 335.628 192.236 335.255 192.028 334.984C191.821 334.714 191.525 334.498 191.14 334.337C190.755 334.172 190.327 334.089 189.857 334.089C189.295 334.089 188.808 334.176 188.397 334.35C187.987 334.519 187.655 334.743 187.401 335.022C187.151 335.302 186.957 335.609 186.817 335.943C186.58 336.518 186.461 337.143 186.461 337.815C186.461 338.645 186.603 339.339 186.887 339.897C187.174 340.456 187.591 340.871 188.137 341.142C188.683 341.412 189.263 341.548 189.876 341.548C190.41 341.548 190.93 341.446 191.438 341.243C191.946 341.036 192.331 340.816 192.593 340.583V338.85H189.857ZM202.673 341.503C203.245 341.897 203.771 342.185 204.254 342.367L203.892 343.224C203.223 342.982 202.557 342.602 201.893 342.081C201.203 342.466 200.441 342.659 199.607 342.659C198.765 342.659 198.001 342.456 197.316 342.049C196.63 341.643 196.101 341.072 195.729 340.335C195.361 339.599 195.177 338.77 195.177 337.847C195.177 336.929 195.363 336.093 195.735 335.34C196.108 334.587 196.637 334.013 197.322 333.62C198.012 333.226 198.782 333.029 199.633 333.029C200.492 333.029 201.266 333.235 201.956 333.645C202.646 334.051 203.171 334.623 203.53 335.359C203.894 336.091 204.076 336.918 204.076 337.841C204.076 338.607 203.96 339.297 203.727 339.91C203.494 340.52 203.143 341.051 202.673 341.503ZM199.963 339.929C200.674 340.128 201.26 340.424 201.721 340.818C202.445 340.158 202.807 339.165 202.807 337.841C202.807 337.088 202.678 336.43 202.419 335.867C202.166 335.304 201.791 334.868 201.296 334.559C200.805 334.246 200.253 334.089 199.639 334.089C198.721 334.089 197.959 334.405 197.354 335.035C196.749 335.661 196.446 336.599 196.446 337.847C196.446 339.057 196.745 339.986 197.341 340.634C197.942 341.281 198.708 341.605 199.639 341.605C200.079 341.605 200.494 341.522 200.883 341.357C200.498 341.108 200.092 340.93 199.665 340.824L199.963 339.929Z" fill="black"/>
<path d="M127.952 372.5V363.194H129.184V371.402H133.767V372.5H127.952ZM134.3 364.426V363.099H135.525V364.146C135.525 364.714 135.459 365.122 135.328 365.372C135.146 365.714 134.863 365.972 134.478 366.146L134.198 365.695C134.427 365.602 134.596 365.456 134.706 365.257C134.82 365.054 134.884 364.777 134.896 364.426H134.3ZM137.036 367.968C137.036 366.423 137.45 365.215 138.28 364.343C139.109 363.467 140.18 363.029 141.492 363.029C142.351 363.029 143.125 363.235 143.815 363.645C144.505 364.056 145.029 364.629 145.389 365.365C145.753 366.097 145.935 366.929 145.935 367.86C145.935 368.804 145.745 369.648 145.364 370.393C144.983 371.137 144.443 371.702 143.745 372.087C143.047 372.468 142.294 372.659 141.485 372.659C140.609 372.659 139.826 372.447 139.137 372.024C138.447 371.601 137.924 371.023 137.569 370.291C137.213 369.559 137.036 368.785 137.036 367.968ZM138.305 367.987C138.305 369.108 138.606 369.993 139.207 370.64C139.812 371.283 140.569 371.605 141.479 371.605C142.406 371.605 143.167 371.279 143.764 370.627C144.365 369.976 144.666 369.051 144.666 367.854C144.666 367.096 144.536 366.436 144.278 365.873C144.024 365.306 143.65 364.868 143.155 364.559C142.664 364.246 142.112 364.089 141.498 364.089C140.626 364.089 139.875 364.39 139.245 364.991C138.618 365.587 138.305 366.586 138.305 367.987ZM147.592 372.5V363.194H153.87V364.292H148.823V367.174H153.19V368.272H148.823V372.5H147.592ZM155.539 372.5V363.194H161.817V364.292H156.771V367.174H161.138V368.272H156.771V372.5H155.539ZM163.632 372.5V363.194H164.864V372.5H163.632ZM173.681 369.237L174.912 369.548C174.654 370.56 174.188 371.332 173.516 371.865C172.847 372.394 172.028 372.659 171.059 372.659C170.056 372.659 169.239 372.456 168.609 372.049C167.983 371.639 167.504 371.046 167.174 370.272C166.848 369.498 166.686 368.666 166.686 367.777C166.686 366.808 166.87 365.964 167.238 365.245C167.61 364.521 168.137 363.973 168.818 363.601C169.504 363.224 170.257 363.036 171.078 363.036C172.009 363.036 172.792 363.273 173.427 363.747C174.062 364.221 174.504 364.887 174.753 365.746L173.541 366.032C173.325 365.355 173.012 364.862 172.602 364.553C172.191 364.244 171.675 364.089 171.053 364.089C170.338 364.089 169.739 364.261 169.256 364.604C168.778 364.946 168.442 365.408 168.247 365.987C168.052 366.563 167.955 367.157 167.955 367.771C167.955 368.562 168.069 369.254 168.298 369.847C168.531 370.435 168.89 370.875 169.377 371.167C169.864 371.459 170.39 371.605 170.958 371.605C171.647 371.605 172.231 371.406 172.709 371.008C173.188 370.611 173.511 370.02 173.681 369.237ZM176.645 372.5V363.194H177.876V372.5H176.645ZM179.032 372.5L182.605 363.194H183.932L187.741 372.5H186.338L185.252 369.682H181.361L180.339 372.5H179.032ZM181.717 368.679H184.872L183.9 366.102C183.604 365.319 183.384 364.675 183.24 364.172C183.122 364.769 182.955 365.361 182.739 365.949L181.717 368.679ZM188.674 372.5V363.194H189.905V371.402H194.488V372.5H188.674ZM201.223 372.5V364.292H198.157V363.194H205.533V364.292H202.455V372.5H201.223ZM206.841 372.5V363.194H208.072V367.016H212.909V363.194H214.141V372.5H212.909V368.114H208.072V372.5H206.841ZM215.175 372.5L218.749 363.194H220.076L223.884 372.5H222.481L221.396 369.682H217.505L216.483 372.5H215.175ZM217.86 368.679H221.015L220.044 366.102C219.748 365.319 219.528 364.675 219.384 364.172C219.265 364.769 219.098 365.361 218.882 365.949L217.86 368.679ZM225.078 372.5V363.194H226.309V372.5H225.078ZM228.436 372.5V363.194H229.667V371.402H234.25V372.5H228.436ZM234.701 372.5L238.274 363.194H239.601L243.41 372.5H242.007L240.921 369.682H237.03L236.008 372.5H234.701ZM237.386 368.679H240.541L239.569 366.102C239.273 365.319 239.053 364.675 238.909 364.172C238.791 364.769 238.624 365.361 238.408 365.949L237.386 368.679ZM244.381 372.5V363.194H245.644L250.532 370.5V363.194H251.712V372.5H250.449L245.562 365.188V372.5H244.381ZM253.788 372.5V363.194H256.994C257.717 363.194 258.27 363.239 258.65 363.328C259.184 363.45 259.639 363.673 260.015 363.994C260.506 364.409 260.872 364.94 261.113 365.587C261.359 366.231 261.481 366.967 261.481 367.796C261.481 368.503 261.399 369.129 261.234 369.675C261.069 370.221 260.857 370.674 260.599 371.034C260.341 371.389 260.057 371.671 259.749 371.878C259.444 372.081 259.074 372.236 258.638 372.341C258.206 372.447 257.709 372.5 257.146 372.5H253.788ZM255.02 371.402H257.006C257.62 371.402 258.1 371.345 258.447 371.23C258.799 371.116 259.078 370.955 259.285 370.748C259.577 370.456 259.804 370.065 259.964 369.574C260.129 369.079 260.212 368.48 260.212 367.777C260.212 366.804 260.051 366.057 259.729 365.537C259.412 365.012 259.025 364.661 258.568 364.483C258.238 364.356 257.707 364.292 256.975 364.292H255.02V371.402Z" fill="black"/>
<path d="M166.99 402.5V393.194H168.253L173.141 400.5V393.194H174.322V402.5H173.059L168.171 395.188V402.5H166.99ZM182.504 393.194H183.735V398.571C183.735 399.506 183.63 400.249 183.418 400.799C183.206 401.349 182.823 401.798 182.269 402.145C181.719 402.487 180.995 402.659 180.098 402.659C179.226 402.659 178.513 402.508 177.959 402.208C177.405 401.908 177.009 401.474 176.772 400.907C176.535 400.335 176.417 399.557 176.417 398.571V393.194H177.648V398.564C177.648 399.373 177.722 399.969 177.87 400.354C178.022 400.735 178.281 401.029 178.645 401.237C179.013 401.444 179.461 401.548 179.99 401.548C180.896 401.548 181.541 401.343 181.926 400.932C182.311 400.522 182.504 399.732 182.504 398.564V393.194ZM185.754 402.5V393.194H187.607L189.81 399.783C190.013 400.397 190.161 400.856 190.254 401.161C190.36 400.822 190.525 400.325 190.75 399.669L192.978 393.194H194.634V402.5H193.447V394.711L190.743 402.5H189.632L186.941 394.578V402.5H185.754ZM196.646 402.5V393.194H203.375V394.292H197.878V397.143H203.026V398.234H197.878V401.402H203.591V402.5H196.646ZM205.311 402.5V393.194H209.437C210.266 393.194 210.897 393.279 211.329 393.448C211.76 393.613 212.105 393.907 212.363 394.331C212.621 394.754 212.75 395.221 212.75 395.733C212.75 396.394 212.537 396.95 212.109 397.403C211.682 397.856 211.022 398.143 210.129 398.266C210.455 398.423 210.702 398.577 210.872 398.729C211.231 399.06 211.572 399.472 211.894 399.967L213.512 402.5H211.963L210.732 400.564C210.372 400.005 210.076 399.578 209.843 399.282C209.611 398.986 209.401 398.778 209.215 398.66C209.033 398.541 208.847 398.459 208.656 398.412C208.517 398.382 208.288 398.368 207.971 398.368H206.542V402.5H205.311ZM206.542 397.301H209.189C209.752 397.301 210.192 397.244 210.51 397.13C210.827 397.011 211.068 396.825 211.233 396.571C211.398 396.313 211.481 396.034 211.481 395.733C211.481 395.293 211.32 394.931 210.999 394.648C210.681 394.364 210.178 394.223 209.488 394.223H206.542V397.301ZM214.312 397.968C214.312 396.423 214.727 395.215 215.556 394.343C216.386 393.467 217.456 393.029 218.768 393.029C219.627 393.029 220.402 393.235 221.091 393.645C221.781 394.056 222.306 394.629 222.666 395.365C223.029 396.097 223.211 396.929 223.211 397.86C223.211 398.804 223.021 399.648 222.64 400.393C222.259 401.137 221.72 401.702 221.021 402.087C220.323 402.468 219.57 402.659 218.762 402.659C217.886 402.659 217.103 402.447 216.413 402.024C215.723 401.601 215.201 401.023 214.845 400.291C214.49 399.559 214.312 398.785 214.312 397.968ZM215.582 397.987C215.582 399.108 215.882 399.993 216.483 400.64C217.088 401.283 217.846 401.605 218.755 401.605C219.682 401.605 220.444 401.279 221.041 400.627C221.641 399.976 221.942 399.051 221.942 397.854C221.942 397.096 221.813 396.436 221.555 395.873C221.301 395.306 220.926 394.868 220.431 394.559C219.94 394.246 219.388 394.089 218.774 394.089C217.903 394.089 217.152 394.39 216.521 394.991C215.895 395.587 215.582 396.586 215.582 397.987Z" fill="black"/>
<path d="M175.163 432.5L171.557 423.194H172.89L175.309 429.955C175.503 430.496 175.666 431.004 175.797 431.478C175.941 430.97 176.108 430.462 176.299 429.955L178.812 423.194H180.069L176.426 432.5H175.163ZM180.799 427.968C180.799 426.423 181.214 425.215 182.043 424.343C182.873 423.467 183.944 423.029 185.255 423.029C186.114 423.029 186.889 423.235 187.579 423.645C188.268 424.056 188.793 424.629 189.153 425.365C189.517 426.097 189.699 426.929 189.699 427.86C189.699 428.804 189.508 429.648 189.127 430.393C188.747 431.137 188.207 431.702 187.509 432.087C186.811 432.468 186.057 432.659 185.249 432.659C184.373 432.659 183.59 432.447 182.9 432.024C182.211 431.601 181.688 431.023 181.333 430.291C180.977 429.559 180.799 428.785 180.799 427.968ZM182.069 427.987C182.069 429.108 182.369 429.993 182.97 430.64C183.575 431.283 184.333 431.605 185.243 431.605C186.169 431.605 186.931 431.279 187.528 430.627C188.129 429.976 188.429 429.051 188.429 427.854C188.429 427.096 188.3 426.436 188.042 425.873C187.788 425.306 187.414 424.868 186.918 424.559C186.428 424.246 185.875 424.089 185.262 424.089C184.39 424.089 183.639 424.39 183.008 424.991C182.382 425.587 182.069 426.586 182.069 427.987ZM195.646 428.85V427.758L199.588 427.752V431.205C198.983 431.688 198.359 432.051 197.716 432.297C197.073 432.538 196.412 432.659 195.735 432.659C194.821 432.659 193.99 432.464 193.241 432.075C192.496 431.681 191.933 431.114 191.552 430.374C191.171 429.633 190.981 428.806 190.981 427.892C190.981 426.986 191.169 426.142 191.546 425.359C191.927 424.572 192.473 423.988 193.184 423.607C193.895 423.226 194.713 423.036 195.64 423.036C196.313 423.036 196.92 423.146 197.462 423.366C198.008 423.582 198.435 423.884 198.744 424.273C199.053 424.663 199.288 425.171 199.449 425.797L198.338 426.102C198.198 425.628 198.025 425.255 197.817 424.984C197.61 424.714 197.314 424.498 196.929 424.337C196.544 424.172 196.116 424.089 195.646 424.089C195.084 424.089 194.597 424.176 194.187 424.35C193.776 424.519 193.444 424.743 193.19 425.022C192.94 425.302 192.746 425.609 192.606 425.943C192.369 426.518 192.25 427.143 192.25 427.815C192.25 428.645 192.392 429.339 192.676 429.897C192.964 430.456 193.38 430.871 193.926 431.142C194.472 431.412 195.052 431.548 195.666 431.548C196.199 431.548 196.719 431.446 197.227 431.243C197.735 431.036 198.12 430.816 198.382 430.583V428.85H195.646ZM207.517 423.194H208.748V428.571C208.748 429.506 208.642 430.249 208.431 430.799C208.219 431.349 207.836 431.798 207.282 432.145C206.732 432.487 206.008 432.659 205.111 432.659C204.239 432.659 203.526 432.508 202.972 432.208C202.417 431.908 202.022 431.474 201.785 430.907C201.548 430.335 201.429 429.557 201.429 428.571V423.194H202.661V428.564C202.661 429.373 202.735 429.969 202.883 430.354C203.035 430.735 203.293 431.029 203.657 431.237C204.025 431.444 204.474 431.548 205.003 431.548C205.909 431.548 206.554 431.343 206.939 430.932C207.324 430.522 207.517 429.732 207.517 428.564V423.194ZM210.83 432.5V423.194H217.559V424.292H212.062V427.143H217.209V428.234H212.062V431.402H217.774V432.5H210.83Z" fill="black"/>
<path d="M175.99 488V478.694H177.253L182.141 486V478.694H183.322V488H182.059L177.171 480.688V488H175.99ZM185.423 488V478.694H192.151V479.792H186.654V482.643H191.802V483.734H186.654V486.902H192.367V488H185.423ZM195.693 488L193.224 478.694H194.487L195.903 484.794C196.055 485.433 196.186 486.068 196.296 486.699C196.533 485.704 196.673 485.131 196.715 484.979L198.486 478.694H199.972L201.305 483.404C201.639 484.572 201.88 485.67 202.028 486.699C202.147 486.111 202.301 485.436 202.492 484.674L203.952 478.694H205.189L202.638 488H201.451L199.489 480.91C199.324 480.317 199.227 479.953 199.197 479.818C199.1 480.245 199.009 480.609 198.924 480.91L196.95 488H195.693ZM205.926 485.01L207.087 484.909C207.142 485.374 207.269 485.757 207.468 486.058C207.671 486.354 207.985 486.595 208.408 486.781C208.831 486.963 209.307 487.054 209.836 487.054C210.306 487.054 210.72 486.984 211.08 486.845C211.44 486.705 211.706 486.515 211.88 486.273C212.058 486.028 212.146 485.761 212.146 485.474C212.146 485.182 212.062 484.928 211.893 484.712C211.723 484.492 211.444 484.308 211.055 484.16C210.805 484.062 210.253 483.912 209.398 483.709C208.543 483.502 207.944 483.307 207.602 483.125C207.157 482.892 206.825 482.604 206.605 482.262C206.389 481.915 206.281 481.528 206.281 481.1C206.281 480.63 206.415 480.192 206.681 479.786C206.948 479.376 207.337 479.065 207.849 478.853C208.361 478.641 208.93 478.536 209.557 478.536C210.246 478.536 210.854 478.648 211.378 478.872C211.907 479.092 212.314 479.418 212.597 479.85C212.881 480.281 213.033 480.77 213.054 481.316L211.874 481.405C211.81 480.817 211.594 480.372 211.226 480.072C210.862 479.771 210.323 479.621 209.607 479.621C208.863 479.621 208.319 479.759 207.976 480.034C207.638 480.305 207.468 480.632 207.468 481.018C207.468 481.352 207.589 481.627 207.83 481.843C208.067 482.059 208.685 482.281 209.684 482.509C210.687 482.734 211.374 482.93 211.747 483.1C212.288 483.349 212.688 483.667 212.946 484.052C213.204 484.433 213.333 484.873 213.333 485.372C213.333 485.867 213.192 486.335 212.908 486.775C212.625 487.211 212.216 487.551 211.683 487.797C211.154 488.038 210.557 488.159 209.893 488.159C209.051 488.159 208.344 488.036 207.773 487.791C207.206 487.545 206.759 487.177 206.434 486.686C206.112 486.191 205.943 485.632 205.926 485.01Z" fill="black"/>
<path d="M167.084 521.01L168.246 520.909C168.301 521.374 168.428 521.757 168.626 522.058C168.83 522.354 169.143 522.595 169.566 522.781C169.989 522.963 170.465 523.054 170.994 523.054C171.464 523.054 171.879 522.984 172.238 522.845C172.598 522.705 172.865 522.515 173.038 522.273C173.216 522.028 173.305 521.761 173.305 521.474C173.305 521.182 173.22 520.928 173.051 520.712C172.882 520.492 172.602 520.308 172.213 520.16C171.963 520.062 171.411 519.912 170.556 519.709C169.701 519.502 169.103 519.307 168.76 519.125C168.315 518.892 167.983 518.604 167.763 518.262C167.547 517.915 167.439 517.528 167.439 517.1C167.439 516.63 167.573 516.192 167.839 515.786C168.106 515.376 168.495 515.065 169.007 514.853C169.519 514.641 170.089 514.536 170.715 514.536C171.405 514.536 172.012 514.648 172.537 514.872C173.066 515.092 173.472 515.418 173.755 515.85C174.039 516.281 174.191 516.77 174.212 517.316L173.032 517.405C172.968 516.817 172.752 516.372 172.384 516.072C172.02 515.771 171.481 515.621 170.766 515.621C170.021 515.621 169.477 515.759 169.134 516.034C168.796 516.305 168.626 516.632 168.626 517.018C168.626 517.352 168.747 517.627 168.988 517.843C169.225 518.059 169.843 518.281 170.842 518.509C171.845 518.734 172.532 518.93 172.905 519.1C173.446 519.349 173.846 519.667 174.104 520.052C174.363 520.433 174.492 520.873 174.492 521.372C174.492 521.867 174.35 522.335 174.066 522.775C173.783 523.211 173.375 523.551 172.841 523.797C172.312 524.038 171.716 524.159 171.051 524.159C170.209 524.159 169.502 524.036 168.931 523.791C168.364 523.545 167.918 523.177 167.592 522.686C167.27 522.191 167.101 521.632 167.084 521.01ZM178.542 524V515.792H175.476V514.694H182.852V515.792H179.773V524H178.542ZM183.505 519.468C183.505 517.923 183.92 516.715 184.75 515.843C185.579 514.967 186.65 514.529 187.961 514.529C188.82 514.529 189.595 514.735 190.285 515.145C190.974 515.556 191.499 516.129 191.859 516.865C192.223 517.597 192.405 518.429 192.405 519.36C192.405 520.304 192.214 521.148 191.833 521.893C191.453 522.637 190.913 523.202 190.215 523.587C189.517 523.968 188.763 524.159 187.955 524.159C187.079 524.159 186.296 523.947 185.606 523.524C184.917 523.101 184.394 522.523 184.039 521.791C183.683 521.059 183.505 520.285 183.505 519.468ZM184.775 519.487C184.775 520.608 185.075 521.493 185.676 522.14C186.281 522.783 187.039 523.105 187.949 523.105C188.875 523.105 189.637 522.779 190.234 522.127C190.835 521.476 191.135 520.551 191.135 519.354C191.135 518.596 191.006 517.936 190.748 517.373C190.494 516.806 190.12 516.368 189.625 516.059C189.134 515.746 188.581 515.589 187.968 515.589C187.096 515.589 186.345 515.89 185.714 516.491C185.088 517.087 184.775 518.086 184.775 519.487ZM194.017 524V514.694H198.143C198.972 514.694 199.603 514.779 200.035 514.948C200.466 515.113 200.811 515.407 201.069 515.831C201.327 516.254 201.457 516.721 201.457 517.233C201.457 517.894 201.243 518.45 200.815 518.903C200.388 519.356 199.728 519.643 198.835 519.766C199.161 519.923 199.408 520.077 199.578 520.229C199.937 520.56 200.278 520.972 200.6 521.467L202.218 524H200.669L199.438 522.064C199.078 521.505 198.782 521.078 198.549 520.782C198.317 520.486 198.107 520.278 197.921 520.16C197.739 520.041 197.553 519.959 197.362 519.912C197.223 519.882 196.994 519.868 196.677 519.868H195.249V524H194.017ZM195.249 518.801H197.896C198.458 518.801 198.898 518.744 199.216 518.63C199.533 518.511 199.774 518.325 199.939 518.071C200.104 517.813 200.187 517.534 200.187 517.233C200.187 516.793 200.026 516.431 199.705 516.148C199.387 515.864 198.884 515.723 198.194 515.723H195.249V518.801ZM203.602 524V514.694H204.833V524H203.602ZM207.036 524V514.694H213.765V515.792H208.268V518.643H213.416V519.734H208.268V522.902H213.98V524H207.036ZM215.263 521.01L216.424 520.909C216.479 521.374 216.606 521.757 216.805 522.058C217.008 522.354 217.321 522.595 217.745 522.781C218.168 522.963 218.644 523.054 219.173 523.054C219.643 523.054 220.057 522.984 220.417 522.845C220.777 522.705 221.043 522.515 221.217 522.273C221.395 522.028 221.483 521.761 221.483 521.474C221.483 521.182 221.399 520.928 221.229 520.712C221.06 520.492 220.781 520.308 220.392 520.16C220.142 520.062 219.59 519.912 218.735 519.709C217.88 519.502 217.281 519.307 216.938 519.125C216.494 518.892 216.162 518.604 215.942 518.262C215.726 517.915 215.618 517.528 215.618 517.1C215.618 516.63 215.751 516.192 216.018 515.786C216.285 515.376 216.674 515.065 217.186 514.853C217.698 514.641 218.267 514.536 218.894 514.536C219.583 514.536 220.191 514.648 220.715 514.872C221.244 515.092 221.651 515.418 221.934 515.85C222.218 516.281 222.37 516.77 222.391 517.316L221.21 517.405C221.147 516.817 220.931 516.372 220.563 516.072C220.199 515.771 219.66 515.621 218.944 515.621C218.2 515.621 217.656 515.759 217.313 516.034C216.974 516.305 216.805 516.632 216.805 517.018C216.805 517.352 216.926 517.627 217.167 517.843C217.404 518.059 218.022 518.281 219.021 518.509C220.023 518.734 220.711 518.93 221.083 519.1C221.625 519.349 222.025 519.667 222.283 520.052C222.541 520.433 222.67 520.873 222.67 521.372C222.67 521.867 222.529 522.335 222.245 522.775C221.962 523.211 221.553 523.551 221.02 523.797C220.491 524.038 219.894 524.159 219.23 524.159C218.388 524.159 217.681 524.036 217.11 523.791C216.543 523.545 216.096 523.177 215.771 522.686C215.449 522.191 215.28 521.632 215.263 521.01Z" fill="black"/>
<rect width="390" height="52" fill="white"/>
<path d="M37.6641 26.6436C35.5244 26.6436 34 28.1064 34 30.1094V30.123C34 31.9961 35.3262 33.377 37.2197 33.377C38.5732 33.377 39.4346 32.6865 39.7969 31.9072H39.9336C39.9336 31.9824 39.9268 32.0576 39.9268 32.1328C39.8516 34.0195 39.1885 35.5508 37.623 35.5508C36.7549 35.5508 36.1465 35.0996 35.8867 34.4092L35.8662 34.3408H34.1299L34.1436 34.416C34.458 35.9268 35.8115 37 37.623 37C40.1045 37 41.6016 35.0312 41.6016 31.709V31.6953C41.6016 28.1406 39.7695 26.6436 37.6641 26.6436ZM37.6572 32.0234C36.5361 32.0234 35.7227 31.2031 35.7227 30.0615V30.0479C35.7227 28.9473 36.5908 28.0791 37.6777 28.0791C38.7715 28.0791 39.626 28.9609 39.626 30.0889V30.1025C39.626 31.2168 38.7715 32.0234 37.6572 32.0234Z" fill="black"/>
<path d="M44.4251 30.3623C45.054 30.3623 45.512 29.8838 45.512 29.2822C45.512 28.6738 45.054 28.2021 44.4251 28.2021C43.803 28.2021 43.3382 28.6738 43.3382 29.2822C43.3382 29.8838 43.803 30.3623 44.4251 30.3623ZM44.4251 35.4346C45.054 35.4346 45.512 34.9629 45.512 34.3545C45.512 33.7461 45.054 33.2744 44.4251 33.2744C43.803 33.2744 43.3382 33.7461 43.3382 34.3545C43.3382 34.9629 43.803 35.4346 44.4251 35.4346Z" fill="black"/>
<path d="M52.0337 36.7539H53.7222V34.8604H55.0484V33.4043H53.7222V26.8896H51.2271C49.8873 28.9268 48.4859 31.1963 47.2076 33.418V34.8604H52.0337V36.7539ZM48.8482 33.4453V33.3428C49.8052 31.668 50.9468 29.8428 51.9586 28.2979H52.0611V33.4453H48.8482Z" fill="black"/>
<path d="M58.8563 36.7539H60.62V26.8896H58.8631L56.286 28.7012V30.3623L58.7401 28.626H58.8563V36.7539Z" fill="black"/>
<path d="M311.399 32.3336C311.952 32.3336 312.399 32.7813 312.399 33.3336V35.3336C312.399 35.8858 311.952 36.3336 311.399 36.3336H310.399C309.847 36.3336 309.4 35.8858 309.399 35.3336V33.3336C309.399 32.7813 309.847 32.3336 310.399 32.3336H311.399ZM316.066 30.3336C316.619 30.3338 317.066 30.7814 317.066 31.3336V35.3336C317.066 35.8857 316.618 36.3335 316.066 36.3336H315.066C314.514 36.3336 314.067 35.8858 314.066 35.3336V31.3336C314.066 30.7813 314.514 30.3336 315.066 30.3336H316.066ZM320.732 27.9996C321.285 27.9996 321.732 28.4475 321.732 28.9996V35.3336C321.732 35.8857 321.285 36.3336 320.732 36.3336H319.732C319.18 36.3335 318.733 35.8857 318.732 35.3336V28.9996C318.733 28.4475 319.18 27.9997 319.732 27.9996H320.732ZM325.399 25.6666C325.952 25.6667 326.399 26.1144 326.399 26.6666V35.3336C326.399 35.8857 325.952 36.3336 325.399 36.3336H324.399C323.847 36.3336 323.4 35.8857 323.399 35.3336V26.6666C323.399 26.1143 323.847 25.6666 324.399 25.6666H325.399Z" fill="black"/>
<path fill-rule="evenodd" clip-rule="evenodd" d="M336.826 33.9176C338.102 32.8387 339.971 32.8387 341.246 33.9176C341.31 33.9756 341.348 34.0577 341.35 34.1441C341.351 34.2305 341.317 34.3141 341.255 34.3746L339.258 36.3902C339.199 36.4494 339.119 36.483 339.036 36.483C338.953 36.483 338.873 36.4494 338.814 36.3902L336.816 34.3746C336.755 34.314 336.721 34.2305 336.723 34.1441C336.724 34.0577 336.762 33.9755 336.826 33.9176ZM334.161 31.2281C336.909 28.672 341.165 28.6721 343.913 31.2281C343.975 31.288 344.011 31.3705 344.012 31.4566C344.013 31.5428 343.979 31.6259 343.918 31.6871L342.764 32.8541C342.645 32.9732 342.452 32.9758 342.33 32.86C341.428 32.0428 340.254 31.5904 339.036 31.5904C337.819 31.5909 336.646 32.0433 335.744 32.86C335.622 32.9756 335.43 32.9729 335.312 32.8541L334.156 31.6871C334.096 31.626 334.062 31.5427 334.063 31.4566C334.063 31.3705 334.099 31.288 334.161 31.2281ZM331.496 28.5465C335.711 24.5073 342.361 24.5071 346.576 28.5465C346.637 28.6064 346.671 28.6886 346.672 28.774C346.672 28.8596 346.638 28.9418 346.578 29.0025L345.422 30.1695C345.303 30.289 345.11 30.2902 344.989 30.1725C343.383 28.6457 341.252 27.7946 339.036 27.7945C336.82 27.7945 334.688 28.6456 333.082 30.1725C332.961 30.2904 332.768 30.2892 332.649 30.1695L331.493 29.0025C331.433 28.9418 331.399 28.8596 331.399 28.774C331.4 28.6885 331.435 28.6064 331.496 28.5465Z" fill="black"/>
<path opacity="0.4" d="M371.005 25.3333C372.478 25.3333 373.672 26.5276 373.672 28.0003V34.0003L373.658 34.2728C373.522 35.6174 372.386 36.6663 371.005 36.6663H354.339L354.065 36.6527C352.811 36.525 351.813 35.5276 351.686 34.2728L351.672 34.0003V28.0003C351.672 26.6198 352.721 25.4838 354.065 25.347L354.339 25.3333H371.005ZM354.339 26.3333C353.418 26.3333 352.672 27.0799 352.672 28.0003V34.0003C352.672 34.9206 353.419 35.6663 354.339 35.6663H371.005C371.925 35.6663 372.672 34.9206 372.672 34.0003V28.0003C372.672 27.0798 371.925 26.3333 371.005 26.3333H354.339ZM374.672 29.0003C375.477 29.3391 376 30.1272 376 31.0003C376 31.8733 375.477 32.6616 374.672 33.0003V29.0003Z" fill="black"/>
<rect x="353.672" y="27.3333" width="18" height="7.33333" rx="1.33333" fill="black"/>
<g filter="url(#filter0_d_14_547)">
<rect width="390" height="52" transform="translate(0 792)" fill="#F8F8F8" fill-opacity="0.82"/>
<path d="M152.908 815.787H157.092C157.659 815.787 157.936 815.506 157.936 814.89V811.665C157.936 811.111 157.707 810.825 157.237 810.777V809.67C157.237 808.013 156.151 807.213 155 807.213C153.849 807.213 152.763 808.013 152.763 809.67V810.799C152.333 810.865 152.064 811.146 152.064 811.665V814.89C152.064 815.506 152.341 815.787 152.908 815.787ZM153.471 809.577C153.471 808.474 154.178 807.89 155 807.89C155.822 807.89 156.529 808.474 156.529 809.577V810.773L153.471 810.777V809.577Z" fill="black" fill-opacity="0.5"/>
<path d="M166.88 815.611C168.368 815.611 169.271 814.768 169.487 813.912L169.499 813.865H168.48L168.456 813.918C168.286 814.299 167.759 814.703 166.904 814.703C165.779 814.703 165.058 813.941 165.029 812.635H169.575V812.236C169.575 810.35 168.532 809.072 166.816 809.072C165.099 809.072 163.986 810.408 163.986 812.359V812.365C163.986 814.346 165.075 815.611 166.88 815.611ZM166.81 809.98C167.741 809.98 168.433 810.572 168.538 811.82H165.046C165.157 810.619 165.872 809.98 166.81 809.98ZM170.359 815.5H171.502L173.002 813.115H173.095L174.59 815.5H175.785L173.611 812.301L175.756 809.184H174.613L173.131 811.533H173.037L171.537 809.184H170.336L172.521 812.342L170.359 815.5ZM178.83 815.611C179.68 815.611 180.342 815.242 180.741 814.568H180.834V815.5H181.854V811.176C181.854 809.863 180.992 809.072 179.451 809.072C178.104 809.072 177.143 809.74 176.979 810.73L176.973 810.766H177.992L177.998 810.748C178.162 810.256 178.66 809.975 179.416 809.975C180.36 809.975 180.834 810.396 180.834 811.176V811.75L179.024 811.861C177.553 811.949 176.721 812.6 176.721 813.725V813.736C176.721 814.885 177.629 815.611 178.83 815.611ZM177.764 813.713V813.701C177.764 813.074 178.186 812.734 179.147 812.676L180.834 812.57V813.145C180.834 814.047 180.078 814.727 179.041 814.727C178.309 814.727 177.764 814.352 177.764 813.713ZM183.657 815.5H184.677V811.586C184.677 810.695 185.304 809.975 186.13 809.975C186.927 809.975 187.442 810.461 187.442 811.211V815.5H188.462V811.439C188.462 810.637 189.042 809.975 189.921 809.975C190.811 809.975 191.239 810.438 191.239 811.369V815.5H192.259V811.135C192.259 809.811 191.538 809.072 190.249 809.072C189.376 809.072 188.655 809.512 188.315 810.18H188.222C187.929 809.523 187.331 809.072 186.475 809.072C185.649 809.072 185.052 809.465 184.77 810.145H184.677V809.184H183.657V815.5ZM194.039 817.609H195.058V814.504H195.152C195.497 815.178 196.253 815.611 197.121 815.611C198.726 815.611 199.769 814.328 199.769 812.348V812.336C199.769 810.367 198.72 809.072 197.121 809.072C196.242 809.072 195.539 809.488 195.152 810.191H195.058V809.184H194.039V817.609ZM196.886 814.709C195.738 814.709 195.035 813.807 195.035 812.348V812.336C195.035 810.877 195.738 809.975 196.886 809.975C198.04 809.975 198.726 810.865 198.726 812.336V812.348C198.726 813.818 198.04 814.709 196.886 814.709ZM201.361 815.5H202.381V806.676H201.361V815.5ZM206.856 815.611C208.344 815.611 209.247 814.768 209.463 813.912L209.475 813.865H208.456L208.432 813.918C208.262 814.299 207.735 814.703 206.879 814.703C205.754 814.703 205.034 813.941 205.004 812.635H209.551V812.236C209.551 810.35 208.508 809.072 206.792 809.072C205.075 809.072 203.961 810.408 203.961 812.359V812.365C203.961 814.346 205.051 815.611 206.856 815.611ZM206.786 809.98C207.717 809.98 208.409 810.572 208.514 811.82H205.022C205.133 810.619 205.848 809.98 206.786 809.98ZM211.905 815.559C212.327 815.559 212.667 815.213 212.667 814.797C212.667 814.375 212.327 814.035 211.905 814.035C211.489 814.035 211.144 814.375 211.144 814.797C211.144 815.213 211.489 815.559 211.905 815.559ZM216.925 815.611C218.443 815.611 219.293 814.797 219.55 813.654L219.562 813.59L218.554 813.596L218.543 813.631C218.308 814.334 217.769 814.709 216.92 814.709C215.795 814.709 215.068 813.777 215.068 812.324V812.312C215.068 810.889 215.783 809.975 216.92 809.975C217.828 809.975 218.39 810.479 218.549 811.1L218.554 811.117H219.568L219.562 811.082C219.375 809.957 218.455 809.072 216.92 809.072C215.15 809.072 214.025 810.35 214.025 812.312V812.324C214.025 814.328 215.156 815.611 216.925 815.611ZM223.592 815.611C225.391 815.611 226.504 814.369 226.504 812.348V812.336C226.504 810.309 225.391 809.072 223.592 809.072C221.793 809.072 220.68 810.309 220.68 812.336V812.348C220.68 814.369 221.793 815.611 223.592 815.611ZM223.592 814.709C222.397 814.709 221.723 813.836 221.723 812.348V812.336C221.723 810.842 222.397 809.975 223.592 809.975C224.787 809.975 225.461 810.842 225.461 812.336V812.348C225.461 813.836 224.787 814.709 223.592 814.709ZM228.026 815.5H229.046V811.586C229.046 810.695 229.673 809.975 230.499 809.975C231.296 809.975 231.811 810.461 231.811 811.211V815.5H232.831V811.439C232.831 810.637 233.411 809.975 234.29 809.975C235.18 809.975 235.608 810.438 235.608 811.369V815.5H236.628V811.135C236.628 809.811 235.907 809.072 234.618 809.072C233.745 809.072 233.024 809.512 232.684 810.18H232.591C232.298 809.523 231.7 809.072 230.845 809.072C230.018 809.072 229.421 809.465 229.139 810.145H229.046V809.184H228.026V815.5Z" fill="black" fill-opacity="0.8"/>
<rect x="127.5" y="831" width="135" height="5" rx="2.5" fill="black"/>
</g>
<rect width="390" height="45" transform="translate(0 52)" fill="white"/>
<path d="M300.584 76.5103L301.746 76.4087C301.801 76.8742 301.928 77.2572 302.126 77.5576C302.33 77.8538 302.643 78.0951 303.066 78.2812C303.489 78.4632 303.965 78.5542 304.494 78.5542C304.964 78.5542 305.379 78.4844 305.738 78.3447C306.098 78.2051 306.365 78.0146 306.538 77.7734C306.716 77.528 306.805 77.2614 306.805 76.9736C306.805 76.6816 306.72 76.4277 306.551 76.2119C306.382 75.9919 306.102 75.8078 305.713 75.6597C305.463 75.5623 304.911 75.4121 304.056 75.209C303.201 75.0016 302.603 74.807 302.26 74.625C301.815 74.3923 301.483 74.1045 301.263 73.7617C301.047 73.4147 300.939 73.0275 300.939 72.6001C300.939 72.1304 301.073 71.6924 301.339 71.2861C301.606 70.8757 301.995 70.5646 302.507 70.353C303.019 70.1414 303.589 70.0356 304.215 70.0356C304.905 70.0356 305.512 70.1478 306.037 70.3721C306.566 70.5921 306.972 70.918 307.255 71.3496C307.539 71.7812 307.691 72.27 307.712 72.8159L306.532 72.9048C306.468 72.3166 306.252 71.8722 305.884 71.5718C305.52 71.2713 304.981 71.1211 304.266 71.1211C303.521 71.1211 302.977 71.2586 302.634 71.5337C302.296 71.8045 302.126 72.1325 302.126 72.5176C302.126 72.8519 302.247 73.127 302.488 73.3428C302.725 73.5586 303.343 73.7808 304.342 74.0093C305.345 74.2336 306.032 74.4303 306.405 74.5996C306.946 74.8493 307.346 75.1667 307.604 75.5518C307.863 75.9326 307.992 76.3727 307.992 76.8721C307.992 77.3672 307.85 77.8348 307.566 78.2749C307.283 78.7108 306.875 79.0514 306.341 79.2969C305.812 79.5381 305.216 79.6587 304.551 79.6587C303.709 79.6587 303.002 79.536 302.431 79.2905C301.864 79.0451 301.418 78.6769 301.092 78.186C300.77 77.6909 300.601 77.1323 300.584 76.5103ZM309.883 79.5V70.1943H311.115V79.5H309.883ZM317.646 75.8501V74.7583L321.588 74.752V78.2051C320.983 78.6875 320.359 79.0514 319.716 79.2969C319.073 79.5381 318.412 79.6587 317.735 79.6587C316.821 79.6587 315.99 79.464 315.241 79.0747C314.496 78.6812 313.933 78.1141 313.552 77.3735C313.171 76.633 312.981 75.8057 312.981 74.8916C312.981 73.986 313.169 73.1418 313.546 72.3589C313.927 71.5718 314.473 70.9878 315.184 70.6069C315.895 70.2261 316.713 70.0356 317.64 70.0356C318.313 70.0356 318.92 70.1457 319.462 70.3657C320.008 70.5815 320.435 70.8841 320.744 71.2734C321.053 71.6628 321.288 72.1706 321.449 72.7969L320.338 73.1016C320.198 72.6276 320.025 72.2552 319.817 71.9844C319.61 71.7135 319.314 71.4977 318.929 71.3369C318.544 71.1719 318.116 71.0894 317.646 71.0894C317.084 71.0894 316.597 71.1761 316.187 71.3496C315.776 71.5189 315.444 71.7432 315.19 72.0225C314.94 72.3018 314.746 72.6086 314.606 72.9429C314.369 73.5184 314.25 74.1426 314.25 74.8154C314.25 75.6449 314.392 76.3389 314.676 76.8975C314.964 77.4561 315.38 77.8708 315.926 78.1416C316.472 78.4124 317.052 78.5479 317.666 78.5479C318.199 78.5479 318.719 78.4463 319.227 78.2432C319.735 78.0358 320.12 77.8158 320.382 77.583V75.8501H317.646ZM323.397 79.5V70.1943H324.661L329.548 77.5005V70.1943H330.729V79.5H329.466L324.578 72.1875V79.5H323.397ZM336.632 79.5V70.1943H337.864V79.5H336.632ZM340.028 79.5V70.1943H341.292L346.179 77.5005V70.1943H347.36V79.5H346.097L341.209 72.1875V79.5H340.028Z" fill="black"/>
<path d="M370.333 73.5833V70.75C370.333 69.9986 370.035 69.2779 369.503 68.7465C368.972 68.2152 368.251 67.9167 367.5 67.9167C366.749 67.9167 366.028 68.2152 365.497 68.7465C364.965 69.2779 364.667 69.9986 364.667 70.75V73.5833M361.125 71.4583V79.25C361.125 80.0014 361.424 80.7221 361.955 81.2535C362.486 81.7848 363.207 82.0833 363.958 82.0833H371.042C371.793 82.0833 372.514 81.7848 373.045 81.2535C373.576 80.7221 373.875 80.0014 373.875 79.25V71.4583H361.125Z" stroke="black" stroke-width="1.5" stroke-linecap="round" stroke-linejoin="round"/>
<path d="M17.3706 79V70.7925H14.3047V69.6943H21.6807V70.7925H18.6021V79H17.3706ZM22.9883 79V69.6943H24.2197V73.5156H29.0566V69.6943H30.2881V79H29.0566V74.6138H24.2197V79H22.9883ZM35.3726 76.207V75.0581H38.8828V76.207H35.3726ZM46.0366 79V70.7925H42.9707V69.6943H50.3467V70.7925H47.2681V79H46.0366ZM51.6543 79V69.6943H52.8857V73.5156H57.7227V69.6943H58.9541V79H57.7227V74.6138H52.8857V79H51.6543ZM60.96 79V69.6943H64.4512C65.1621 69.6943 65.7313 69.7896 66.1587 69.98C66.5903 70.1662 66.9268 70.4561 67.168 70.8496C67.4134 71.2389 67.5361 71.6473 67.5361 72.0747C67.5361 72.4725 67.4282 72.847 67.2124 73.1982C66.9966 73.5495 66.6707 73.833 66.2349 74.0488C66.7977 74.2139 67.2293 74.4953 67.5298 74.8931C67.8345 75.2909 67.9868 75.7606 67.9868 76.3022C67.9868 76.7381 67.8937 77.1444 67.7075 77.521C67.5256 77.8934 67.2992 78.1812 67.0283 78.3843C66.7575 78.5874 66.4168 78.7419 66.0063 78.8477C65.6001 78.9492 65.1007 79 64.5083 79H60.96ZM62.1914 73.6045H64.2036C64.7495 73.6045 65.141 73.5685 65.3779 73.4966C65.6911 73.4035 65.9259 73.249 66.0825 73.0332C66.2433 72.8174 66.3237 72.5465 66.3237 72.2207C66.3237 71.9118 66.2497 71.641 66.1016 71.4082C65.9535 71.1712 65.7419 71.0104 65.4668 70.9258C65.1917 70.8369 64.7199 70.7925 64.0513 70.7925H62.1914V73.6045ZM62.1914 77.9019H64.5083C64.9061 77.9019 65.1854 77.887 65.3462 77.8574C65.6297 77.8066 65.8667 77.722 66.0571 77.6035C66.2476 77.485 66.4041 77.3136 66.5269 77.0894C66.6496 76.8608 66.7109 76.5985 66.7109 76.3022C66.7109 75.9552 66.6221 75.6548 66.4443 75.4009C66.2666 75.1427 66.019 74.9629 65.7017 74.8613C65.3885 74.7555 64.9357 74.7026 64.3433 74.7026H62.1914V77.9019Z" fill="black"/>
<path d="M78.5 77L75.4689 73.25H81.5311L78.5 77Z" fill="black"/>
<path d="M185 83L205 67" stroke="black"/>
<path d="M185 67L205 83" stroke="black"/>
</g>
<defs>
<filter id="filter0_d_14_547" x="-59.8" y="732.2" width="509.6" height="171.6" filterUnits="userSpaceOnUse" color-interpolation-filters="sRGB">
<feFlood flood-opacity="0" result="BackgroundImageFix"/>
<feColorMatrix in="SourceAlpha" type="matrix" values="0 0 0 0 0 0 0 0 0 0 0 0 0 0 0 0 0 0 127 0" result="hardAlpha"/>
<feOffset dy="-0.3"/>
<feComposite in2="hardAlpha" operator="out"/>
<feColorMatrix type="matrix" values="0 0 0 0 0.682353 0 0 0 0 0.682353 0 0 0 0 0.705882 0 0 0 1 0"/>
<feBlend mode="normal" in2="BackgroundImageFix" result="effect1_dropShadow_14_547"/>
<feBlend mode="normal" in="SourceGraphic" in2="effect1_dropShadow_14_547" result="shape"/>
</filter>
<clipPath id="clip0_14_547">
<rect width="390" height="844" fill="white"/>
</clipPath>
</defs>
</svg>
