<svg width="390" height="844" viewBox="0 0 390 844" fill="none" xmlns="http://www.w3.org/2000/svg">
<g clip-path="url(#clip0_14_474)">
<rect width="390" height="844" fill="white"/>
<path d="M371.894 767.404C371.894 766.537 371.512 765.844 370.75 765.324C369.987 764.769 368.739 764.371 367.006 764.128L360.35 763.14C355.219 762.343 351.475 761.008 349.118 759.136C346.795 757.264 345.634 754.699 345.634 751.44C345.634 747.835 347.263 745.027 350.522 743.016C353.815 741.005 358.339 740 364.094 740C374.736 740 380.699 743.727 381.982 751.18L371.321 752.22C370.767 750.695 369.9 749.603 368.722 748.944C367.543 748.251 365.879 747.904 363.73 747.904C361.442 747.904 359.674 748.181 358.426 748.736C357.212 749.291 356.606 750.088 356.606 751.128C356.606 751.995 356.935 752.653 357.594 753.104C358.252 753.555 359.466 753.919 361.234 754.196L369.346 755.496C374.164 756.259 377.648 757.559 379.798 759.396C381.947 761.199 383.022 763.747 383.022 767.04C383.022 770.992 381.427 773.973 378.238 775.984C375.048 777.995 370.351 779 364.146 779C351.943 779 345.443 774.667 344.646 766H355.67C356.328 769.397 359.171 771.096 364.198 771.096C369.328 771.096 371.894 769.865 371.894 767.404Z" fill="black"/>
<path d="M308.786 778.064H297.398L313.518 740.936H326.622L342.742 778.064H331.094L328.338 771.304H311.386L308.786 778.064ZM319.914 749.412L314.61 762.984H325.218L319.914 749.412Z" fill="black"/>
<path d="M253.508 740.936H263.492L282.056 763.244V740.936H292.664V778.064H282.68L264.116 755.756V778.064H253.508V740.936Z" fill="black"/>
<path d="M214.841 778.064H203.453L219.573 740.936H232.677L248.797 778.064H237.149L234.393 771.304H217.441L214.841 778.064ZM225.969 749.412L220.665 762.984H231.273L225.969 749.412Z" fill="black"/>
<path d="M151.235 740.936H163.923L175.103 766.052L186.231 740.936H198.659V778.064H188.363V756.432L178.951 778.064H170.735L161.375 756.536V778.064H151.235V740.936Z" fill="black"/>
<path d="M131.582 740.936H142.814V778.064H131.582V740.936Z" fill="black"/>
<path d="M92.9149 778.064H81.5269L97.6469 740.936H110.751L126.871 778.064H115.223L112.467 771.304H95.5149L92.9149 778.064ZM104.043 749.412L98.7389 762.984H109.347L104.043 749.412Z" fill="black"/>
<path d="M47.4375 740.936H58.6695V768.964H79.7815L78.6375 778.064H47.4375V740.936Z" fill="black"/>
<path d="M6 740.936H24.46C35.588 740.936 41.152 745.217 41.152 753.78C41.152 758.183 39.7133 761.441 36.836 763.556C33.9933 765.636 29.66 766.676 23.836 766.676H16.868V778.064H6V740.936ZM30.232 753.728C30.232 752.133 29.712 750.989 28.672 750.296C27.632 749.603 25.9853 749.256 23.732 749.256H16.868V758.356H23.628C25.8813 758.356 27.5453 758.009 28.62 757.316C29.6947 756.623 30.232 755.427 30.232 753.728Z" fill="black"/>
<path d="M172.128 135.5L169.659 126.194H170.922L172.337 132.294C172.49 132.933 172.621 133.568 172.731 134.199C172.968 133.204 173.108 132.631 173.15 132.479L174.921 126.194H176.406L177.739 130.904C178.074 132.072 178.315 133.17 178.463 134.199C178.581 133.611 178.736 132.936 178.926 132.174L180.386 126.194H181.624L179.072 135.5H177.885L175.924 128.41C175.759 127.817 175.661 127.453 175.632 127.318C175.535 127.745 175.444 128.109 175.359 128.41L173.385 135.5H172.128ZM182.405 130.968C182.405 129.423 182.819 128.215 183.649 127.343C184.478 126.467 185.549 126.029 186.861 126.029C187.72 126.029 188.494 126.235 189.184 126.645C189.874 127.056 190.399 127.629 190.758 128.365C191.122 129.097 191.304 129.929 191.304 130.86C191.304 131.804 191.114 132.648 190.733 133.393C190.352 134.137 189.812 134.702 189.114 135.087C188.416 135.468 187.663 135.659 186.854 135.659C185.979 135.659 185.196 135.447 184.506 135.024C183.816 134.601 183.293 134.023 182.938 133.291C182.583 132.559 182.405 131.785 182.405 130.968ZM183.674 130.987C183.674 132.108 183.975 132.993 184.576 133.64C185.181 134.283 185.938 134.605 186.848 134.605C187.775 134.605 188.537 134.279 189.133 133.627C189.734 132.976 190.035 132.051 190.035 130.854C190.035 130.096 189.906 129.436 189.647 128.873C189.394 128.306 189.019 127.868 188.524 127.559C188.033 127.246 187.481 127.089 186.867 127.089C185.995 127.089 185.244 127.39 184.614 127.991C183.987 128.587 183.674 129.586 183.674 130.987ZM192.859 135.5V126.194H194.713L196.916 132.783C197.119 133.397 197.267 133.856 197.36 134.161C197.466 133.822 197.631 133.325 197.855 132.669L200.083 126.194H201.74V135.5H200.553V127.711L197.849 135.5H196.738L194.046 127.578V135.5H192.859ZM203.752 135.5V126.194H210.48V127.292H204.983V130.143H210.131V131.234H204.983V134.402H210.696V135.5H203.752ZM212.385 135.5V126.194H213.648L218.536 133.5V126.194H219.716V135.5H218.453L213.565 128.188V135.5H212.385Z" fill="black"/>
<path d="M157.143 168.237L158.374 168.548C158.116 169.56 157.65 170.332 156.978 170.865C156.309 171.394 155.49 171.659 154.521 171.659C153.518 171.659 152.701 171.456 152.071 171.049C151.444 170.639 150.966 170.046 150.636 169.272C150.31 168.498 150.147 167.666 150.147 166.777C150.147 165.808 150.332 164.964 150.7 164.245C151.072 163.521 151.599 162.973 152.28 162.601C152.966 162.224 153.719 162.036 154.54 162.036C155.471 162.036 156.254 162.273 156.889 162.747C157.523 163.221 157.966 163.887 158.215 164.746L157.003 165.032C156.787 164.355 156.474 163.862 156.063 163.553C155.653 163.244 155.137 163.089 154.515 163.089C153.799 163.089 153.201 163.261 152.718 163.604C152.24 163.946 151.904 164.408 151.709 164.987C151.514 165.563 151.417 166.157 151.417 166.771C151.417 167.562 151.531 168.254 151.76 168.847C151.993 169.435 152.352 169.875 152.839 170.167C153.326 170.459 153.852 170.605 154.419 170.605C155.109 170.605 155.693 170.406 156.171 170.008C156.65 169.611 156.973 169.02 157.143 168.237ZM159.523 166.968C159.523 165.423 159.938 164.215 160.767 163.343C161.597 162.467 162.667 162.029 163.979 162.029C164.838 162.029 165.612 162.235 166.302 162.645C166.992 163.056 167.517 163.629 167.876 164.365C168.24 165.097 168.422 165.929 168.422 166.86C168.422 167.804 168.232 168.648 167.851 169.393C167.47 170.137 166.931 170.702 166.232 171.087C165.534 171.468 164.781 171.659 163.973 171.659C163.097 171.659 162.314 171.447 161.624 171.024C160.934 170.601 160.412 170.023 160.056 169.291C159.701 168.559 159.523 167.785 159.523 166.968ZM160.792 166.987C160.792 168.108 161.093 168.993 161.694 169.64C162.299 170.283 163.056 170.605 163.966 170.605C164.893 170.605 165.655 170.279 166.251 169.627C166.852 168.976 167.153 168.051 167.153 166.854C167.153 166.096 167.024 165.436 166.766 164.873C166.512 164.306 166.137 163.868 165.642 163.559C165.151 163.246 164.599 163.089 163.985 163.089C163.114 163.089 162.362 163.39 161.732 163.991C161.106 164.587 160.792 165.586 160.792 166.987ZM169.965 171.5V162.194H171.196V170.402H175.779V171.5H169.965ZM177.201 171.5V162.194H178.433V170.402H183.016V171.5H177.201ZM184.514 171.5V162.194H191.242V163.292H185.745V166.143H190.893V167.234H185.745V170.402H191.458V171.5H184.514ZM199.799 168.237L201.03 168.548C200.772 169.56 200.307 170.332 199.634 170.865C198.965 171.394 198.146 171.659 197.177 171.659C196.174 171.659 195.358 171.456 194.727 171.049C194.101 170.639 193.623 170.046 193.292 169.272C192.967 168.498 192.804 167.666 192.804 166.777C192.804 165.808 192.988 164.964 193.356 164.245C193.728 163.521 194.255 162.973 194.937 162.601C195.622 162.224 196.375 162.036 197.196 162.036C198.127 162.036 198.91 162.273 199.545 162.747C200.18 163.221 200.622 163.887 200.872 164.746L199.659 165.032C199.443 164.355 199.13 163.862 198.72 163.553C198.309 163.244 197.793 163.089 197.171 163.089C196.456 163.089 195.857 163.261 195.375 163.604C194.896 163.946 194.56 164.408 194.365 164.987C194.171 165.563 194.073 166.157 194.073 166.771C194.073 167.562 194.188 168.254 194.416 168.847C194.649 169.435 195.008 169.875 195.495 170.167C195.982 170.459 196.509 170.605 197.076 170.605C197.765 170.605 198.349 170.406 198.828 170.008C199.306 169.611 199.63 169.02 199.799 168.237ZM204.921 171.5V163.292H201.855V162.194H209.231V163.292H206.153V171.5H204.921ZM210.71 171.5V162.194H211.942V171.5H210.71ZM213.745 166.968C213.745 165.423 214.159 164.215 214.989 163.343C215.818 162.467 216.889 162.029 218.201 162.029C219.06 162.029 219.834 162.235 220.524 162.645C221.214 163.056 221.738 163.629 222.098 164.365C222.462 165.097 222.644 165.929 222.644 166.86C222.644 167.804 222.454 168.648 222.073 169.393C221.692 170.137 221.152 170.702 220.454 171.087C219.756 171.468 219.003 171.659 218.194 171.659C217.318 171.659 216.535 171.447 215.846 171.024C215.156 170.601 214.633 170.023 214.278 169.291C213.922 168.559 213.745 167.785 213.745 166.968ZM215.014 166.987C215.014 168.108 215.315 168.993 215.916 169.64C216.521 170.283 217.278 170.605 218.188 170.605C219.115 170.605 219.876 170.279 220.473 169.627C221.074 168.976 221.375 168.051 221.375 166.854C221.375 166.096 221.245 165.436 220.987 164.873C220.733 164.306 220.359 163.868 219.864 163.559C219.373 163.246 218.821 163.089 218.207 163.089C217.335 163.089 216.584 163.39 215.954 163.991C215.327 164.587 215.014 165.586 215.014 166.987ZM224.225 171.5V162.194H225.488L230.375 169.5V162.194H231.556V171.5H230.293L225.405 164.188V171.5H224.225ZM233.213 168.51L234.375 168.409C234.43 168.874 234.556 169.257 234.755 169.558C234.958 169.854 235.272 170.095 235.695 170.281C236.118 170.463 236.594 170.554 237.123 170.554C237.593 170.554 238.007 170.484 238.367 170.345C238.727 170.205 238.993 170.015 239.167 169.773C239.345 169.528 239.434 169.261 239.434 168.974C239.434 168.682 239.349 168.428 239.18 168.212C239.01 167.992 238.731 167.808 238.342 167.66C238.092 167.562 237.54 167.412 236.685 167.209C235.83 167.002 235.231 166.807 234.889 166.625C234.444 166.392 234.112 166.104 233.892 165.762C233.676 165.415 233.568 165.028 233.568 164.6C233.568 164.13 233.702 163.692 233.968 163.286C234.235 162.876 234.624 162.565 235.136 162.353C235.648 162.141 236.217 162.036 236.844 162.036C237.534 162.036 238.141 162.148 238.666 162.372C239.194 162.592 239.601 162.918 239.884 163.35C240.168 163.781 240.32 164.27 240.341 164.816L239.161 164.905C239.097 164.317 238.881 163.872 238.513 163.572C238.149 163.271 237.61 163.121 236.895 163.121C236.15 163.121 235.606 163.259 235.263 163.534C234.925 163.805 234.755 164.132 234.755 164.518C234.755 164.852 234.876 165.127 235.117 165.343C235.354 165.559 235.972 165.781 236.971 166.009C237.974 166.234 238.661 166.43 239.034 166.6C239.575 166.849 239.975 167.167 240.233 167.552C240.492 167.933 240.621 168.373 240.621 168.872C240.621 169.367 240.479 169.835 240.195 170.275C239.912 170.711 239.503 171.051 238.97 171.297C238.441 171.538 237.845 171.659 237.18 171.659C236.338 171.659 235.631 171.536 235.06 171.291C234.493 171.045 234.047 170.677 233.721 170.186C233.399 169.691 233.23 169.132 233.213 168.51Z" fill="black"/>
<path d="M155.028 207.5V198.194H161.757V199.292H156.26V202.143H161.408V203.234H156.26V206.402H161.973V207.5H155.028ZM163.674 207.5V198.194H166.879C167.603 198.194 168.155 198.239 168.536 198.328C169.069 198.45 169.524 198.673 169.901 198.994C170.392 199.409 170.758 199.94 170.999 200.587C171.244 201.231 171.367 201.967 171.367 202.796C171.367 203.503 171.285 204.129 171.12 204.675C170.955 205.221 170.743 205.674 170.485 206.034C170.227 206.389 169.943 206.671 169.634 206.878C169.33 207.081 168.959 207.236 168.523 207.341C168.092 207.447 167.595 207.5 167.032 207.5H163.674ZM164.905 206.402H166.892C167.506 206.402 167.986 206.345 168.333 206.23C168.684 206.116 168.964 205.955 169.171 205.748C169.463 205.456 169.689 205.065 169.85 204.574C170.015 204.079 170.098 203.48 170.098 202.777C170.098 201.804 169.937 201.057 169.615 200.537C169.298 200.012 168.911 199.661 168.454 199.483C168.124 199.356 167.592 199.292 166.86 199.292H164.905V206.402ZM173.278 207.5V198.194H174.509V207.5H173.278ZM179.054 207.5V199.292H175.988V198.194H183.364V199.292H180.286V207.5H179.054ZM184.018 202.968C184.018 201.423 184.433 200.215 185.262 199.343C186.092 198.467 187.162 198.029 188.474 198.029C189.333 198.029 190.108 198.235 190.797 198.645C191.487 199.056 192.012 199.629 192.372 200.365C192.736 201.097 192.917 201.929 192.917 202.86C192.917 203.804 192.727 204.648 192.346 205.393C191.965 206.137 191.426 206.702 190.728 207.087C190.029 207.468 189.276 207.659 188.468 207.659C187.592 207.659 186.809 207.447 186.119 207.024C185.429 206.601 184.907 206.023 184.551 205.291C184.196 204.559 184.018 203.785 184.018 202.968ZM185.288 202.987C185.288 204.108 185.588 204.993 186.189 205.64C186.794 206.283 187.552 206.605 188.461 206.605C189.388 206.605 190.15 206.279 190.747 205.627C191.347 204.976 191.648 204.051 191.648 202.854C191.648 202.096 191.519 201.436 191.261 200.873C191.007 200.306 190.632 199.868 190.137 199.559C189.646 199.246 189.094 199.089 188.48 199.089C187.609 199.089 186.858 199.39 186.227 199.991C185.601 200.587 185.288 201.586 185.288 202.987ZM194.53 207.5V198.194H198.656C199.485 198.194 200.116 198.279 200.547 198.448C200.979 198.613 201.324 198.907 201.582 199.331C201.84 199.754 201.969 200.221 201.969 200.733C201.969 201.394 201.756 201.95 201.328 202.403C200.901 202.856 200.241 203.143 199.348 203.266C199.674 203.423 199.921 203.577 200.09 203.729C200.45 204.06 200.791 204.472 201.112 204.967L202.731 207.5H201.182L199.951 205.564C199.591 205.005 199.295 204.578 199.062 204.282C198.829 203.986 198.62 203.778 198.434 203.66C198.252 203.541 198.065 203.459 197.875 203.412C197.735 203.382 197.507 203.368 197.189 203.368H195.761V207.5H194.53ZM195.761 202.301H198.408C198.971 202.301 199.411 202.244 199.729 202.13C200.046 202.011 200.287 201.825 200.452 201.571C200.617 201.313 200.7 201.034 200.7 200.733C200.7 200.293 200.539 199.931 200.217 199.648C199.9 199.364 199.396 199.223 198.707 199.223H195.761V202.301ZM204.115 207.5V198.194H205.346V207.5H204.115ZM206.501 207.5L210.075 198.194H211.402L215.21 207.5H213.808L212.722 204.682H208.831L207.809 207.5H206.501ZM209.187 203.679H212.341L211.37 201.102C211.074 200.319 210.854 199.675 210.71 199.172C210.591 199.769 210.424 200.361 210.208 200.949L209.187 203.679ZM216.144 207.5V198.194H217.375V206.402H221.958V207.5H216.144Z" fill="black"/>
<path d="M232 207L236.33 201H227.67L232 207Z" fill="black"/>
<path d="M176.49 243.5V234.194H177.753L182.641 241.5V234.194H183.822V243.5H182.559L177.671 236.188V243.5H176.49ZM185.923 243.5V234.194H192.651V235.292H187.154V238.143H192.302V239.234H187.154V242.402H192.867V243.5H185.923ZM196.193 243.5L193.724 234.194H194.987L196.403 240.294C196.555 240.933 196.686 241.568 196.796 242.199C197.033 241.204 197.173 240.631 197.215 240.479L198.986 234.194H200.472L201.805 238.904C202.139 240.072 202.38 241.17 202.528 242.199C202.647 241.611 202.801 240.936 202.992 240.174L204.452 234.194H205.689L203.138 243.5H201.951L199.989 236.41C199.824 235.817 199.727 235.453 199.697 235.318C199.6 235.745 199.509 236.109 199.424 236.41L197.45 243.5H196.193ZM206.426 240.51L207.587 240.409C207.642 240.874 207.769 241.257 207.968 241.558C208.171 241.854 208.485 242.095 208.908 242.281C209.331 242.463 209.807 242.554 210.336 242.554C210.806 242.554 211.22 242.484 211.58 242.345C211.94 242.205 212.206 242.015 212.38 241.773C212.558 241.528 212.646 241.261 212.646 240.974C212.646 240.682 212.562 240.428 212.393 240.212C212.223 239.992 211.944 239.808 211.555 239.66C211.305 239.562 210.753 239.412 209.898 239.209C209.043 239.002 208.444 238.807 208.102 238.625C207.657 238.392 207.325 238.104 207.105 237.762C206.889 237.415 206.781 237.028 206.781 236.6C206.781 236.13 206.915 235.692 207.181 235.286C207.448 234.876 207.837 234.565 208.349 234.353C208.861 234.141 209.43 234.036 210.057 234.036C210.746 234.036 211.354 234.148 211.878 234.372C212.407 234.592 212.814 234.918 213.097 235.35C213.381 235.781 213.533 236.27 213.554 236.816L212.374 236.905C212.31 236.317 212.094 235.872 211.726 235.572C211.362 235.271 210.823 235.121 210.107 235.121C209.363 235.121 208.819 235.259 208.476 235.534C208.138 235.805 207.968 236.132 207.968 236.518C207.968 236.852 208.089 237.127 208.33 237.343C208.567 237.559 209.185 237.781 210.184 238.009C211.187 238.234 211.874 238.43 212.247 238.6C212.788 238.849 213.188 239.167 213.446 239.552C213.704 239.933 213.833 240.373 213.833 240.872C213.833 241.367 213.692 241.835 213.408 242.275C213.125 242.711 212.716 243.051 212.183 243.297C211.654 243.538 211.057 243.659 210.393 243.659C209.551 243.659 208.844 243.536 208.273 243.291C207.706 243.045 207.259 242.677 206.934 242.186C206.612 241.691 206.443 241.132 206.426 240.51Z" fill="black"/>
<path d="M167.584 276.51L168.746 276.409C168.801 276.874 168.928 277.257 169.126 277.558C169.33 277.854 169.643 278.095 170.066 278.281C170.489 278.463 170.965 278.554 171.494 278.554C171.964 278.554 172.379 278.484 172.738 278.345C173.098 278.205 173.365 278.015 173.538 277.773C173.716 277.528 173.805 277.261 173.805 276.974C173.805 276.682 173.72 276.428 173.551 276.212C173.382 275.992 173.102 275.808 172.713 275.66C172.463 275.562 171.911 275.412 171.056 275.209C170.201 275.002 169.603 274.807 169.26 274.625C168.815 274.392 168.483 274.104 168.263 273.762C168.047 273.415 167.939 273.028 167.939 272.6C167.939 272.13 168.073 271.692 168.339 271.286C168.606 270.876 168.995 270.565 169.507 270.353C170.019 270.141 170.589 270.036 171.215 270.036C171.905 270.036 172.512 270.148 173.037 270.372C173.566 270.592 173.972 270.918 174.255 271.35C174.539 271.781 174.691 272.27 174.712 272.816L173.532 272.905C173.468 272.317 173.252 271.872 172.884 271.572C172.52 271.271 171.981 271.121 171.266 271.121C170.521 271.121 169.977 271.259 169.634 271.534C169.296 271.805 169.126 272.132 169.126 272.518C169.126 272.852 169.247 273.127 169.488 273.343C169.725 273.559 170.343 273.781 171.342 274.009C172.345 274.234 173.032 274.43 173.405 274.6C173.946 274.849 174.346 275.167 174.604 275.552C174.863 275.933 174.992 276.373 174.992 276.872C174.992 277.367 174.85 277.835 174.566 278.275C174.283 278.711 173.875 279.051 173.341 279.297C172.812 279.538 172.216 279.659 171.551 279.659C170.709 279.659 170.002 279.536 169.431 279.291C168.864 279.045 168.418 278.677 168.092 278.186C167.77 277.691 167.601 277.132 167.584 276.51ZM179.042 279.5V271.292H175.976V270.194H183.352V271.292H180.273V279.5H179.042ZM184.005 274.968C184.005 273.423 184.42 272.215 185.25 271.343C186.079 270.467 187.15 270.029 188.461 270.029C189.32 270.029 190.095 270.235 190.785 270.645C191.474 271.056 191.999 271.629 192.359 272.365C192.723 273.097 192.905 273.929 192.905 274.86C192.905 275.804 192.714 276.648 192.333 277.393C191.953 278.137 191.413 278.702 190.715 279.087C190.017 279.468 189.263 279.659 188.455 279.659C187.579 279.659 186.796 279.447 186.106 279.024C185.417 278.601 184.894 278.023 184.539 277.291C184.183 276.559 184.005 275.785 184.005 274.968ZM185.275 274.987C185.275 276.108 185.575 276.993 186.176 277.64C186.781 278.283 187.539 278.605 188.449 278.605C189.375 278.605 190.137 278.279 190.734 277.627C191.335 276.976 191.635 276.051 191.635 274.854C191.635 274.096 191.506 273.436 191.248 272.873C190.994 272.306 190.62 271.868 190.125 271.559C189.634 271.246 189.081 271.089 188.468 271.089C187.596 271.089 186.845 271.39 186.214 271.991C185.588 272.587 185.275 273.586 185.275 274.987ZM194.517 279.5V270.194H198.643C199.472 270.194 200.103 270.279 200.535 270.448C200.966 270.613 201.311 270.907 201.569 271.331C201.827 271.754 201.957 272.221 201.957 272.733C201.957 273.394 201.743 273.95 201.315 274.403C200.888 274.856 200.228 275.143 199.335 275.266C199.661 275.423 199.908 275.577 200.078 275.729C200.437 276.06 200.778 276.472 201.1 276.967L202.718 279.5H201.169L199.938 277.564C199.578 277.005 199.282 276.578 199.049 276.282C198.817 275.986 198.607 275.778 198.421 275.66C198.239 275.541 198.053 275.459 197.862 275.412C197.723 275.382 197.494 275.368 197.177 275.368H195.749V279.5H194.517ZM195.749 274.301H198.396C198.958 274.301 199.398 274.244 199.716 274.13C200.033 274.011 200.274 273.825 200.439 273.571C200.604 273.313 200.687 273.034 200.687 272.733C200.687 272.293 200.526 271.931 200.205 271.648C199.887 271.364 199.384 271.223 198.694 271.223H195.749V274.301ZM204.102 279.5V270.194H205.333V279.5H204.102ZM207.536 279.5V270.194H214.265V271.292H208.768V274.143H213.916V275.234H208.768V278.402H214.48V279.5H207.536ZM215.763 276.51L216.924 276.409C216.979 276.874 217.106 277.257 217.305 277.558C217.508 277.854 217.821 278.095 218.245 278.281C218.668 278.463 219.144 278.554 219.673 278.554C220.143 278.554 220.557 278.484 220.917 278.345C221.277 278.205 221.543 278.015 221.717 277.773C221.895 277.528 221.983 277.261 221.983 276.974C221.983 276.682 221.899 276.428 221.729 276.212C221.56 275.992 221.281 275.808 220.892 275.66C220.642 275.562 220.09 275.412 219.235 275.209C218.38 275.002 217.781 274.807 217.438 274.625C216.994 274.392 216.662 274.104 216.442 273.762C216.226 273.415 216.118 273.028 216.118 272.6C216.118 272.13 216.251 271.692 216.518 271.286C216.785 270.876 217.174 270.565 217.686 270.353C218.198 270.141 218.767 270.036 219.394 270.036C220.083 270.036 220.691 270.148 221.215 270.372C221.744 270.592 222.151 270.918 222.434 271.35C222.718 271.781 222.87 272.27 222.891 272.816L221.71 272.905C221.647 272.317 221.431 271.872 221.063 271.572C220.699 271.271 220.16 271.121 219.444 271.121C218.7 271.121 218.156 271.259 217.813 271.534C217.474 271.805 217.305 272.132 217.305 272.518C217.305 272.852 217.426 273.127 217.667 273.343C217.904 273.559 218.522 273.781 219.521 274.009C220.523 274.234 221.211 274.43 221.583 274.6C222.125 274.849 222.525 275.167 222.783 275.552C223.041 275.933 223.17 276.373 223.17 276.872C223.17 277.367 223.029 277.835 222.745 278.275C222.462 278.711 222.053 279.051 221.52 279.297C220.991 279.538 220.394 279.659 219.73 279.659C218.888 279.659 218.181 279.536 217.61 279.291C217.043 279.045 216.596 278.677 216.271 278.186C215.949 277.691 215.78 277.132 215.763 276.51Z" fill="black"/>
<rect width="390" height="52" fill="white"/>
<path d="M37.6641 26.6436C35.5244 26.6436 34 28.1064 34 30.1094V30.123C34 31.9961 35.3262 33.377 37.2197 33.377C38.5732 33.377 39.4346 32.6865 39.7969 31.9072H39.9336C39.9336 31.9824 39.9268 32.0576 39.9268 32.1328C39.8516 34.0195 39.1885 35.5508 37.623 35.5508C36.7549 35.5508 36.1465 35.0996 35.8867 34.4092L35.8662 34.3408H34.1299L34.1436 34.416C34.458 35.9268 35.8115 37 37.623 37C40.1045 37 41.6016 35.0312 41.6016 31.709V31.6953C41.6016 28.1406 39.7695 26.6436 37.6641 26.6436ZM37.6572 32.0234C36.5361 32.0234 35.7227 31.2031 35.7227 30.0615V30.0479C35.7227 28.9473 36.5908 28.0791 37.6777 28.0791C38.7715 28.0791 39.626 28.9609 39.626 30.0889V30.1025C39.626 31.2168 38.7715 32.0234 37.6572 32.0234Z" fill="black"/>
<path d="M44.4251 30.3623C45.054 30.3623 45.512 29.8838 45.512 29.2822C45.512 28.6738 45.054 28.2021 44.4251 28.2021C43.803 28.2021 43.3382 28.6738 43.3382 29.2822C43.3382 29.8838 43.803 30.3623 44.4251 30.3623ZM44.4251 35.4346C45.054 35.4346 45.512 34.9629 45.512 34.3545C45.512 33.7461 45.054 33.2744 44.4251 33.2744C43.803 33.2744 43.3382 33.7461 43.3382 34.3545C43.3382 34.9629 43.803 35.4346 44.4251 35.4346Z" fill="black"/>
<path d="M52.0337 36.7539H53.7222V34.8604H55.0484V33.4043H53.7222V26.8896H51.2271C49.8873 28.9268 48.4859 31.1963 47.2076 33.418V34.8604H52.0337V36.7539ZM48.8482 33.4453V33.3428C49.8052 31.668 50.9468 29.8428 51.9586 28.2979H52.0611V33.4453H48.8482Z" fill="black"/>
<path d="M58.8563 36.7539H60.62V26.8896H58.8631L56.286 28.7012V30.3623L58.7401 28.626H58.8563V36.7539Z" fill="black"/>
<path d="M311.399 32.3336C311.952 32.3336 312.399 32.7813 312.399 33.3336V35.3336C312.399 35.8858 311.952 36.3336 311.399 36.3336H310.399C309.847 36.3336 309.4 35.8858 309.399 35.3336V33.3336C309.399 32.7813 309.847 32.3336 310.399 32.3336H311.399ZM316.066 30.3336C316.619 30.3338 317.066 30.7814 317.066 31.3336V35.3336C317.066 35.8857 316.618 36.3335 316.066 36.3336H315.066C314.514 36.3336 314.067 35.8858 314.066 35.3336V31.3336C314.066 30.7813 314.514 30.3336 315.066 30.3336H316.066ZM320.732 27.9996C321.285 27.9996 321.732 28.4475 321.732 28.9996V35.3336C321.732 35.8857 321.285 36.3336 320.732 36.3336H319.732C319.18 36.3335 318.733 35.8857 318.732 35.3336V28.9996C318.733 28.4475 319.18 27.9997 319.732 27.9996H320.732ZM325.399 25.6666C325.952 25.6667 326.399 26.1144 326.399 26.6666V35.3336C326.399 35.8857 325.952 36.3336 325.399 36.3336H324.399C323.847 36.3336 323.4 35.8857 323.399 35.3336V26.6666C323.399 26.1143 323.847 25.6666 324.399 25.6666H325.399Z" fill="black"/>
<path fill-rule="evenodd" clip-rule="evenodd" d="M336.826 33.9176C338.102 32.8387 339.971 32.8387 341.246 33.9176C341.31 33.9756 341.348 34.0577 341.35 34.1441C341.351 34.2305 341.317 34.3141 341.255 34.3746L339.258 36.3902C339.199 36.4494 339.119 36.483 339.036 36.483C338.953 36.483 338.873 36.4494 338.814 36.3902L336.816 34.3746C336.755 34.314 336.721 34.2305 336.723 34.1441C336.724 34.0577 336.762 33.9755 336.826 33.9176ZM334.161 31.2281C336.909 28.672 341.165 28.6721 343.913 31.2281C343.975 31.288 344.011 31.3705 344.012 31.4566C344.013 31.5428 343.979 31.6259 343.918 31.6871L342.764 32.8541C342.645 32.9732 342.452 32.9758 342.33 32.86C341.428 32.0428 340.254 31.5904 339.036 31.5904C337.819 31.5909 336.646 32.0433 335.744 32.86C335.622 32.9756 335.43 32.9729 335.312 32.8541L334.156 31.6871C334.096 31.626 334.062 31.5427 334.063 31.4566C334.063 31.3705 334.099 31.288 334.161 31.2281ZM331.496 28.5465C335.711 24.5073 342.361 24.5071 346.576 28.5465C346.637 28.6064 346.671 28.6886 346.672 28.774C346.672 28.8596 346.638 28.9418 346.578 29.0025L345.422 30.1695C345.303 30.289 345.11 30.2902 344.989 30.1725C343.383 28.6457 341.252 27.7946 339.036 27.7945C336.82 27.7945 334.688 28.6456 333.082 30.1725C332.961 30.2904 332.768 30.2892 332.649 30.1695L331.493 29.0025C331.433 28.9418 331.399 28.8596 331.399 28.774C331.4 28.6885 331.435 28.6064 331.496 28.5465Z" fill="black"/>
<path opacity="0.4" d="M371.005 25.3333C372.478 25.3333 373.672 26.5276 373.672 28.0003V34.0003L373.658 34.2728C373.522 35.6174 372.386 36.6663 371.005 36.6663H354.339L354.065 36.6527C352.811 36.525 351.813 35.5276 351.686 34.2728L351.672 34.0003V28.0003C351.672 26.6198 352.721 25.4838 354.065 25.347L354.339 25.3333H371.005ZM354.339 26.3333C353.418 26.3333 352.672 27.0799 352.672 28.0003V34.0003C352.672 34.9206 353.419 35.6663 354.339 35.6663H371.005C371.925 35.6663 372.672 34.9206 372.672 34.0003V28.0003C372.672 27.0798 371.925 26.3333 371.005 26.3333H354.339ZM374.672 29.0003C375.477 29.3391 376 30.1272 376 31.0003C376 31.8733 375.477 32.6616 374.672 33.0003V29.0003Z" fill="black"/>
<rect x="353.672" y="27.3333" width="18" height="7.33333" rx="1.33333" fill="black"/>
<g filter="url(#filter0_d_14_474)">
<rect width="390" height="52" transform="translate(0 792)" fill="#F8F8F8" fill-opacity="0.82"/>
<path d="M152.908 815.787H157.092C157.659 815.787 157.936 815.506 157.936 814.89V811.665C157.936 811.111 157.707 810.825 157.237 810.777V809.67C157.237 808.013 156.151 807.213 155 807.213C153.849 807.213 152.763 808.013 152.763 809.67V810.799C152.333 810.865 152.064 811.146 152.064 811.665V814.89C152.064 815.506 152.341 815.787 152.908 815.787ZM153.471 809.577C153.471 808.474 154.178 807.89 155 807.89C155.822 807.89 156.529 808.474 156.529 809.577V810.773L153.471 810.777V809.577Z" fill="black" fill-opacity="0.5"/>
<path d="M166.88 815.611C168.368 815.611 169.271 814.768 169.487 813.912L169.499 813.865H168.48L168.456 813.918C168.286 814.299 167.759 814.703 166.904 814.703C165.779 814.703 165.058 813.941 165.029 812.635H169.575V812.236C169.575 810.35 168.532 809.072 166.816 809.072C165.099 809.072 163.986 810.408 163.986 812.359V812.365C163.986 814.346 165.075 815.611 166.88 815.611ZM166.81 809.98C167.741 809.98 168.433 810.572 168.538 811.82H165.046C165.157 810.619 165.872 809.98 166.81 809.98ZM170.359 815.5H171.502L173.002 813.115H173.095L174.59 815.5H175.785L173.611 812.301L175.756 809.184H174.613L173.131 811.533H173.037L171.537 809.184H170.336L172.521 812.342L170.359 815.5ZM178.83 815.611C179.68 815.611 180.342 815.242 180.741 814.568H180.834V815.5H181.854V811.176C181.854 809.863 180.992 809.072 179.451 809.072C178.104 809.072 177.143 809.74 176.979 810.73L176.973 810.766H177.992L177.998 810.748C178.162 810.256 178.66 809.975 179.416 809.975C180.36 809.975 180.834 810.396 180.834 811.176V811.75L179.024 811.861C177.553 811.949 176.721 812.6 176.721 813.725V813.736C176.721 814.885 177.629 815.611 178.83 815.611ZM177.764 813.713V813.701C177.764 813.074 178.186 812.734 179.147 812.676L180.834 812.57V813.145C180.834 814.047 180.078 814.727 179.041 814.727C178.309 814.727 177.764 814.352 177.764 813.713ZM183.657 815.5H184.677V811.586C184.677 810.695 185.304 809.975 186.13 809.975C186.927 809.975 187.442 810.461 187.442 811.211V815.5H188.462V811.439C188.462 810.637 189.042 809.975 189.921 809.975C190.811 809.975 191.239 810.438 191.239 811.369V815.5H192.259V811.135C192.259 809.811 191.538 809.072 190.249 809.072C189.376 809.072 188.655 809.512 188.315 810.18H188.222C187.929 809.523 187.331 809.072 186.475 809.072C185.649 809.072 185.052 809.465 184.77 810.145H184.677V809.184H183.657V815.5ZM194.039 817.609H195.058V814.504H195.152C195.497 815.178 196.253 815.611 197.121 815.611C198.726 815.611 199.769 814.328 199.769 812.348V812.336C199.769 810.367 198.72 809.072 197.121 809.072C196.242 809.072 195.539 809.488 195.152 810.191H195.058V809.184H194.039V817.609ZM196.886 814.709C195.738 814.709 195.035 813.807 195.035 812.348V812.336C195.035 810.877 195.738 809.975 196.886 809.975C198.04 809.975 198.726 810.865 198.726 812.336V812.348C198.726 813.818 198.04 814.709 196.886 814.709ZM201.361 815.5H202.381V806.676H201.361V815.5ZM206.856 815.611C208.344 815.611 209.247 814.768 209.463 813.912L209.475 813.865H208.456L208.432 813.918C208.262 814.299 207.735 814.703 206.879 814.703C205.754 814.703 205.034 813.941 205.004 812.635H209.551V812.236C209.551 810.35 208.508 809.072 206.792 809.072C205.075 809.072 203.961 810.408 203.961 812.359V812.365C203.961 814.346 205.051 815.611 206.856 815.611ZM206.786 809.98C207.717 809.98 208.409 810.572 208.514 811.82H205.022C205.133 810.619 205.848 809.98 206.786 809.98ZM211.905 815.559C212.327 815.559 212.667 815.213 212.667 814.797C212.667 814.375 212.327 814.035 211.905 814.035C211.489 814.035 211.144 814.375 211.144 814.797C211.144 815.213 211.489 815.559 211.905 815.559ZM216.925 815.611C218.443 815.611 219.293 814.797 219.55 813.654L219.562 813.59L218.554 813.596L218.543 813.631C218.308 814.334 217.769 814.709 216.92 814.709C215.795 814.709 215.068 813.777 215.068 812.324V812.312C215.068 810.889 215.783 809.975 216.92 809.975C217.828 809.975 218.39 810.479 218.549 811.1L218.554 811.117H219.568L219.562 811.082C219.375 809.957 218.455 809.072 216.92 809.072C215.15 809.072 214.025 810.35 214.025 812.312V812.324C214.025 814.328 215.156 815.611 216.925 815.611ZM223.592 815.611C225.391 815.611 226.504 814.369 226.504 812.348V812.336C226.504 810.309 225.391 809.072 223.592 809.072C221.793 809.072 220.68 810.309 220.68 812.336V812.348C220.68 814.369 221.793 815.611 223.592 815.611ZM223.592 814.709C222.397 814.709 221.723 813.836 221.723 812.348V812.336C221.723 810.842 222.397 809.975 223.592 809.975C224.787 809.975 225.461 810.842 225.461 812.336V812.348C225.461 813.836 224.787 814.709 223.592 814.709ZM228.026 815.5H229.046V811.586C229.046 810.695 229.673 809.975 230.499 809.975C231.296 809.975 231.811 810.461 231.811 811.211V815.5H232.831V811.439C232.831 810.637 233.411 809.975 234.29 809.975C235.18 809.975 235.608 810.438 235.608 811.369V815.5H236.628V811.135C236.628 809.811 235.907 809.072 234.618 809.072C233.745 809.072 233.024 809.512 232.684 810.18H232.591C232.298 809.523 231.7 809.072 230.845 809.072C230.018 809.072 229.421 809.465 229.139 810.145H229.046V809.184H228.026V815.5Z" fill="black" fill-opacity="0.8"/>
<rect x="127.5" y="831" width="135" height="5" rx="2.5" fill="black"/>
</g>
<rect width="390" height="45" transform="translate(0 52)" fill="white"/>
<path d="M300.584 76.5103L301.746 76.4087C301.801 76.8742 301.928 77.2572 302.126 77.5576C302.33 77.8538 302.643 78.0951 303.066 78.2812C303.489 78.4632 303.965 78.5542 304.494 78.5542C304.964 78.5542 305.379 78.4844 305.738 78.3447C306.098 78.2051 306.365 78.0146 306.538 77.7734C306.716 77.528 306.805 77.2614 306.805 76.9736C306.805 76.6816 306.72 76.4277 306.551 76.2119C306.382 75.9919 306.102 75.8078 305.713 75.6597C305.463 75.5623 304.911 75.4121 304.056 75.209C303.201 75.0016 302.603 74.807 302.26 74.625C301.815 74.3923 301.483 74.1045 301.263 73.7617C301.047 73.4147 300.939 73.0275 300.939 72.6001C300.939 72.1304 301.073 71.6924 301.339 71.2861C301.606 70.8757 301.995 70.5646 302.507 70.353C303.019 70.1414 303.589 70.0356 304.215 70.0356C304.905 70.0356 305.512 70.1478 306.037 70.3721C306.566 70.5921 306.972 70.918 307.255 71.3496C307.539 71.7812 307.691 72.27 307.712 72.8159L306.532 72.9048C306.468 72.3166 306.252 71.8722 305.884 71.5718C305.52 71.2713 304.981 71.1211 304.266 71.1211C303.521 71.1211 302.977 71.2586 302.634 71.5337C302.296 71.8045 302.126 72.1325 302.126 72.5176C302.126 72.8519 302.247 73.127 302.488 73.3428C302.725 73.5586 303.343 73.7808 304.342 74.0093C305.345 74.2336 306.032 74.4303 306.405 74.5996C306.946 74.8493 307.346 75.1667 307.604 75.5518C307.863 75.9326 307.992 76.3727 307.992 76.8721C307.992 77.3672 307.85 77.8348 307.566 78.2749C307.283 78.7108 306.875 79.0514 306.341 79.2969C305.812 79.5381 305.216 79.6587 304.551 79.6587C303.709 79.6587 303.002 79.536 302.431 79.2905C301.864 79.0451 301.418 78.6769 301.092 78.186C300.77 77.6909 300.601 77.1323 300.584 76.5103ZM309.883 79.5V70.1943H311.115V79.5H309.883ZM317.646 75.8501V74.7583L321.588 74.752V78.2051C320.983 78.6875 320.359 79.0514 319.716 79.2969C319.073 79.5381 318.412 79.6587 317.735 79.6587C316.821 79.6587 315.99 79.464 315.241 79.0747C314.496 78.6812 313.933 78.1141 313.552 77.3735C313.171 76.633 312.981 75.8057 312.981 74.8916C312.981 73.986 313.169 73.1418 313.546 72.3589C313.927 71.5718 314.473 70.9878 315.184 70.6069C315.895 70.2261 316.713 70.0356 317.64 70.0356C318.313 70.0356 318.92 70.1457 319.462 70.3657C320.008 70.5815 320.435 70.8841 320.744 71.2734C321.053 71.6628 321.288 72.1706 321.449 72.7969L320.338 73.1016C320.198 72.6276 320.025 72.2552 319.817 71.9844C319.61 71.7135 319.314 71.4977 318.929 71.3369C318.544 71.1719 318.116 71.0894 317.646 71.0894C317.084 71.0894 316.597 71.1761 316.187 71.3496C315.776 71.5189 315.444 71.7432 315.19 72.0225C314.94 72.3018 314.746 72.6086 314.606 72.9429C314.369 73.5184 314.25 74.1426 314.25 74.8154C314.25 75.6449 314.392 76.3389 314.676 76.8975C314.964 77.4561 315.38 77.8708 315.926 78.1416C316.472 78.4124 317.052 78.5479 317.666 78.5479C318.199 78.5479 318.719 78.4463 319.227 78.2432C319.735 78.0358 320.12 77.8158 320.382 77.583V75.8501H317.646ZM323.397 79.5V70.1943H324.661L329.548 77.5005V70.1943H330.729V79.5H329.466L324.578 72.1875V79.5H323.397ZM336.632 79.5V70.1943H337.864V79.5H336.632ZM340.028 79.5V70.1943H341.292L346.179 77.5005V70.1943H347.36V79.5H346.097L341.209 72.1875V79.5H340.028Z" fill="black"/>
<path d="M370.333 73.5833V70.75C370.333 69.9986 370.035 69.2779 369.503 68.7465C368.972 68.2152 368.251 67.9167 367.5 67.9167C366.749 67.9167 366.028 68.2152 365.497 68.7465C364.965 69.2779 364.667 69.9986 364.667 70.75V73.5833M361.125 71.4583V79.25C361.125 80.0014 361.424 80.7221 361.955 81.2535C362.486 81.7848 363.207 82.0833 363.958 82.0833H371.042C371.793 82.0833 372.514 81.7848 373.045 81.2535C373.576 80.7221 373.875 80.0014 373.875 79.25V71.4583H361.125Z" stroke="black" stroke-width="1.5" stroke-linecap="round" stroke-linejoin="round"/>
<path d="M17.3706 79V70.7925H14.3047V69.6943H21.6807V70.7925H18.6021V79H17.3706ZM22.9883 79V69.6943H24.2197V73.5156H29.0566V69.6943H30.2881V79H29.0566V74.6138H24.2197V79H22.9883ZM35.3726 76.207V75.0581H38.8828V76.207H35.3726ZM46.0366 79V70.7925H42.9707V69.6943H50.3467V70.7925H47.2681V79H46.0366ZM51.6543 79V69.6943H52.8857V73.5156H57.7227V69.6943H58.9541V79H57.7227V74.6138H52.8857V79H51.6543ZM60.96 79V69.6943H64.4512C65.1621 69.6943 65.7313 69.7896 66.1587 69.98C66.5903 70.1662 66.9268 70.4561 67.168 70.8496C67.4134 71.2389 67.5361 71.6473 67.5361 72.0747C67.5361 72.4725 67.4282 72.847 67.2124 73.1982C66.9966 73.5495 66.6707 73.833 66.2349 74.0488C66.7977 74.2139 67.2293 74.4953 67.5298 74.8931C67.8345 75.2909 67.9868 75.7606 67.9868 76.3022C67.9868 76.7381 67.8937 77.1444 67.7075 77.521C67.5256 77.8934 67.2992 78.1812 67.0283 78.3843C66.7575 78.5874 66.4168 78.7419 66.0063 78.8477C65.6001 78.9492 65.1007 79 64.5083 79H60.96ZM62.1914 73.6045H64.2036C64.7495 73.6045 65.141 73.5685 65.3779 73.4966C65.6911 73.4035 65.9259 73.249 66.0825 73.0332C66.2433 72.8174 66.3237 72.5465 66.3237 72.2207C66.3237 71.9118 66.2497 71.641 66.1016 71.4082C65.9535 71.1712 65.7419 71.0104 65.4668 70.9258C65.1917 70.8369 64.7199 70.7925 64.0513 70.7925H62.1914V73.6045ZM62.1914 77.9019H64.5083C64.9061 77.9019 65.1854 77.887 65.3462 77.8574C65.6297 77.8066 65.8667 77.722 66.0571 77.6035C66.2476 77.485 66.4041 77.3136 66.5269 77.0894C66.6496 76.8608 66.7109 76.5985 66.7109 76.3022C66.7109 75.9552 66.6221 75.6548 66.4443 75.4009C66.2666 75.1427 66.019 74.9629 65.7017 74.8613C65.3885 74.7555 64.9357 74.7026 64.3433 74.7026H62.1914V77.9019Z" fill="black"/>
<path d="M78.5 77L75.4689 73.25H81.5311L78.5 77Z" fill="black"/>
<path d="M185 83L205 67" stroke="black"/>
<path d="M185 67L205 83" stroke="black"/>
</g>
<defs>
<filter id="filter0_d_14_474" x="-59.8" y="732.2" width="509.6" height="171.6" filterUnits="userSpaceOnUse" color-interpolation-filters="sRGB">
<feFlood flood-opacity="0" result="BackgroundImageFix"/>
<feColorMatrix in="SourceAlpha" type="matrix" values="0 0 0 0 0 0 0 0 0 0 0 0 0 0 0 0 0 0 127 0" result="hardAlpha"/>
<feOffset dy="-0.3"/>
<feComposite in2="hardAlpha" operator="out"/>
<feColorMatrix type="matrix" values="0 0 0 0 0.682353 0 0 0 0 0.682353 0 0 0 0 0.705882 0 0 0 1 0"/>
<feBlend mode="normal" in2="BackgroundImageFix" result="effect1_dropShadow_14_474"/>
<feBlend mode="normal" in="SourceGraphic" in2="effect1_dropShadow_14_474" result="shape"/>
</filter>
<clipPath id="clip0_14_474">
<rect width="390" height="844" fill="white"/>
</clipPath>
</defs>
</svg>
