<svg width="1402" height="215" viewBox="0 0 1402 215" fill="none" xmlns="http://www.w3.org/2000/svg">
<g style="mix-blend-mode:difference">
<path d="M846.419 92.4853C846.419 91.7742 846.106 91.2053 845.48 90.7787C844.854 90.3236 843.83 89.9964 842.408 89.7973L836.947 88.9867C832.737 88.3324 829.665 87.2373 827.731 85.7013C825.825 84.1653 824.872 82.0604 824.872 79.3867C824.872 76.4284 826.209 74.1244 828.883 72.4747C831.585 70.8249 835.297 70 840.019 70C848.751 70 853.644 73.0578 854.696 79.1733L845.95 80.0267C845.494 78.7751 844.783 77.8791 843.816 77.3387C842.849 76.7698 841.484 76.4853 839.72 76.4853C837.843 76.4853 836.392 76.7129 835.368 77.168C834.373 77.6231 833.875 78.2773 833.875 79.1307C833.875 79.8418 834.145 80.3822 834.686 80.752C835.226 81.1218 836.222 81.4204 837.672 81.648L844.328 82.7147C848.282 83.3404 851.141 84.4071 852.904 85.9147C854.668 87.3938 855.55 89.4844 855.55 92.1867C855.55 95.4293 854.241 97.8756 851.624 99.5253C849.007 101.175 845.153 102 840.062 102C830.049 102 824.716 98.4444 824.062 91.3333H833.107C833.647 94.1209 835.98 95.5147 840.104 95.5147C844.314 95.5147 846.419 94.5049 846.419 92.4853Z" fill="white"/>
<path d="M794.638 101.232H785.294L798.521 70.768H809.273L822.5 101.232H812.942L810.681 95.6853H796.772L794.638 101.232ZM803.769 77.7227L799.417 88.8587H808.121L803.769 77.7227Z" fill="white"/>
<path d="M749.282 70.768H757.474L772.706 89.072V70.768H781.41V101.232H773.218L757.986 82.928V101.232H749.282V70.768Z" fill="white"/>
<path d="M717.555 101.232H708.211L721.438 70.768H732.19L745.416 101.232H735.859L733.598 95.6853H719.688L717.555 101.232ZM726.686 77.7227L722.334 88.8587H731.038L726.686 77.7227Z" fill="white"/>
<path d="M665.365 70.768H675.776L684.949 91.376L694.08 70.768H704.277V101.232H695.829V83.4827L688.107 101.232H681.365L673.685 83.568V101.232H665.365V70.768Z" fill="white"/>
<path d="M649.24 70.768H658.456V101.232H649.24V70.768Z" fill="white"/>
<path d="M617.513 101.232H608.169L621.396 70.768H632.148L645.374 101.232H635.817L633.556 95.6853H619.646L617.513 101.232ZM626.644 77.7227L622.292 88.8587H630.996L626.644 77.7227Z" fill="white"/>
<path d="M580.198 70.768H589.414V93.7653H606.737L605.798 101.232H580.198V70.768Z" fill="white"/>
<path d="M546.198 70.768H561.345C570.476 70.768 575.041 74.2809 575.041 81.3067C575.041 84.9191 573.86 87.5929 571.5 89.328C569.167 91.0347 565.612 91.888 560.833 91.888H555.116V101.232H546.198V70.768ZM566.081 81.264C566.081 79.9556 565.654 79.0169 564.801 78.448C563.948 77.8791 562.596 77.5947 560.748 77.5947H555.116V85.0613H560.662C562.511 85.0613 563.876 84.7769 564.758 84.208C565.64 83.6391 566.081 82.6578 566.081 81.264Z" fill="white"/>
</g>
</svg>
